STARTFONT 2.3
FONT -FontForge-Butcherman-Book-R-Normal--32-320-72-72-P-173-ISO10646-1
SIZE 32 72 72  2
FONTBOUNDINGBOX 49 62 -3 -21
COMMENT "Generated by fontforge, http://fontforge.sourceforge.net"
COMMENT "Copyright (c) 2011, Typomondo, with Reserved Font Name  "Butcherman"."
STARTPROPERTIES 41
FOUNDRY "FontForge"
FAMILY_NAME "Butcherman"
WEIGHT_NAME "Book"
SLANT "R"
SETWIDTH_NAME "Normal"
ADD_STYLE_NAME ""
PIXEL_SIZE 32
POINT_SIZE 320
RESOLUTION_X 72
RESOLUTION_Y 72
SPACING "P"
AVERAGE_WIDTH 173
CHARSET_REGISTRY "ISO10646"
CHARSET_ENCODING "1"
FONTNAME_REGISTRY ""
CHARSET_COLLECTIONS "ISO8859-2 ISO8859-9 ISO8859-4 ISO10646-1"
BITS_PER_PIXEL 2
FONT_NAME "Butcherman-Regular"
FACE_NAME "Butcherman Regular"
COPYRIGHT "Copyright (c) 2011, Typomondo, with Reserved Font Name  "Butcherman"."
FONT_VERSION "001.004"
FONT_ASCENT 26
FONT_DESCENT 6
UNDERLINE_POSITION -3
UNDERLINE_THICKNESS 2
X_HEIGHT 23
CAP_HEIGHT 23
DEFAULT_CHAR 3
RAW_ASCENT 799
RAW_DESCENT 200
NORM_SPACE 5
RELATIVE_WEIGHT 40
RELATIVE_SETWIDTH 50
SUPERSCRIPT_X 0
SUPERSCRIPT_Y 11
SUPERSCRIPT_SIZE 19
SUBSCRIPT_X 0
SUBSCRIPT_Y 2
SUBSCRIPT_SIZE 19
AVG_LOWERCASE_WIDTH 185
AVG_UPPERCASE_WIDTH 177
ENDPROPERTIES
CHARS 331
STARTCHAR NULL.dup1
ENCODING 0
SWIDTH 161 0
DWIDTH 5 0
BBX 1 1 0 0
BITMAP
00
ENDCHAR
STARTCHAR CR
ENCODING 13
SWIDTH 161 0
DWIDTH 5 0
BBX 1 1 0 0
BITMAP
00
ENDCHAR
STARTCHAR space
ENCODING 32
SWIDTH 161 0
DWIDTH 5 0
BBX 1 1 0 0
BITMAP
00
ENDCHAR
STARTCHAR exclam
ENCODING 33
SWIDTH 350 0
DWIDTH 11 0
BBX 9 39 1 1
BITMAP
050000
6FFE40
FFFFC0
FFFFC0
BFFF40
7FFF00
2FFF40
3FFF00
3FFF00
7FFE00
7FFE00
3FFE00
2FFD00
1FFC00
0FFC00
0FFD00
0BFC00
0BFC00
0BF800
0BFC00
0BFC00
0BFC00
0BF800
0BF800
07F400
001400
000000
000000
005500
BFFF80
BFFF80
7FFF80
3FFF80
2FFFC0
2FFFC0
2FFF80
2FFF80
2FFF80
194000
ENDCHAR
STARTCHAR quotedbl
ENCODING 34
SWIDTH 541 0
DWIDTH 17 0
BBX 15 12 1 12
BITMAP
15941690
BFF8BFF8
7FF87FF8
3FF83FF4
3FF82FF4
2FF42FF0
2FF01FF0
1FF00FF0
0FF00FE0
0FE00BE0
0BE00BD0
07900A80
ENDCHAR
STARTCHAR numbersign
ENCODING 35
SWIDTH 583 0
DWIDTH 19 0
BBX 18 28 0 -3
BITMAP
0000A007D0
0001E007C0
0002E00BC0
0003D00F80
0007C01F40
000BC01F00
015BC56F40
07FFFFFFF0
07FFFFFFD0
07FFFFFFD0
07FFFFFFC0
07FFFFFFC0
007E57F540
00BC03F000
00F803E000
01F407D000
01F407D000
02F00BC000
BFFAAFFD00
BFFFFFF800
BFFFFFF400
BFFFFFF400
0B945E1000
0F402D0000
1F003C0000
2E00780000
3D00B80000
1500B40000
ENDCHAR
STARTCHAR dollar
ENCODING 36
SWIDTH 534 0
DWIDTH 17 0
BBX 15 40 1 -9
BITMAP
00078000
00078000
000B8000
000B8000
000B8000
000B8000
0007C000
0007D400
00BFFE00
07FFFFD0
1FFFFFF4
2FFFFFFC
3FFFFFF8
BFFFFFF8
BFFFFFF8
BFFFFFF8
FFFFFFF8
BFFEFFF4
BFF87FF4
BFF82AB8
7FFE9004
3FFFFD00
1FFFFF00
06FFFF80
006BFFC0
0000BFD0
2FF87FD0
2FF8BFD0
1FFEFF80
0BFFFF00
07FFFE00
01DBE900
00074000
00074000
000B4000
000B4000
000B4000
000B4000
000B4000
00054000
ENDCHAR
STARTCHAR percent
ENCODING 37
SWIDTH 828 0
DWIDTH 27 0
BBX 25 28 1 -3
BITMAP
00000007D00000
0000000BC00000
1BA4001F800000
7FFD002F800000
BFFF402F000000
FFFF403E000000
FFFF403F000000
BFFF407E000000
BC7F407D000000
BC7F40BC02A000
BC7F40F80BFC00
BC7F01F41FFF00
7D7E02F02FFF00
7FFD07D02FFF40
2FF80BC01FFF00
05D00FC01FBF40
00001F801FBF40
00002F802FBF40
00003F003E3F40
00002E003E3F00
00002D003FFE00
00003C001BFC00
0000780001E000
0000F400000000
0001F000000000
0001F000000000
0001E000000000
00015000000000
ENDCHAR
STARTCHAR ampersand
ENCODING 38
SWIDTH 522 0
DWIDTH 17 0
BBX 15 17 1 4
BITMAP
00040000
007FF000
007FF000
003FF000
003FE000
003FE000
BFFFFAB4
BFFFFFF4
BFFFFFF4
BFFFFFF4
BFFFFFF4
6ABFFAA0
007FF000
007FF000
007FF000
007FE000
002A9000
ENDCHAR
STARTCHAR quotesingle
ENCODING 39
SWIDTH 300 0
DWIDTH 10 0
BBX 7 12 1 12
BITMAP
5590
7FF8
3FF8
3FF8
2FF8
2FF4
1FF4
1FF4
0FF0
0FF0
0BF0
0BA0
ENDCHAR
STARTCHAR parenleft
ENCODING 40
SWIDTH 372 0
DWIDTH 12 0
BBX 11 32 1 -4
BITMAP
000010
0001B4
001FF4
007FF4
01FFF0
02FFF0
07FFE0
0BFFE0
1FFFE0
3FFFD0
3FFFD0
7FFF90
7FFC00
7FF400
BFF000
BFF000
BFF000
BFF000
BFE000
BFE000
BFF000
BFF000
7FF000
3FF800
2FFC00
1FFE00
0BFF80
07FFC0
02FFD0
00FFD0
006FD0
000640
ENDCHAR
STARTCHAR parenright
ENCODING 41
SWIDTH 338 0
DWIDTH 11 0
BBX 10 31 0 -4
BITMAP
240000
3FE000
3FF800
3FFE00
2FFF80
2FFFC0
2FFFD0
2FFFD0
2FFFD0
1FFFD0
1FFFD0
16FFD0
00FFD0
00BFC0
007FC0
007FC0
007FC0
007FC0
007F80
007F80
007F80
00BF40
00BF40
00FF00
01FF00
01FE00
16FD00
2FF400
7FE000
7FC000
7F4000
ENDCHAR
STARTCHAR asterisk
ENCODING 42
SWIDTH 513 0
DWIDTH 16 0
BBX 15 19 1 7
BITMAP
00001000
00403800
01D03D00
07F07E00
03F4FD00
02F9FC00
01FFF800
00FFF400
A9BFFA50
FFFFFFF8
FFFFFFF4
BFFFFFA0
007FF000
00BFF400
00BEF800
01FDFD00
02F8BE00
03F47E00
01200000
ENDCHAR
STARTCHAR plus
ENCODING 43
SWIDTH 458 0
DWIDTH 15 0
BBX 12 14 1 5
BITMAP
005500
00FF80
00BF80
00BF40
55FF95
BFFFFF
BFFFFF
BFFFFF
BFFFFF
15FF95
00FF40
00FF40
00FF40
005500
ENDCHAR
STARTCHAR comma
ENCODING 44
SWIDTH 361 0
DWIDTH 12 0
BBX 9 16 1 -5
BITMAP
6FAA40
7FFF80
7FFF80
7FFFC0
7FFFC0
7FFFC0
7FFFC0
BFFFC0
BFFF80
25AF80
002F80
002F80
003F40
003F40
007F00
002A00
ENDCHAR
STARTCHAR hyphen
ENCODING 45
SWIDTH 478 0
DWIDTH 15 0
BBX 13 7 1 9
BITMAP
15555540
3FFFFF40
3FFFFF00
3FFFFE00
7FFFFE00
7FFFFE00
16A69900
ENDCHAR
STARTCHAR period
ENCODING 46
SWIDTH 374 0
DWIDTH 12 0
BBX 10 11 1 1
BITMAP
001500
6FFFD0
3FFFD0
3FFFD0
3FFFC0
2FFFD0
2FFFD0
2FFFD0
2FFFD0
1FFFC0
154000
ENDCHAR
STARTCHAR slash
ENCODING 47
SWIDTH 291 0
DWIDTH 9 0
BBX 11 28 -1 -3
BITMAP
0000B4
0001F0
0002F0
0007E0
000BD0
000BC0
000BC0
000F80
001F40
002F00
003E00
00BD00
00FC00
00FC00
01F800
02F400
02F000
03E000
07D000
03C000
078000
0B4000
0F4000
1F0000
2E0000
3D0000
7D0000
180000
ENDCHAR
STARTCHAR zero
ENCODING 48
SWIDTH 528 0
DWIDTH 17 0
BBX 15 26 1 -2
BITMAP
005A5000
02FFFD00
0BFFFF40
1FFFFF80
3FFFFFF0
7FFFFFF0
BFFFFFF0
7FFFFFF0
7FFFFFF4
7FFFFFF4
7FFAFFF4
7FF0FFF4
7FE0BFF4
3FD0BFF4
3FD07FF0
3FD07FF0
3FD07FF0
3FD0BFE0
2FE0BFD0
1FF0FF80
1FF5FF80
1FFFFF40
0FFFFF00
05BFFD00
002BF400
0007C000
ENDCHAR
STARTCHAR one
ENCODING 49
SWIDTH 366 0
DWIDTH 12 0
BBX 11 25 0 -1
BITMAP
000690
006FF0
1BFFE0
BFFFF0
BFFFE0
7BFFF4
02FFF4
01FFF0
01FFF0
01FFF0
01FFE0
00FFE0
00FFD0
00FFD0
00FFD0
00BFD0
00BFC0
00BFC0
007FD0
007FC0
007FC0
007FC0
003FC0
0023C0
000050
ENDCHAR
STARTCHAR two
ENCODING 50
SWIDTH 575 0
DWIDTH 18 0
BBX 17 27 1 -3
BITMAP
006A940000
02FFFE0000
0BFFFF8000
1FFFFFE000
7FFFFFF400
7FFFFFF800
7FFFFFF800
7FFFFFFC00
7FFFFFF800
7FFFFFF800
7FFEFFF800
3FF8BFF400
3FF07FF400
2FF0FFF000
1042FFF000
0002FFD000
0002FFC000
0003FF4000
000BFE0000
002FFE4140
00BFFFFF80
3FFFFFFF80
3FFFFFFF40
3FFFFEFF40
7FFFE5AF00
BF96408D00
0100004C00
ENDCHAR
STARTCHAR three
ENCODING 51
SWIDTH 517 0
DWIDTH 17 0
BBX 14 26 1 -2
BITMAP
006A4000
07FFF400
1FFFFD00
7FFFFF40
FFFFFFC0
BFFFFFD0
BFFFFFE0
BFFFFFF0
7FFFFFF0
7FFFFFF0
7FFEFFF0
7FF4FFF0
7FE0FFE0
6401FFD0
0007FFC0
001FFFC0
001FFFC0
000ABFE0
00003FE0
00552FE0
07FE2FE0
02FF7FD0
01FFFF80
00FFFF40
007FFE00
00290000
ENDCHAR
STARTCHAR four
ENCODING 52
SWIDTH 466 0
DWIDTH 15 0
BBX 13 31 1 -7
BITMAP
2AA9AF80
2FFFFD00
0BFFF000
0FFFD000
1FFF8000
1FFF8000
1FFF8000
1FFF0000
2FFE0000
2FFE0000
2FFD0000
2FFD0000
1FFC0000
1FF85400
2FFAFF00
2FF6FE00
3FF2FD00
3FF1FD00
3FE1FC00
7FFAFD40
7FFFFFC0
BFFFFF80
BFFFFF80
FFFFFF80
546AFF80
0000F840
0000F400
0000F400
0000F400
0000B400
0000A400
ENDCHAR
STARTCHAR five
ENCODING 53
SWIDTH 583 0
DWIDTH 19 0
BBX 17 26 1 -2
BITMAP
6AAAA55400
7FFFFFFFC0
7FFFFFFF80
7FFFFFFF80
7FFFFFFF40
3FFFFFFF40
7FFFFFFF00
7FFFFFFF00
7FFFFFFE00
3FFFFFFE00
3FFFFFFE00
3FF5AAFD00
BFF0000000
3FF0000000
3FFAFFC000
3FFFFF8000
1FFFFFC000
055ABFD000
00002FE000
00552FE000
03FE1FD000
02FF7FC000
01FFFF8000
00BFFF0000
007FFE0000
0019400000
ENDCHAR
STARTCHAR six
ENCODING 54
SWIDTH 582 0
DWIDTH 19 0
BBX 17 27 1 -3
BITMAP
0055500000
03FFFF4000
1BFFFFE000
7FFFFFF800
BFFFFFFD00
BFFFFFFF00
BFFFFFFF80
BFFFFFFF40
BFFFFFFF00
BFFFFFFF00
7FFFFFFE00
7FF87FFD00
3FF82FFC00
3FF81FFC00
2FF41AFC00
1FF9905400
0FFFFFA000
0BFFFFFC00
0BFC0BFC00
0BFC0BFC00
0BFD0BFC00
07FE1FFC00
03FFFFFC00
02FFFFFC00
00BFFFF800
007BBEE000
0011104000
ENDCHAR
STARTCHAR seven
ENCODING 55
SWIDTH 624 0
DWIDTH 20 0
BBX 20 27 0 -3
BITMAP
00556AAAA9
7FFFFFFFFE
7FFFFFFFFD
3FFFFFFFFC
3FFFFFFFF8
2FFFFFFFF4
1FFFFFFFF4
1FFFFFFFF0
1FFFFFFFD0
0FFFFFFFC0
0FFFFFFF80
0FFAA6FF80
000002FF80
000003FF00
000007FE00
00000BFD00
00000FF800
00001FF400
00002FE000
00003FD000
0000BF8000
0000BF8000
0000FF0000
0002FE0000
0003FD0000
0007FC0000
000AB80000
ENDCHAR
STARTCHAR eight
ENCODING 56
SWIDTH 459 0
DWIDTH 15 0
BBX 13 27 1 -3
BITMAP
01AA9000
2FFFFD00
7FFFFF00
BFFFFF40
BFFFFF40
BFFFFF40
BFFFFF40
7FFFFF00
7FFFFF00
3FFFFE00
3FD7FE00
2FD2FD00
2FD2FD00
1FE2FC00
1FFFF800
0BFFF400
07FFE000
0FFFF400
0FC3F800
0FC2F400
0BC3F400
0BD7F400
0BFFF400
07FFF000
02FBD000
00100000
00100000
ENDCHAR
STARTCHAR nine
ENCODING 57
SWIDTH 584 0
DWIDTH 19 0
BBX 17 28 1 -4
BITMAP
0005A50000
00BFFF4000
02FFFFF400
0BFFFFFD00
1FFFFFFE00
3FFFFFFE00
7FFFFFFF00
BFFFFFFF00
BFFFFFFF00
BFFFFFFF40
BFFEBFFF40
BFFC2FFF40
7FFC1FFF40
3FFEAFFF40
2FFFFFFF00
0FFFFFFE00
03FFFFFD00
00555FFC00
00001FF800
1BFC1FF400
2FFD3FF000
1FFFFFD000
0BFFFF8000
07FFFF4000
01EAAB0000
0001010000
0001000000
0001400000
ENDCHAR
STARTCHAR colon
ENCODING 58
SWIDTH 386 0
DWIDTH 12 0
BBX 10 27 1 1
BITMAP
001000
6AFFD0
7FFFD0
3FFFD0
2FFFD0
2FFFD0
2FFFD0
2FFFD0
1FFFD0
1FFFD0
1A4140
000000
000000
000000
000000
000000
005500
6FFFD0
3FFFC0
3FFFC0
3FFFD0
3FFFD0
2FFFD0
2FFFD0
1FFFC0
1FFFC0
1A4000
ENDCHAR
STARTCHAR semicolon
ENCODING 59
SWIDTH 375 0
DWIDTH 12 0
BBX 9 33 1 -5
BITMAP
001500
6BFF80
BFFFC0
7FFFC0
3FFFC0
2FFFC0
2FFFC0
3FFFC0
2FFFC0
2FFFC0
2D4100
000000
000000
000000
000000
000000
000000
2E9B80
7FFFC0
3FFFC0
3FFFC0
3FFFC0
3FFFC0
3FFFC0
7FFFC0
7FFFC0
25AFC0
001FC0
002F80
003F80
003F40
003F40
002B40
ENDCHAR
STARTCHAR less
ENCODING 60
SWIDTH 459 0
DWIDTH 15 0
BBX 13 18 1 2
BITMAP
00AAA540
00FFFF40
00FFFD00
02FFF400
03FFE000
0BFFC000
2FFF8000
BFFE0000
FFFC0000
BFFD0000
3FFF0000
2FFF4000
0BFF8000
03FFE000
01FFF800
007FFE00
001FFF80
00056A40
ENDCHAR
STARTCHAR equal
ENCODING 61
SWIDTH 485 0
DWIDTH 16 0
BBX 12 11 2 9
BITMAP
555554
FFFFFD
FFFFFD
FFFFFD
555558
000000
000000
FFFFFD
FFFFFD
FFFFFD
5A9A98
ENDCHAR
STARTCHAR greater
ENCODING 62
SWIDTH 432 0
DWIDTH 14 0
BBX 12 18 1 2
BITMAP
AAA900
BFFF00
3FFF00
1FFF40
07FFD0
02FFE0
00FFF8
007FFD
002FFE
007FFD
007FFC
00FFF8
02FFE0
0BFFC0
2FFF40
BFFE00
BFFC00
555000
ENDCHAR
STARTCHAR question
ENCODING 63
SWIDTH 577 0
DWIDTH 18 0
BBX 15 29 1 -4
BITMAP
00BFE400
03FFFE00
1FFFFFD0
2FFFFFF0
7FFFFFF8
7FFFFFF8
7FFFFFFC
7FFFFFFC
7FFFFFFC
3FFDFFFC
2FF47FF8
1AA47FF8
0000BFF4
0000FFE0
0002FFC0
0002FF80
0003FF00
0003FD00
0007F800
00069000
00000000
00000000
006AE400
007FF800
003FF800
002FF800
002FF800
002FF800
00151000
ENDCHAR
STARTCHAR at
ENCODING 64
SWIDTH 930 0
DWIDTH 30 0
BBX 28 35 1 -7
BITMAP
00000555000000
00002FFFE00000
0001FFFFFD0000
000BFFFFFF4000
002FFE95BFE000
007F90000BF800
00FD015542FD00
02F42FFFF0BF40
07D0BFFFF83FC0
0B81FFFFFD2FE0
1F42FFFFFD1FF0
2F03FFFFFD0FF8
3E03FFFFFD0BFC
7E02FFFFFC0BFD
BD01FFFFFC07FE
BD01FFC7F807FE
FD00FF47F807FE
BD00FF03F803FE
7D00A407F803FE
BD001AFFF402FE
BE00BFEFF802FD
7E00BF03FD01FD
7F00BF03FE01FC
7F40BF4BFF81F8
3F80BFFFFFFAF4
2FC0BFFFF7FFF0
1FD07FFFD3FF90
0FF0199941A900
07F80000000000
02FD0000000000
00FF4000000000
007FE555A40000
001FFFFFFC0000
0002FFFFFD0000
00002BFE900000
ENDCHAR
STARTCHAR A
ENCODING 65
SWIDTH 494 0
DWIDTH 16 0
BBX 14 30 1 -7
BITMAP
BFFFFE90
2FFFFF80
0BFFFF00
0BFFFE00
0BFFFD00
07FFFD00
07FFFC00
0BFFFC00
0BFFFC00
0BFFFC00
07FFFC00
07FBF800
0BF7F800
0BF6FC00
0BF2F800
0BF2FC00
07E2F800
0BFFFC00
0FFFF800
0FFFF800
0BFFF800
0BF7F400
07F2F000
07D2F000
06C2F000
06416000
01006000
00009000
00010000
00010000
ENDCHAR
STARTCHAR B
ENCODING 66
SWIDTH 517 0
DWIDTH 17 0
BBX 15 25 1 -1
BITMAP
016AA900
BFFFFFD0
7FFFFFF0
2FFFFFF4
1FFFFFF4
0BFFFFF4
0BFFFFF4
0BFFFFF0
0BFFFFF0
07FFFFE0
07FD7FE0
07FD2FD0
07FD2FD0
07FE2FC0
07FFFF80
07FFFF40
07FFFE00
03FFFF40
03FC3F80
03FC2F40
02FC3F40
02FD7F40
02FFFF40
02FFFF00
014FBD00
ENDCHAR
STARTCHAR C
ENCODING 67
SWIDTH 504 0
DWIDTH 16 0
BBX 15 28 1 -4
BITMAP
006AA400
02FFFE00
0BFFFF80
3FFFFFD0
7FFFFFF4
BFFFFFF4
FFFFFFF4
FFFFFFF4
FFFFFFF4
FFFFFFF4
BFFEFFF4
BFF8BFF0
BFF43FF0
7FF43FF0
7FF40410
3FF00000
3FF00000
2FF01400
2FF47F80
1FF47FC0
1FF8FF80
0BFFFF40
07FFFF00
07FFFD00
0076F400
00219000
00229000
00004000
ENDCHAR
STARTCHAR D
ENCODING 68
SWIDTH 522 0
DWIDTH 17 0
BBX 15 29 1 -5
BITMAP
00015500
5ABFFF40
BFFFFFD0
7FFFFFF4
3FFFFFF8
2FFFFFFC
1FFFFFFC
0FFFFFFC
0FFFFFFC
0FFFFFFC
0BFFBFF8
0BFE0FF8
0BFE0BF4
0BFD0BF4
07FD07F0
07FD07E0
07FD0BE0
03FD0FD0
03FD0FD0
02FE1FD0
02FFBFC0
01FFFFC0
02FFFF80
02D2FF00
0282F900
0182A000
01415000
00014000
00004000
ENDCHAR
STARTCHAR E
ENCODING 69
SWIDTH 570 0
DWIDTH 18 0
BBX 16 26 1 -2
BITMAP
055A9500
BFFFFFFE
7FFFFFFD
2FFFFFFC
1FFFFFFC
0FFFFFF8
0FFFFFF4
0FFFFFF0
0FFFFFE0
0FFFFFD0
0BFEAFD0
0BFD0180
0BFD0000
0BFEA900
07FFFE00
07FFFD00
07FFFD00
03FFAD00
03FD0000
02FD0000
02FFFE00
02FFFF00
02EFFE00
024BEA00
014B8600
00050500
ENDCHAR
STARTCHAR F
ENCODING 70
SWIDTH 559 0
DWIDTH 18 0
BBX 16 27 1 -3
BITMAP
04550400
FFFFFFF9
7FFFFFFC
1FFFFFF8
0BFFFFF4
07FFFFF0
03FFFFF0
03FFFFE0
03FFFFE0
03FFFFE0
03FFFFE0
02FF66E0
01FF4010
01FFEA80
01FFFF80
01FFFF80
01FFFF80
01FF9A80
00FF8000
00FF4000
01FF8000
01FF8000
01FF8000
01FF8000
016E8000
01084000
00040000
ENDCHAR
STARTCHAR G
ENCODING 71
SWIDTH 499 0
DWIDTH 16 0
BBX 15 27 1 -3
BITMAP
00154000
06FFF400
2FFFFF40
7FFFFFD0
7FFFFFE0
BFFFFFF0
FFFFFFF4
FFFFFFF4
BFFFFFF4
BFFFFFF0
BFFBFFE0
7FE1FFE0
7FE0BFE0
3FE0BFE0
3FD01690
2FD25500
2FE2FFD0
2FE2FFE0
2FF2FFE0
1FF13FD0
1FF47FD0
0FFEFFD0
0BFFFFC0
03FFFF80
01EBFE00
0055A800
00600000
ENDCHAR
STARTCHAR H
ENCODING 72
SWIDTH 726 0
DWIDTH 23 0
BBX 21 30 1 -6
BITMAP
000550955400
56BFD0FFFF80
BFFF80FFFF80
2FFF80BFFF00
1FFF807FFE00
0FFF80BFFD00
0FFF80FFFC00
0BFF80FFF800
0BFF80FFF400
07FF80FFF400
07FF40FFF000
03FF40FFE000
03FF40FFD000
02FFABFFD000
02FFFFFF8000
01FFFFFF8000
01FFFFFF8000
00FF92FF8000
00FF82FF8000
00FF82FF0000
00FF82FF0000
00BF82FF0000
00BF83FE0000
00BF83FE0000
00A502FE0000
004000D50000
000000040000
000000000000
000005000000
000005000000
ENDCHAR
STARTCHAR I
ENCODING 73
SWIDTH 401 0
DWIDTH 13 0
BBX 12 26 0 -2
BITMAP
1AAAA9
7FFFFE
2FFFFC
0BFFF8
03FFF4
01FFF4
01FFF4
01FFF4
01FFF4
01FFF0
01FFF0
01FFE0
01FFD0
01FFE0
00FFE0
00FFE0
00FFD0
00BFC0
00BFD0
00BFD0
007FD0
007FC0
003FC0
0033D0
002250
000100
ENDCHAR
STARTCHAR J
ENCODING 74
SWIDTH 455 0
DWIDTH 15 0
BBX 15 25 -1 -1
BITMAP
00055500
000FFFF4
000BFFE0
0007FFD0
0003FFD0
0002FFC0
0002FF40
0003FF40
0003FF40
0003FF00
0003FF00
0003FF00
0003FE00
0003FE00
0003FE00
0003FD00
1A83FD00
BF83FC00
BF83FC00
7F87F800
7FDBF800
3FFFF400
2FFFF000
0BDFA000
008A1000
ENDCHAR
STARTCHAR K
ENCODING 75
SWIDTH 580 0
DWIDTH 19 0
BBX 18 26 0 -2
BITMAP
0594419000
7FFF83FF90
1FFF83FF80
0BFF87FE00
03FFC7F800
02FFCBE000
01FFCFD000
00FFDFD000
00BFFFC000
00BFFF8000
00BFFF8000
00BFFFC000
007FFFC000
007FFFC000
003FFFC000
003FFFC000
002FFFD000
002FFFC000
002FFFD000
002FDFE000
002F87F000
001F87F000
001FC3F400
001FC3F400
0008829400
0000400000
ENDCHAR
STARTCHAR L
ENCODING 76
SWIDTH 416 0
DWIDTH 13 0
BBX 15 26 0 -2
BITMAP
6AA96800
2FFFF800
0FFFE000
0BFFC000
0BFF8000
0BFF8000
07FFC000
07FF8000
07FF8000
07FF8000
07FF4000
03FF8000
02FF8000
02FF8000
02FF8000
02FF8000
01FF8000
01FF8000
01FF8000
00FFD414
00FFFFF0
00BFFFF0
00BFFFE0
007FEFE0
00269BD0
00115180
ENDCHAR
STARTCHAR M
ENCODING 77
SWIDTH 740 0
DWIDTH 24 0
BBX 22 26 1 -1
BITMAP
000000400000
05ABD1EF9400
FFFFD0FFFF90
7FFFD0FFFF40
2FFFE1FFFE00
0FFFF2FFFE00
0FFFF7FFFD00
0FFFFBFFFC00
0FFFFFFFFC00
0BFFFFFFFC00
07FFFFFFF800
07FFFFFFF800
07FFFFFFF800
07FFFFFFF800
03FFFFEFF800
03FFBFEFF800
02FF7FDFF800
01FF3F9FF800
01FF7F9FF800
00FF6F9FF400
00FF6F9FF000
00FF5F1FF000
00BF4F1FF000
00BF4F2FE000
00A54920A000
007000009000
ENDCHAR
STARTCHAR N
ENCODING 78
SWIDTH 610 0
DWIDTH 20 0
BBX 18 29 1 -5
BITMAP
0056194000
BFFF0FFF90
BFFF0BFF80
2FFF4BFF00
1FFF87FD00
0FFFC7FD00
0FFFD7FD00
0FFFE7FD00
0FFFFBFC00
0FFFFFFC00
0BFFFFFC00
0BFFFFF800
0BFFFFF800
07FFFFF400
07FFFFF400
03FFFFF400
02FEFFF000
02FDFFF000
01FDBFF000
01FD7FF000
01FD7FF000
01FD3FF000
01FD2FE000
00FE1FE000
00FE0FA000
00E60F9000
0081054000
0081040000
0082040000
ENDCHAR
STARTCHAR O
ENCODING 79
SWIDTH 504 0
DWIDTH 16 0
BBX 15 27 1 -3
BITMAP
00154000
02FFF900
0FFFFF40
2FFFFFE0
BFFFFFF0
FFFFFFF0
FFFFFFF0
FFFFFFF4
FFFFFFF0
BFFFFFF0
BFFAFFF4
BFF0FFF4
7FE0BFF4
3FE0BFF4
3FD07FF0
3FE07FF0
3FE07FE0
2FE07FD0
1FF0BFC0
1FF0BFC0
0FF9FF80
0FFFFF40
0BFFFF00
02FFFD00
0075F900
0020D400
00008000
ENDCHAR
STARTCHAR P
ENCODING 80
SWIDTH 545 0
DWIDTH 17 0
BBX 17 26 0 -2
BITMAP
0055A65000
7FFFFFFC00
1FFFFFFE00
07FFFFFF40
02FFFFFF80
02FFFFFF80
01FFFFFF40
01FFFFFF00
01FFFFFF00
01FFFFFF00
00FFE6FF00
00FFE0FE00
00BFE0FE00
007FE0FE00
007FE0FE00
003FFAFD00
003FFFFC00
003FFFF800
003FFEE000
002FE00000
002FE00000
002FE00000
001FE00000
001FE00000
000DF00000
0004500000
ENDCHAR
STARTCHAR Q
ENCODING 81
SWIDTH 520 0
DWIDTH 17 0
BBX 17 28 0 -4
BITMAP
0001540000
001FFF4000
01FFFFD000
0BFFFFF800
0FFFFFFD00
1FFFFFFE00
3FFFFFFE00
3FFFFFFE00
3FFFFFFE00
7FFFFFFF00
3FFF4FFE00
2FFF0BFE00
2FFF0BFE00
1FFF07FE00
0FFE07FE00
0BFE07FE00
0BFE07FD00
0BFF07FD00
07FF4FFD00
02FF8FFC00
01FFEFF800
00BFFFF400
002FFFF800
000BFFFE40
0003FFFF00
000051FD00
0000007400
0000002000
ENDCHAR
STARTCHAR R
ENCODING 82
SWIDTH 599 0
DWIDTH 19 0
BBX 18 26 1 -2
BITMAP
001AA54000
6FFFFFE400
BFFFFFFE00
3FFFFFFF80
0FFFFFFFD0
0BFFFFFFD0
03FFFFFFD0
03FFFFFFD0
02FFFFFFD0
02FFFFFFD0
02FF82FFD0
02FF80FFC0
02FF81FFC0
01FFC1FF80
00FFEBFF40
00FFFFFF00
00BFFFFF00
007FFFF800
007FDBF800
007FC7FD00
007FC3FD00
003FC7FD00
003FC3FC00
003FD3FE00
002A51FE00
0002109500
ENDCHAR
STARTCHAR S
ENCODING 83
SWIDTH 504 0
DWIDTH 16 0
BBX 16 27 0 -3
BITMAP
0001A400
006FFF40
02FFFFE0
0BFFFFF8
0FFFFFFE
1FFFFFFD
3FFFFFFD
3FFFFFFD
3FFFFFFD
7FFFFFFC
7FFEBFFC
3FFD2FFC
3FFD1AAC
2FFF9000
1FFFFE00
0BFFFF80
01FFFFE0
001BFFF0
00003FF4
0BFD2FF0
0FFD2FF0
0BFFFFE0
07FFFFC0
02FFFF40
00BAA600
00041100
00001000
ENDCHAR
STARTCHAR T
ENCODING 84
SWIDTH 622 0
DWIDTH 20 0
BBX 18 28 1 -4
BITMAP
0055554000
AFFFFFFE50
7FFFFFFFE0
2FFFFFFFC0
1FFFFFFF40
0FFFFFFF40
0FFFFFFF40
0BFFFFFF40
0BFFFFFF40
0BFFFFFF00
0BFFFFFF00
0BEBFF6A00
0003FF0100
0003FF0000
0003FF0000
0003FF0000
0003FE0000
0003FF0000
0003FE0000
0003FE0000
0003FE0000
0002FE0000
0002FE0000
0002FE0000
0002FE0000
0002FA0000
0002A50000
0001000000
ENDCHAR
STARTCHAR U
ENCODING 85
SWIDTH 637 0
DWIDTH 20 0
BBX 20 26 0 -2
BITMAP
016A805000
6FFFC0FFE4
0FFFC0FFFD
07FFC1FFF4
07FF81FFF0
07FF81FFE0
03FFC1FFD0
03FFD1FFD0
02FFD1FFC0
02FFD1FF80
02FFC1FF80
01FFC1FF40
01FF82FF00
01FF82FF00
01FF82FF00
01FFC2FF00
00FFC3FE00
00FFC3FE00
00FFD3FE00
00BFD7FD00
007FFFFD00
007FFFFC00
003FDFF400
000F899000
0005048000
0000014000
ENDCHAR
STARTCHAR V
ENCODING 86
SWIDTH 570 0
DWIDTH 18 0
BBX 18 27 0 -3
BITMAP
056A029550
7FFE03FFE0
0FFE07FF80
07FE07FF40
03FE0BFF00
02FE0BFE00
02FF0FFD00
02FF0FFC00
02FF1FF800
02FF5FF400
01FF6FF000
01FF2FF000
01FF3FE000
01FF7FE000
00FFBFD000
00FFBFD000
00BFBFC000
00BFFF8000
00BFFF4000
007FFF4000
003FFF0000
003FFE0000
002FFD0000
002FFC0000
001FFC0000
000BEC0000
0000140000
ENDCHAR
STARTCHAR W
ENCODING 87
SWIDTH 777 0
DWIDTH 25 0
BBX 25 25 0 -1
BITMAP
000002F0254000
01AF83F42FF900
6FFF83F43FFF80
1FFFC7F87FF800
02FFCBFCBFF000
01FFCBFCFFD000
00BFDFFEFF8000
007FDFFFFF0000
003FEFFFFE0000
003FFFFFFD0000
002FFFFFFC0000
000FFFFFF80000
000BFFFFF80000
0007FFFFF80000
0003FFFFF40000
0002FFFFF00000
0001FFBFF00000
0001FF7FE00000
0000FF7FE00000
0000BF3FD00000
0000BE3F800000
00007E2F400000
00003E2F400000
0000162B000000
00000100000000
ENDCHAR
STARTCHAR X
ENCODING 88
SWIDTH 587 0
DWIDTH 19 0
BBX 19 26 0 -2
BITMAP
0055054000
6BFF83FE50
1FFFC3FFF8
02FFC7FF80
00BFDFFD00
007FFFF400
002FFFF000
001FFFE000
000FFFD000
000BFFC000
000BFFC000
0007FFC000
000BFF8000
0007FF4000
0003FF0000
0002FF0000
0003FF0000
0007FF0000
0007FF4000
0007FF4000
000BEF8000
000FDFC000
000FCFD000
001FCFE000
002F8AA000
0014001000
ENDCHAR
STARTCHAR Y
ENCODING 89
SWIDTH 688 0
DWIDTH 22 0
BBX 23 25 0 -1
BITMAP
015A80090000
6FFFE01FE900
0BFFF02FFFE4
00BFF82FFF80
002FFC7FFD00
000FFEBFF400
0007FFFFE000
0001FFFF8000
0000FFFF4000
0000BFFF0000
00003FFF0000
00003FFF0000
00001FFE0000
00000FFE0000
00000BFE0000
000007FE0000
000007FD0000
000003FD0000
000003FD0000
000002FD0000
000002FD0000
000002FD0000
000002FC0000
000002FC0000
000001E40000
ENDCHAR
STARTCHAR Z
ENCODING 90
SWIDTH 695 0
DWIDTH 22 0
BBX 21 25 1 -1
BITMAP
016AAA940000
6FFFFFFFE400
BFFFFFFFFF80
7FFFFFFFFF00
2FFFFFFFFD00
1FFFFFFFF800
0BFFFFFFF400
07FFFFFFF000
03FFFFFFD000
03FFFFFFC000
03FFFFFF4000
02E43FFE0000
0140BFF40000
0001FFD00000
0002FF800000
0003FF000000
0007FD000000
0007F8000000
000FF0000000
001FE5400000
003FFFF40000
007FFFF00000
00BFFFE00000
007AFFD00000
001446800000
ENDCHAR
STARTCHAR bracketleft
ENCODING 91
SWIDTH 410 0
DWIDTH 13 0
BBX 12 29 1 -1
BITMAP
165550
2FFFF8
2FFFFC
2FFFFC
2FFFFC
2FFFFC
2FFFFC
2FF000
3FF000
3FF000
3FF000
3FF000
3FF000
3FF000
3FF000
3FF000
7FF000
7FF000
7FF000
3FF000
3FF000
3FF000
3FF000
2FF000
2FF999
1FFFFD
1FFFFC
0FF7F4
091250
ENDCHAR
STARTCHAR backslash
ENCODING 92
SWIDTH 292 0
DWIDTH 9 0
BBX 10 28 0 -3
BITMAP
B40000
BC0000
7D0000
7E0000
3F0000
1F0000
2F0000
1F4000
0F8000
0BC000
07D000
03F000
02F400
01F800
00F800
00BC00
00BD00
007D00
003E00
002E00
001E00
000F00
000B40
000780
0003C0
0003D0
0002E0
000150
ENDCHAR
STARTCHAR bracketright
ENCODING 93
SWIDTH 407 0
DWIDTH 13 0
BBX 12 29 0 -1
BITMAP
056A54
2FFFF8
3FFFF8
3FFFF8
3FFFF8
3FFFF8
3FFFF8
000FF8
000FF8
000FF8
000BF8
000BFC
000BFC
000BFC
000BFC
000BFC
000BFD
000BFD
000BFD
000BFC
000BFC
000BFC
000BFC
000BFC
669FFC
7FFFFC
7FFFFC
7FFFFC
015468
ENDCHAR
STARTCHAR asciicircum
ENCODING 94
SWIDTH 523 0
DWIDTH 17 0
BBX 15 12 1 22
BITMAP
00BAF400
01FFF800
02FFFD00
03FFFF00
0BFFFF40
0FF9FFC0
1FF4BFD0
3FE03FF0
7FC01FF4
BF800BF0
1E0003C0
04000000
ENDCHAR
STARTCHAR underscore
ENCODING 95
SWIDTH 452 0
DWIDTH 14 0
BBX 12 5 1 -1
BITMAP
7FEFFE
7FFFFE
7FFFFE
7FFFFE
6AAEAA
ENDCHAR
STARTCHAR grave
ENCODING 96
SWIDTH 444 0
DWIDTH 14 0
BBX 11 8 1 24
BITMAP
028000
03F400
07FD00
1FFF40
7FFFE0
06BFFC
0006FC
000014
ENDCHAR
STARTCHAR a
ENCODING 97
SWIDTH 479 0
DWIDTH 15 0
BBX 16 27 0 -3
BITMAP
15AAAABD
7FFFFFF4
1FFFFFE0
07FFFFD0
02FFFFC0
02FFFFC0
02FFFFC0
01FFFFC0
01FFFFC0
02FFFFC0
02FFFF80
01FFFF80
01FFFF80
01FFBF80
02FEBFC0
02FD7F80
03FD7FC0
03FC7FC0
03FC3FC0
02FFFF80
03FFFF80
03FFFF80
02FDBF40
02FD3F40
03F83F40
02F42F40
01A00000
ENDCHAR
STARTCHAR b
ENCODING 98
SWIDTH 610 0
DWIDTH 20 0
BBX 18 27 1 -3
BITMAP
0005555400
1AFFFFFF00
BFFFFFFF80
3FFFFFFFC0
1FFFFFFFD0
0BFFFFFFE0
07FFFFFFE0
02FFFFFFE0
03FFFFFFE0
02FFFFFFE0
02FFEBFFD0
01FF81FFC0
01FFC1FF80
00FFC1FF40
00FFE5FE00
00FFFFFD00
00FFFFF400
00FFFFF800
00BFEBFE00
00BFC2FE00
007FC2FE00
003FC2FD00
007FE6FD00
003FFFFC00
003EFFF800
002097F000
0000004000
ENDCHAR
STARTCHAR c
ENCODING 99
SWIDTH 534 0
DWIDTH 17 0
BBX 16 26 1 -2
BITMAP
001BE900
01FFFF80
0BFFFFE0
3FFFFFF4
7FFFFFFD
BFFFFFFD
FFFFFFFC
FFFFFFFD
FFFFFFFD
FFFFFFFD
BFFFBFFC
BFFD2FFC
7FF81FFC
3FFC1FF8
2FFC16A8
3FF80000
2FF80000
1FF80000
1FFC2F80
0FFC3FD0
0BFD7FC0
07FEBFC0
03FFFF80
02FFFF00
00AABC00
00046400
ENDCHAR
STARTCHAR d
ENCODING 100
SWIDTH 573 0
DWIDTH 18 0
BBX 17 28 1 -4
BITMAP
0016940000
AFFFFFD000
7FFFFFF400
7FFFFFFD00
3FFFFFFF40
2FFFFFFF80
1FFFFFFFC0
0FFFFFFFC0
0BFFFFFFC0
07FFFFFFC0
03FFFFFF80
03FFEBFF80
02FF82FF40
01FF82FF00
01FF81FE00
00FF81FD00
00FF41FC00
00BF82FC00
00BF82F800
00BF43F400
007F83F400
007FDBF000
007FFFE000
007FFFE000
007FFFD000
00747F8000
00302A0000
0010000000
ENDCHAR
STARTCHAR e
ENCODING 101
SWIDTH 632 0
DWIDTH 20 0
BBX 18 26 1 -2
BITMAP
0015655000
6FFFFFFFE0
FFFFFFFFE0
7FFFFFFFC0
2FFFFFFF80
0FFFFFFF00
0FFFFFFF00
0BFFFFFE00
0BFFFFFE00
07FFFFFD00
07FFFFFD00
03FF85AC00
03FF800000
02FF800000
02FFEA9000
01FFFFD000
01FFFFD000
01FFFFD000
00FFEAD000
00FF800000
00BF940000
00BFEFF000
007FFFE000
007FFFE000
0034FEA000
0010005000
ENDCHAR
STARTCHAR f
ENCODING 102
SWIDTH 559 0
DWIDTH 18 0
BBX 17 27 0 -3
BITMAP
0115454000
7FFFFFFE40
1FFFFFFF00
07FFFFFE00
02FFFFFD00
01FFFFFC00
00FFFFFC00
00FFFFF800
00FFFFF800
00FFFFF800
00FFFFF800
00BFD5B800
00BFD00400
00BFEA9000
00BFFFD000
00BFFFD000
007FFFD000
007FE6A000
003FD00000
007FD00000
007FD00000
00BFD00000
00BFE00000
00BFE00000
00A7A00000
0042100000
0001100000
ENDCHAR
STARTCHAR g
ENCODING 103
SWIDTH 546 0
DWIDTH 18 0
BBX 16 27 1 -3
BITMAP
00555000
07FFFE40
1FFFFFE0
7FFFFFF4
BFFFFFFC
FFFFFFFD
FFFFFFFE
FFFFFFFF
FFFFFFFF
BFFFFFFE
BFFFFFFE
7FF8BFFD
7FF43FFC
3FF42FFC
3FF01AFC
2FF44004
1FF4BE50
0FF8BFFC
0BFCBFF8
0BFCAFF8
0BFD0BF8
07FE1FF4
03FFFFF4
02FFFFF4
01FFFFF0
007AFAD0
00111000
ENDCHAR
STARTCHAR h
ENCODING 104
SWIDTH 730 0
DWIDTH 23 0
BBX 22 26 1 -2
BITMAP
001AA0AA9900
6AFFD0BFFFD0
3FFF80BFFF80
1FFFC03FFF40
0FFF803FFE00
0FFF80BFFD00
0FFF80BFFC00
0BFF80BFF800
0BFF80BFF800
07FF80BFF400
03FF80BFF400
03FF80BFF000
02FF80BFD000
02FFFFFFD000
01FFFFFFC000
01FFFFFFC000
01FFFFFFC000
00FF81FFC000
00FF82FF8000
00FFC2FF4000
00FFC2FF4000
00BFC2FF0000
00BFC2FF0000
00BF82FF0000
00A001FE0000
000000460000
ENDCHAR
STARTCHAR i
ENCODING 105
SWIDTH 412 0
DWIDTH 13 0
BBX 12 25 0 -1
BITMAP
05A694
7FFFFF
1FFFFD
07FFFC
02FFF8
01FFF4
00FFF4
00FFF0
01FFF0
01FFE0
01FFE0
01FFD0
00FFD0
00FFD0
00FFE0
00BFE0
00BFD0
007FD0
007FC0
003FC0
003FC0
003FC0
003FC0
003B80
001280
ENDCHAR
STARTCHAR j
ENCODING 106
SWIDTH 458 0
DWIDTH 15 0
BBX 15 25 -1 -1
BITMAP
001A9400
002FFFE4
001FFFF4
000FFFE0
000BFFE0
0007FFD0
0003FFC0
0003FF80
0003FFC0
0003FFC0
0003FF80
0003FF80
0003FF80
0003FF80
0002FF40
0042FF40
1AC2FF40
BFC2FF40
7FD2FF00
3FE2FF00
2FFBFE00
2FFFFD00
0FFFFC00
06FFFC00
0016D800
ENDCHAR
STARTCHAR k
ENCODING 107
SWIDTH 636 0
DWIDTH 20 0
BBX 20 25 0 -1
BITMAP
0015205A90
5BFFF0FFFD
2FFFE1FFE0
07FFE1FF80
03FFE2FF00
02FFE3FC00
01FFE3F800
00BFF3F800
007FF7F400
003FF7F400
007FFBE000
003FFBD000
003FFFC000
003FFF8000
003FFF8000
002FFFC000
001FFFD000
001FFFE000
001FFBF000
000FF7F400
000BE2FC00
000FE1FD00
000BE0BD00
000BE0BF00
0006607600
ENDCHAR
STARTCHAR l
ENCODING 108
SWIDTH 438 0
DWIDTH 14 0
BBX 14 26 1 -2
BITMAP
05AABE00
BFFFF800
2FFFE000
1FFFC000
0FFF8000
0FFFC000
0BFF8000
0BFF8000
0BFF4000
0BFF8000
07FF8000
07FF8000
02FF8000
02FF4000
02FF4000
02FF4000
01FF4000
01FF4000
01FF4000
00FFE550
00FFFFE0
00FFFFD0
00BFFFC0
00BF7FC0
00A11F80
00600640
ENDCHAR
STARTCHAR m
ENCODING 109
SWIDTH 770 0
DWIDTH 25 0
BBX 23 26 1 -2
BITMAP
0001A07AE900
05BFF07FFFE4
BFFFF0BFFFD0
7FFFF4BFFF40
1FFFF4FFFF00
0FFFF9FFFE00
0FFFFAFFFD00
0FFFFFFFFD00
1FFFFFFFFC00
0BFFFFFFFC00
0BFFFFFFF800
07FFFFFFF800
07FFFFFFF400
07FFFFFFF400
03FFFFFFF000
03FFBFAFF000
03FF7FBFE000
02FF7F7FE000
02FF3F7FD000
01FF7E7FC000
01FF7E7F8000
01FF2DBF4000
00FF2CBF0000
00D7189B0000
008000450000
008000000000
ENDCHAR
STARTCHAR n
ENCODING 110
SWIDTH 664 0
DWIDTH 21 0
BBX 20 27 1 -3
BITMAP
55AA815555
FFFFC2FFFD
7FFFD1FFF8
3FFFD0FFF4
1FFFE0FFE0
1FFFF0FFD0
1FFFF5FFD0
1FFFF9FFC0
1FFFFEFF80
0FFFFFFF80
0FFFFFFF80
0FFFFFFF40
0BFFFFFF40
0BFFFFFF00
0BFFFFFF00
07FFFFFE00
03FEFFFE00
03FDFFFD00
03FDBFFD00
02FD7FFC00
02FD3FF800
02FD3FF800
01FD2FF400
01FD1FF000
01FD1FE000
00A11AA000
0000049000
ENDCHAR
STARTCHAR o
ENCODING 111
SWIDTH 545 0
DWIDTH 17 0
BBX 16 27 1 -3
BITMAP
001A5400
02FFFF40
0BFFFFE0
2FFFFFF4
7FFFFFFD
FFFFFFFE
FFFFFFFE
FFFFFFFE
FFFFFFFE
BFFFFFFE
BFFEFFFE
7FF87FFE
7FF43FFE
7FF03FFD
3FF03FFD
3FF02FFC
2FF03FF8
2FF03FF4
1FF47FF0
0FF87FE0
0BFCBFD0
0BFFFFD0
07FFFF80
027FFF40
0018BF00
0000A200
00000100
ENDCHAR
STARTCHAR p
ENCODING 112
SWIDTH 557 0
DWIDTH 18 0
BBX 16 26 1 -2
BITMAP
05555540
FFFFFFE4
7FFFFFFC
1FFFFFFE
0BFFFFFF
0BFFFFFF
07FFFFFF
07FFFFFE
07FFFFFE
07FFFFFE
07FF9BFD
03FF83FD
03FF43FC
03FF43FC
02FF43F8
02FFABF8
01FFFFF4
01FFFFF0
00FFEFD0
00FF8040
00FF8000
00FF8000
00FF8000
00BF8000
00BF8000
00110000
ENDCHAR
STARTCHAR q
ENCODING 113
SWIDTH 562 0
DWIDTH 18 0
BBX 18 28 0 -4
BITMAP
0001A94000
002FFFE000
02FFFFF900
1FFFFFFF00
0FFFFFFF80
1FFFFFFFC0
3FFFFFFFC0
3FFFFFFFC0
7FFFFFFFC0
3FFFEBFFD0
3FFF82FFC0
2FFF41FFC0
1FFF42FFC0
1FFF41FFC0
0FFF00FFC0
0BFF00FF80
0BFF40FF80
07FF81FF80
07FFC7FF80
02FFDBFF40
01FFFFFE00
007FFFFE00
001FFFFF40
0007FFFFD0
0001FFFFC0
0000003F00
0000000E00
0000000800
ENDCHAR
STARTCHAR r
ENCODING 114
SWIDTH 616 0
DWIDTH 20 0
BBX 18 27 1 -3
BITMAP
001A954000
ABFFFFF800
BFFFFFFF80
2FFFFFFFE0
0FFFFFFFF0
07FFFFFFF0
03FFFFFFF0
03FFFFFFF0
02FFFFFFE0
02FFFFFFD0
02FFD6FFD0
01FFC0FFC0
01FFC0FFC0
01FFC1FF80
01FFEAFF80
00FFFFFF40
00FFFFFE00
00BFFFFD00
00FFFFF400
00BFCBF400
00BF8BF800
00BFCBF800
00BFC7F800
00BFC7F800
00BE87F800
0054017800
0000000400
ENDCHAR
STARTCHAR s
ENCODING 115
SWIDTH 481 0
DWIDTH 15 0
BBX 14 26 1 -2
BITMAP
00169000
02FFFD00
0BFFFF40
2FFFFFD0
3FFFFFE0
BFFFFFE0
FFFFFFD0
FFFFFFD0
FFFFFFD0
FFFFFFD0
FFFBFFC0
FFF1FFC0
FFF0FFC0
BFF90180
7FFFE000
3FFFF800
0FFFFD00
02BFFE00
0016FF00
0561FF00
2FF1FE00
2FF6FD00
0FFFFC00
0BFFF400
03FFF000
01941000
ENDCHAR
STARTCHAR t
ENCODING 116
SWIDTH 683 0
DWIDTH 22 0
BBX 20 28 1 -4
BITMAP
006AAAA940
6FFFFFFFF9
BFFFFFFFFD
3FFFFFFFF8
2FFFFFFFF4
1FFFFFFFE0
0FFFFFFFE0
0BFFFFFFE0
07FFFFFFE0
07FFFFFFE0
03FFFFFFD0
03EAFFD690
0101FFD000
0000FFD000
0000FFD000
0000FFD000
0000FFD000
0000FFD000
0000BFD000
0000BFD000
0000BFD000
00007FD000
00007FD000
00007FC000
00007FC000
00007FC000
00002BC000
0000014000
ENDCHAR
STARTCHAR u
ENCODING 117
SWIDTH 708 0
DWIDTH 23 0
BBX 22 24 1 0
BITMAP
005A80000000
AFFFD07FA400
3FFFC07FFF90
1FFFC0BFFF80
1FFFC0BFFE00
0FFFC0BFFE00
0BFFD07FFD00
07FFD07FF800
07FFE0BFF400
03FFE0BFF400
03FFE0BFF000
02FFE0BFE000
02FFD0BFE000
02FFD0FFE000
01FFD0FFD000
01FFD0FFD000
01FFE0FFD000
00FFE0FFC000
00BFE1FF8000
007FF2FF8000
003FFFFF4000
003FFFFF4000
002FEBFE0000
000292A90000
ENDCHAR
STARTCHAR v
ENCODING 118
SWIDTH 644 0
DWIDTH 21 0
BBX 19 26 1 -2
BITMAP
0556019540
7FFE01FFF8
2FFF02FFE0
0FFF03FFC0
0BFF07FF80
07FF47FF40
03FF87FF00
02FF87FE00
02FF87FD00
01FF8BFD00
00FFCBFC00
00FFCBFC00
00BFDBF800
007FDBF800
007FDFF400
003FDFF000
002FEFE000
001FFFE000
000FFFD000
000BFFD000
0007FFC000
0003FF8000
0002FF8000
0000FF4000
0000FF0000
0000E80000
ENDCHAR
STARTCHAR w
ENCODING 119
SWIDTH 704 0
DWIDTH 23 0
BBX 23 24 0 0
BITMAP
000006410000
1AFE0BC1FA40
7FFF0FC1FFE4
0BFF1FD2FF80
02FF5FE2FF40
01FF6FF3FF00
00BFAFF7FD00
00BFEFFFFC00
007FEFFFF800
007FFFFFF400
003FFFFFF000
001FFFFFE000
000FFFFFE000
000BFFFFE000
0007FFFFD000
0007FFFFD000
0003FFBFD000
0002FF7FD000
0001FE7FD000
0000FE7FC000
0000FE3F8000
0000BD3F8000
00007D3F8000
0000142B4000
ENDCHAR
STARTCHAR x
ENCODING 120
SWIDTH 599 0
DWIDTH 19 0
BBX 19 26 0 -2
BITMAP
006A025000
6FFFC3FF90
0BFFC3FFF8
01FFD7FF80
00BFDBFD00
007FFFF400
002FFFF000
000FFFE000
000BFFD000
0007FFD000
0007FFC000
0007FFC000
0007FF8000
0003FF4000
0003FF4000
0001FF4000
0003FF0000
0003FF4000
0007FF4000
0007FF8000
0007EFC000
000BDFD000
000FCBE000
001FCBE000
002F85A000
0014000400
ENDCHAR
STARTCHAR y
ENCODING 121
SWIDTH 604 0
DWIDTH 19 0
BBX 18 26 1 -2
BITMAP
0554020000
BFFD07E900
2FFE0BFFD0
07FF0FFF00
00FF5FFC00
00BFAFF400
007FFFE000
001FFFC000
001FFF8000
000FFF4000
000FFF4000
000BFF4000
0007FF4000
0007FF0000
0003FF0000
0002FF0000
0002FF0000
0002FE0000
0002FE0000
0002FE0000
0002FE0000
0002FE0000
0002FD0000
0002FD0000
0001FD0000
0001800000
ENDCHAR
STARTCHAR z
ENCODING 122
SWIDTH 622 0
DWIDTH 20 0
BBX 18 26 1 -2
BITMAP
01AAAA9400
AFFFFFFF90
BFFFFFFFE0
3FFFFFFFD0
2FFFFFFF80
0FFFFFFF00
0BFFFFFE00
07FFFFFE00
03FFFFFE00
03FFFFFD00
02FFFFF800
02E4BFF000
0180FFC000
0001FF4000
0002FE0000
0003FD0000
0007F80000
0007F40000
000BF00000
000FE00000
001FFFE000
002FFFE000
003FFFD000
003FFFD000
0028AAD000
0000008000
ENDCHAR
STARTCHAR braceleft
ENCODING 123
SWIDTH 372 0
DWIDTH 12 0
BBX 11 32 1 -4
BITMAP
000010
0001B4
001FF4
007FF4
01FFF0
02FFF0
07FFE0
0BFFE0
1FFFE0
3FFFD0
3FFFD0
7FFF90
7FFC00
7FF400
BFF000
BFF000
BFF000
BFF000
BFE000
BFE000
BFF000
BFF000
7FF000
3FF800
2FFC00
1FFE00
0BFF80
07FFC0
02FFD0
00FFD0
006FD0
000640
ENDCHAR
STARTCHAR bar
ENCODING 124
SWIDTH 208 0
DWIDTH 7 0
BBX 4 29 1 -3
BITMAP
19
2D
3E
3E
3E
7D
3E
2E
2E
3D
3D
3D
3D
3D
3D
3D
3D
3E
3D
3D
3D
2D
2D
2D
3D
3D
3D
3D
39
ENDCHAR
STARTCHAR braceright
ENCODING 125
SWIDTH 338 0
DWIDTH 11 0
BBX 10 31 0 -4
BITMAP
240000
3FE000
3FF800
3FFE00
2FFF80
2FFFC0
2FFFD0
2FFFD0
2FFFD0
1FFFD0
1FFFD0
16FFD0
00FFD0
00BFC0
007FC0
007FC0
007FC0
007FC0
007F80
007F80
007F80
00BF40
00BF40
00FF00
01FF00
01FE00
16FD00
2FF400
7FE000
7FC000
7F4000
ENDCHAR
STARTCHAR asciitilde
ENCODING 126
SWIDTH 535 0
DWIDTH 17 0
BBX 15 7 1 18
BITMAP
05001E00
1F40BFC0
BFD7FFF0
7FFFFFF8
2FFFFFF4
0FFF9FE0
02F80240
ENDCHAR
STARTCHAR exclamdown
ENCODING 161
SWIDTH 347 0
DWIDTH 11 0
BBX 9 39 1 1
BITMAP
150000
2FFB80
2FFF80
2FFFC0
2FFFC0
2FFFC0
2FFF80
3FFF80
7FFF80
BFFFC0
015940
000000
000000
001400
06B400
07F800
07FC00
07FC00
07FC00
07FC00
07F800
0BFC00
0BFD00
0BFD00
0FFD00
1FFC00
1FFD00
2FFE00
3FFE00
3FFF00
3FFF00
3FFF00
2FFF40
3FFF00
BFFF40
BFFFC0
FFFFC0
BFFF80
065400
ENDCHAR
STARTCHAR cent
ENCODING 162
SWIDTH 552 0
DWIDTH 18 0
BBX 16 45 1 -12
BITMAP
00018000
00028000
00028000
00038000
00038000
00038000
00038000
00038000
00038000
0017E900
01FFFF80
07FFFFE0
2FFFFFF8
7FFFFFFD
BFFFFFFD
FFFFFFFD
FFFFFFFD
FFFFFFFD
BFFFFFFD
BFFFBFFD
7FFD2FFC
3FFC1FFC
3FFC0FFC
2FFC0568
2FF80000
2FFC0000
1FFC0400
0FFC1F80
0BFD2FE0
0BFD3FD0
07FFBFD0
02FFFFC0
02FFFF40
00ABFC00
0006A400
00028000
00028000
00028000
00028000
00028000
00028000
00028000
00028000
00028000
00014000
ENDCHAR
STARTCHAR sterling
ENCODING 163
SWIDTH 589 0
DWIDTH 19 0
BBX 17 27 1 -3
BITMAP
0015540000
02FFFF4000
0BFFFFE000
3FFFFFFC00
7FFFFFFE00
7FFFFFFF40
BFFFFFFF80
BFFFFFFF80
7FFFFFFF80
7FFFFFFF80
7FFFFFFF40
3FFC7FFF00
3FF81FFE00
2FF81FFD00
1FF80AFD00
7FFE800400
BFFFC00000
5BFE800000
03FE000000
07FFA56800
07FFFFF400
0BFFFFF000
0BFFFFE000
0BFDFFD000
0928EFC000
0014434000
0000010000
ENDCHAR
STARTCHAR yen
ENCODING 165
SWIDTH 692 0
DWIDTH 22 0
BBX 23 26 -1 2
BITMAP
504540050000
2FFFE00FFA94
07FFF00FFFF4
00BFF81FFFC0
002FFC3FFF40
000FFE7FFD00
0007FFFFF400
0001FFFFE000
0000FFFFC000
0000BFFFC000
00007FFFE950
03FFFFFFFFE0
03FFFFFFEBD0
00555FFF4000
00000BFF4000
01AAABFFAAA0
03FFFFFFFFF0
01AAAFFFAAA0
000007FF0000
000007FF0000
000007FF0000
000003FF0000
000003FF0000
000002FF0000
000001FB0000
000000410000
ENDCHAR
STARTCHAR brokenbar
ENCODING 166
SWIDTH 201 0
DWIDTH 6 0
BBX 4 29 1 -3
BITMAP
24
3D
3D
7D
3E
3E
7D
7C
3D
3D
2D
00
00
00
00
00
00
00
3D
3D
3D
2C
3C
3D
3D
2D
2D
3D
29
ENDCHAR
STARTCHAR section
ENCODING 167
SWIDTH 477 0
DWIDTH 15 0
BBX 15 30 0 -6
BITMAP
000AF900
007FFF80
01FFFFF0
02FFFFF8
07FFFFF4
0BFFFFF0
0BFFFFE0
07FFFFE0
07FFFFD0
07FE3FC0
03FE1F80
03FF5000
02FFFD00
07FFFF40
0FFFFF80
2FF5BFC0
3FF03FC0
7FF03F80
3FF07F40
3FF9BE00
2FFFFD00
1FFFFC00
07FFF800
002BFD00
0051FD00
1FF1FC00
0FFBF800
07FFF400
03FFF000
00E99000
ENDCHAR
STARTCHAR dieresis
ENCODING 168
SWIDTH 633 0
DWIDTH 20 0
BBX 16 9 2 25
BITMAP
00000054
BFB42FFE
BFF42FFE
BFF42FFE
BFF42FFE
BFF42FFF
BFF42FFE
BFF42FFE
15500500
ENDCHAR
STARTCHAR copyright
ENCODING 169
SWIDTH 783 0
DWIDTH 25 0
BBX 23 28 1 -3
BITMAP
00001A900000
0006FFFE0000
002FEAAFE000
00FD0000B800
03F42FF41E00
0BD0BFFD0740
1F42FFFF41C0
2F07FFFF80E0
7D0BFFFFC070
7C0BFFFFC074
B80BFFFFC038
B40BFFFFC038
B40BFEBF8038
B407F87F803C
B807FC3F8038
B807F8000038
B803F8000038
B803F8100074
7C02F87E00B0
3D02FC7F00E0
2E01FEFE02D0
0F40FFFD07C0
07C0BFF81F40
02F019607E00
00BE0006F800
002FFABFE000
0006FFFE4000
000015500000
ENDCHAR
STARTCHAR guillemotleft
ENCODING 171
SWIDTH 759 0
DWIDTH 24 0
BBX 22 18 1 2
BITMAP
001555015550
003FFD07FFE0
00BFF40FFF80
01FFE02FFF00
03FFD07FFD00
0FFF80FFF800
2FFF02FFF400
7FFD03FFE000
BFF807FFC000
BFF407FF8000
7FF803FFD000
2FFD01FFE000
0BFE00BFF000
03FF802FF800
01FFE00FFE00
007FF407FF80
002FFD01FFE0
0006AA009AA0
ENDCHAR
STARTCHAR uni00AD
ENCODING 173
SWIDTH 446 0
DWIDTH 14 0
BBX 12 5 1 9
BITMAP
150000
7FFFFE
7FFFFD
7FFFFD
16A659
ENDCHAR
STARTCHAR registered
ENCODING 174
SWIDTH 780 0
DWIDTH 25 0
BBX 23 27 1 -2
BITMAP
000015400000
0006FFF90000
002FE406D000
01FE00007400
03F9AAA01D00
0BFFFFFD0740
1F5FFFFF42C0
2E0BFFFF80D0
7D07FFFF80B0
7C07FFFF8074
B803FFFF8078
F403FDBF8078
F403FC3F807C
B402FC3F407C
7002FEBF0078
7001FFFE0078
7400FFFD0034
3800BEBD0030
2C007F2F0030
2E007F6F8060
0F403F5F80D0
0BD03E5FC2C0
02F804058B40
00FE40007E00
002FF95BF800
000BFFFFD000
00006FF90000
ENDCHAR
STARTCHAR macron
ENCODING 175
SWIDTH 446 0
DWIDTH 14 0
BBX 12 5 1 9
BITMAP
150000
7FFFFE
7FFFFD
7FFFFD
16A659
ENDCHAR
STARTCHAR acute
ENCODING 180
SWIDTH 439 0
DWIDTH 14 0
BBX 11 8 2 24
BITMAP
000E00
007F00
01FF40
07FFD0
2FFFF4
FFFA40
FE4000
500000
ENDCHAR
STARTCHAR mu
ENCODING 181
SWIDTH 679 0
DWIDTH 22 0
BBX 22 25 0 -1
BITMAP
005A90000000
6FFFE03FA900
2FFFD03FFFE0
0FFFD07FFFD0
0BFFE07FFF40
0BFFD07FFF00
07FFE03FFE00
03FFF03FFD00
03FFF03FFC00
02FFF07FF800
02FFF07FF400
01FFF07FF400
01FFE07FF000
01FFE0BFF000
00FFE0BFF000
00FFE0BFE000
00FFE0BFE000
00BFE0FFD000
007FE1FFC000
003FF1FFC000
002FFFFF8000
002FFFFF4000
001FEBFF0000
000292690000
000000100000
ENDCHAR
STARTCHAR paragraph
ENCODING 182
SWIDTH 591 0
DWIDTH 19 0
BBX 18 26 1 -2
BITMAP
00555A5000
1FFFFFFFE0
7FFFFFFFD0
FFFFFFFF00
FFFFFFFD00
FFFFF47D00
FFFFF47D00
BFFFF4BD00
BFFFF4BC00
7FFFF4BC00
7FFFF4BC00
3FFFF4BC00
2FFFF0BC00
0FFFF0B800
07FFF0B800
0150B0B400
0000F0B400
0000F0B000
0000F0A000
0000B0A000
0000B0B000
0000F0A000
0000F0A000
0000F0A000
0000F0A000
0000105000
ENDCHAR
STARTCHAR periodcentered
ENCODING 183
SWIDTH 388 0
DWIDTH 12 0
BBX 10 10 1 7
BITMAP
6AFFD0
3FFFD0
3FFFD0
2FFFD0
2FFFD0
2FFFD0
1FFFD0
1FFFD0
1FFFD0
1A5140
ENDCHAR
STARTCHAR cedilla
ENCODING 184
SWIDTH 270 0
DWIDTH 9 0
BBX 7 11 1 -11
BITMAP
1F40
2F00
3E00
7C00
7FB4
7FF4
01F4
01F4
5AF0
7FF0
15A0
ENDCHAR
STARTCHAR guillemotright
ENCODING 187
SWIDTH 767 0
DWIDTH 25 0
BBX 23 18 1 2
BITMAP
AAA901500000
BFFF02FFC000
3FFF00FFE000
1FFF407FF800
07FFC01FFD00
02FFE00BFF40
00FFF403FF80
007FFD03FFE0
002FFD01FFF4
007FFC00BFF8
007FF801FFF4
00FFF403FFF0
02FFD00BFFD0
0BFF801FFF80
2FFF402FFE00
BFFE007FFC00
BFF801FFF400
555002FFE000
ENDCHAR
STARTCHAR Agrave
ENCODING 192
SWIDTH 494 0
DWIDTH 16 0
BBX 17 40 -2 -7
BITMAP
0280000000
03F4000000
07FD000000
1FFF400000
7FFFE00000
06FFFC0000
0006FC0000
0000140000
0000000000
0000000000
02FFFFFA40
00BFFFFE00
002FFFFC00
002FFFF800
002FFFF400
001FFFF400
001FFFF000
002FFFF000
002FFFF000
002FFFF000
001FFFF000
001FEFE000
002FDFE000
002FDBF000
002FCBE000
002FCBF000
001F8BE000
002FFFF000
003FFFE000
003FFFE000
002FFFE000
002FDFD000
001FCBC000
001F4BC000
001B0BC000
0019058000
0004018000
0000024000
0000040000
0000040000
ENDCHAR
STARTCHAR Aacute
ENCODING 193
SWIDTH 494 0
DWIDTH 16 0
BBX 18 40 1 -7
BITMAP
0000001C00
000000BE00
000002FE00
00000FFF80
00007FFFE0
0001FFF900
0002FA4000
0000400000
0000000000
0000000000
BFFFFE9000
2FFFFF8000
0BFFFF0000
0BFFFE0000
0BFFFD0000
07FFFD0000
07FFFC0000
0BFFFC0000
0BFFFC0000
0BFFFC0000
07FFFC0000
07FBF80000
0BF7F80000
0BF6FC0000
0BF2F80000
0BF2FC0000
07E2F80000
0BFFFC0000
0FFFF80000
0FFFF80000
0BFFF80000
0BF7F40000
07F2F00000
07D2F00000
06C2F00000
0641600000
0100600000
0000900000
0001000000
0001000000
ENDCHAR
STARTCHAR Acircumflex
ENCODING 194
SWIDTH 494 0
DWIDTH 16 0
BBX 14 44 1 -7
BITMAP
00515000
02FFF000
03FFF400
07FFFC00
0FFFFD00
1FFBFF00
2FE2FF40
7F80BFC0
BF002FD0
FC000FE0
B40007C0
10000000
00000000
00000000
BFFFFE90
2FFFFF80
0BFFFF00
0BFFFE00
0BFFFD00
07FFFD00
07FFFC00
0BFFFC00
0BFFFC00
0BFFFC00
07FFFC00
07FBF800
0BF7F800
0BF6FC00
0BF2F800
0BF2FC00
07E2F800
0BFFFC00
0FFFF800
0FFFF800
0BFFF800
0BF7F400
07F2F000
07D2F000
06C2F000
06416000
01006000
00009000
00010000
00010000
ENDCHAR
STARTCHAR Atilde
ENCODING 195
SWIDTH 494 0
DWIDTH 16 0
BBX 15 40 0 -7
BITMAP
00000500
0B402FD0
2FD2FFF0
7FFFFFF8
2FFFFFFC
0BFFFFF4
02FE42D0
00500000
00000000
00000000
2FFFFFA4
0BFFFFE0
02FFFFC0
02FFFF80
02FFFF40
01FFFF40
01FFFF00
02FFFF00
02FFFF00
02FFFF00
01FFFF00
01FEFE00
02FDFE00
02FDBF00
02FCBE00
02FCBF00
01F8BE00
02FFFF00
03FFFE00
03FFFE00
02FFFE00
02FDFD00
01FCBC00
01F4BC00
01B0BC00
01905800
00401800
00002400
00004000
00004000
ENDCHAR
STARTCHAR Adieresis
ENCODING 196
SWIDTH 494 0
DWIDTH 16 0
BBX 16 41 0 -7
BITMAP
00000054
BFB42FFE
BFF42FFE
BFF42FFE
BFF42FFE
BFF42FFF
BFF42FFE
BFF42FFE
15500500
00000000
00000000
2FFFFFA4
0BFFFFE0
02FFFFC0
02FFFF80
02FFFF40
01FFFF40
01FFFF00
02FFFF00
02FFFF00
02FFFF00
01FFFF00
01FEFE00
02FDFE00
02FDBF00
02FCBE00
02FCBF00
01F8BE00
02FFFF00
03FFFE00
03FFFE00
02FFFE00
02FDFD00
01FCBC00
01F4BC00
01B0BC00
01905800
00401800
00002400
00004000
00004000
ENDCHAR
STARTCHAR Aring
ENCODING 197
SWIDTH 494 0
DWIDTH 16 0
BBX 14 41 1 -7
BITMAP
00054000
00BFE000
02FFF800
03E6FD00
03D03D00
03D03D00
02E07800
02FFF000
01BFE000
000A4000
00000000
BFFFFE90
2FFFFF80
0BFFFF00
0BFFFE00
0BFFFD00
07FFFD00
07FFFC00
0BFFFC00
0BFFFC00
0BFFFC00
07FFFC00
07FBF800
0BF7F800
0BF6FC00
0BF2F800
0BF2FC00
07E2F800
0BFFFC00
0FFFF800
0FFFF800
0BFFF800
0BF7F400
07F2F000
07D2F000
06C2F000
06416000
01006000
00009000
00010000
00010000
ENDCHAR
STARTCHAR AE
ENCODING 198
SWIDTH 733 0
DWIDTH 23 0
BBX 22 31 1 -7
BITMAP
000556955000
AFFFFFFFFF90
2FFFFFFFFFC0
0BFFFFFFFF40
0BFFFFFFFF00
0BFFFFFFFE00
0BFFFFFFFD00
0BFFFFFFFC00
0BFFFFFFF800
07FFFFFFF800
07FFFFABF800
07FFFF805400
07FBFF800000
0BF7FFEA4000
0BF6FFFFC000
0BF2FFFFC000
0BF2FFFF8000
0BE2FFEA8000
0BFFFF800000
0BFFFF800000
0FFFFFFF9000
0BFFFFFFD000
0BFBFFFFC000
07E2F1FAC000
07D2E1B08000
06C2E1908000
024151804000
020051814000
000081400000
000100000000
000100000000
ENDCHAR
STARTCHAR Ccedilla
ENCODING 199
SWIDTH 504 0
DWIDTH 16 0
BBX 15 38 1 -14
BITMAP
006AA400
02FFFE00
0BFFFF80
3FFFFFD0
7FFFFFF4
BFFFFFF4
FFFFFFF4
FFFFFFF4
FFFFFFF4
FFFFFFF4
BFFEFFF4
BFF8BFF0
BFF43FF0
7FF43FF0
7FF40410
3FF00000
3FF00000
2FF01400
2FF47F80
1FF47FC0
1FF8FF80
0BFFFF40
07FFFF00
07FFFD00
0076F400
00219000
00229000
00006E00
00003D00
00007C00
0000B800
0000FFA0
0000BFE0
000002E0
000002E0
00006BE0
0000FFE0
00005690
ENDCHAR
STARTCHAR Egrave
ENCODING 200
SWIDTH 570 0
DWIDTH 18 0
BBX 17 35 0 -2
BITMAP
0740000000
0FD0000000
0FF8000000
6FFE000000
BFFF900000
16FFF40000
001BF40000
0000500000
0000000000
0156A54000
2FFFFFFF80
1FFFFFFF40
0BFFFFFF00
07FFFFFF00
03FFFFFE00
03FFFFFD00
03FFFFFC00
03FFFFF800
03FFFFF400
02FFABF400
02FF406000
02FF400000
02FFAA4000
01FFFF8000
01FFFF4000
01FFFF4000
00FFEB4000
00FF400000
00BF400000
00BFFF8000
00BFFFC000
00BBFF8000
0092FA8000
0052E18000
0001414000
ENDCHAR
STARTCHAR Eacute
ENCODING 201
SWIDTH 570 0
DWIDTH 18 0
BBX 19 35 1 -2
BITMAP
0000000740
0000001FC0
000000BFC0
000002FFF4
00001BFFFC
00007FFE40
00007F9000
0000140000
0000000000
055A950000
BFFFFFFE00
7FFFFFFD00
2FFFFFFC00
1FFFFFFC00
0FFFFFF800
0FFFFFF400
0FFFFFF000
0FFFFFE000
0FFFFFD000
0BFEAFD000
0BFD018000
0BFD000000
0BFEA90000
07FFFE0000
07FFFD0000
07FFFD0000
03FFAD0000
03FD000000
02FD000000
02FFFE0000
02FFFF0000
02EFFE0000
024BEA0000
014B860000
0005050000
ENDCHAR
STARTCHAR Ecircumflex
ENCODING 202
SWIDTH 570 0
DWIDTH 18 0
BBX 16 39 1 -2
BITMAP
00145400
007FFC00
00BFFE00
01FFFF40
02FFFF80
03FEFFD0
0BFC7FE0
0FF41FF4
1FD00BF8
3F4002FC
2D0000B4
04000000
00000000
055A9500
BFFFFFFE
7FFFFFFD
2FFFFFFC
1FFFFFFC
0FFFFFF8
0FFFFFF4
0FFFFFF0
0FFFFFE0
0FFFFFD0
0BFEAFD0
0BFD0180
0BFD0000
0BFEA900
07FFFE00
07FFFD00
07FFFD00
03FFAD00
03FD0000
02FD0000
02FFFE00
02FFFF00
02EFFE00
024BEA00
014B8600
00050500
ENDCHAR
STARTCHAR Edieresis
ENCODING 203
SWIDTH 570 0
DWIDTH 18 0
BBX 17 36 1 -2
BITMAP
0000005400
7FB81FFF00
7FF81FFF00
7FF81FFF00
7FF81FFF00
7FF81FFF40
7FF81FFF00
7FF81FFF00
1554010000
0000000000
055A950000
BFFFFFFE00
7FFFFFFD00
2FFFFFFC00
1FFFFFFC00
0FFFFFF800
0FFFFFF400
0FFFFFF000
0FFFFFE000
0FFFFFD000
0BFEAFD000
0BFD018000
0BFD000000
0BFEA90000
07FFFE0000
07FFFD0000
07FFFD0000
03FFAD0000
03FD000000
02FD000000
02FFFE0000
02FFFF0000
02EFFE0000
024BEA0000
014B860000
0005050000
ENDCHAR
STARTCHAR Igrave
ENCODING 204
SWIDTH 401 0
DWIDTH 13 0
BBX 15 35 -3 -2
BITMAP
07400000
0BD00000
0FF80000
2FFE0000
BFFFD000
06FFF400
001AF400
00001000
00000000
006AAAA4
01FFFFF8
00BFFFF0
002FFFE0
000FFFD0
0007FFD0
0007FFD0
0007FFD0
0007FFD0
0007FFC0
0007FFC0
0007FF80
0007FF40
0007FF80
0003FF80
0003FF80
0003FF40
0002FF00
0002FF40
0002FF40
0001FF40
0001FF00
0000FF00
0000CF40
00008940
00000400
ENDCHAR
STARTCHAR Iacute
ENCODING 205
SWIDTH 401 0
DWIDTH 13 0
BBX 17 35 0 -2
BITMAP
0000007800
000001FC00
000007FD00
00002FFF40
0000BFFFC0
0003FFE500
0007F90000
0001400000
0000000000
1AAAA90000
7FFFFE0000
2FFFFC0000
0BFFF80000
03FFF40000
01FFF40000
01FFF40000
01FFF40000
01FFF40000
01FFF00000
01FFF00000
01FFE00000
01FFD00000
01FFE00000
00FFE00000
00FFE00000
00FFD00000
00BFC00000
00BFD00000
00BFD00000
007FD00000
007FC00000
003FC00000
0033D00000
0022500000
0001000000
ENDCHAR
STARTCHAR Icircumflex
ENCODING 206
SWIDTH 401 0
DWIDTH 13 0
BBX 15 39 -1 -2
BITMAP
00515000
01FFF400
02FFF800
03FFFD00
0BFFFE00
0FFFFF40
1FF1FF80
3FD07FD0
7F401FE0
BD000BF4
B80002D0
10000040
00000000
06AAAA40
1FFFFF80
0BFFFF00
02FFFE00
00FFFD00
007FFD00
007FFD00
007FFD00
007FFD00
007FFC00
007FFC00
007FF800
007FF400
007FF800
003FF800
003FF800
003FF400
002FF000
002FF400
002FF400
001FF400
001FF000
000FF000
000CF400
00089400
00004000
ENDCHAR
STARTCHAR Idieresis
ENCODING 207
SWIDTH 401 0
DWIDTH 13 0
BBX 17 36 -2 -2
BITMAP
0000005500
7FB81FFF00
7FFC1FFF00
7FFC1FFF00
7FFC1FFF00
7FFC1FFF40
7FF81FFF40
7FF81FFF00
1554010000
0000000000
01AAAA9000
07FFFFE000
02FFFFC000
00BFFF8000
003FFF4000
001FFF4000
001FFF4000
001FFF4000
001FFF4000
001FFF0000
001FFF0000
001FFE0000
001FFD0000
001FFE0000
000FFE0000
000FFE0000
000FFD0000
000BFC0000
000BFD0000
000BFD0000
0007FD0000
0007FC0000
0003FC0000
00033D0000
0002250000
0000100000
ENDCHAR
STARTCHAR Eth
ENCODING 208
SWIDTH 530 0
DWIDTH 17 0
BBX 17 29 1 -5
BITMAP
00015A4000
06BFFFD000
1FFFFFF400
1FFFFFFD00
0FFFFFFF00
07FFFFFF40
03FFFFFF40
03FFFFFF40
02FFFFFF80
02FFFFFF40
02FFFFFF40
01FFC2FF00
01FF81FF00
01FF81FE00
BFFFF9FD00
6AFFE5FC00
00FF81FC00
00BF82F800
00BF83F400
007FC3F400
007FEFF400
007FFFF000
007FFFE000
00797FC000
00703E4000
0020380000
0020280000
0000200000
0000100000
ENDCHAR
STARTCHAR Ntilde
ENCODING 209
SWIDTH 610 0
DWIDTH 20 0
BBX 18 38 1 -5
BITMAP
0000050000
07801BE000
1FE1BFF400
3FFFFFFD00
1FFFFFFE00
07FFFFF800
01FF41E000
0014000000
0000000000
0056194000
BFFF0FFF90
BFFF0BFF80
2FFF4BFF00
1FFF87FD00
0FFFC7FD00
0FFFD7FD00
0FFFE7FD00
0FFFFBFC00
0FFFFFFC00
0BFFFFFC00
0BFFFFF800
0BFFFFF800
07FFFFF400
07FFFFF400
03FFFFF400
02FEFFF000
02FDFFF000
01FDBFF000
01FD7FF000
01FD7FF000
01FD3FF000
01FD2FE000
00FE1FE000
00FE0FA000
00E60F9000
0081054000
0081040000
0082040000
ENDCHAR
STARTCHAR Ograve
ENCODING 210
SWIDTH 504 0
DWIDTH 16 0
BBX 18 36 -2 -3
BITMAP
0280000000
07F0000000
07FD000000
1FFF400000
7FFFE00000
06FFFC0000
0006FC0000
0000140000
0000000000
0000550000
000BFFE400
003FFFFD00
00BFFFFF80
02FFFFFFC0
03FFFFFFC0
03FFFFFFC0
03FFFFFFD0
03FFFFFFC0
02FFFFFFC0
02FFEBFFD0
02FFC3FFD0
01FF82FFD0
00FF82FFD0
00FF41FFC0
00FF81FFC0
00FF81FF80
00BF81FF40
007FC2FF00
007FC2FF00
003FE7FE00
003FFFFD00
002FFFFC00
000BFFF400
0001D7E400
0000835000
0000020000
ENDCHAR
STARTCHAR Oacute
ENCODING 211
SWIDTH 504 0
DWIDTH 16 0
BBX 18 36 1 -3
BITMAP
0000002C00
000000BE00
000002FE00
00000FFF80
00007FFFE0
0002FFF900
0002FA4000
0001400000
0000000000
0015400000
02FFF90000
0FFFFF4000
2FFFFFE000
BFFFFFF000
FFFFFFF000
FFFFFFF000
FFFFFFF400
FFFFFFF000
BFFFFFF000
BFFAFFF400
BFF0FFF400
7FE0BFF400
3FE0BFF400
3FD07FF000
3FE07FF000
3FE07FE000
2FE07FD000
1FF0BFC000
1FF0BFC000
0FF9FF8000
0FFFFF4000
0BFFFF0000
02FFFD0000
0075F90000
0020D40000
0000800000
ENDCHAR
STARTCHAR Ocircumflex
ENCODING 212
SWIDTH 504 0
DWIDTH 16 0
BBX 16 40 0 -3
BITMAP
00145400
00BFF800
00FFFD00
02FFFE00
03FFFF40
07FEFF80
0FF8BFD0
1FE02FF0
2FC00FF4
7F0003F8
7D0001E0
00000040
00000000
00055000
00BFFE40
03FFFFD0
0BFFFFF8
2FFFFFFC
3FFFFFFC
3FFFFFFC
3FFFFFFD
3FFFFFFC
2FFFFFFC
2FFEBFFD
2FFC3FFD
1FF82FFD
0FF82FFD
0FF41FFC
0FF81FFC
0FF81FF8
0BF81FF4
07FC2FF0
07FC2FF0
03FE7FE0
03FFFFD0
02FFFFC0
00BFFF40
001D7E40
00083500
00002000
ENDCHAR
STARTCHAR Otilde
ENCODING 213
SWIDTH 504 0
DWIDTH 16 0
BBX 16 36 0 -3
BITMAP
00001400
1E007F40
BF86FFD0
FFFFFFF4
7FFFFFF4
1FFFFFE0
0BFD0780
00500000
00000000
00055000
00BFFE40
03FFFFD0
0BFFFFF8
2FFFFFFC
3FFFFFFC
3FFFFFFC
3FFFFFFD
3FFFFFFC
2FFFFFFC
2FFEBFFD
2FFC3FFD
1FF82FFD
0FF82FFD
0FF41FFC
0FF81FFC
0FF81FF8
0BF81FF4
07FC2FF0
07FC2FF0
03FE7FE0
03FFFFD0
02FFFFC0
00BFFF40
001D7E40
00083500
00002000
ENDCHAR
STARTCHAR Odieresis
ENCODING 214
SWIDTH 504 0
DWIDTH 16 0
BBX 16 37 0 -3
BITMAP
00000054
BFB42FFE
BFF43FFE
BFF43FFE
FFF43FFE
FFF43FFE
FFF43FFE
BFF42FFE
15500500
00000000
00055000
00BFFE40
03FFFFD0
0BFFFFF8
2FFFFFFC
3FFFFFFC
3FFFFFFC
3FFFFFFD
3FFFFFFC
2FFFFFFC
2FFEBFFD
2FFC3FFD
1FF82FFD
0FF82FFD
0FF41FFC
0FF81FFC
0FF81FF8
0BF81FF4
07FC2FF0
07FC2FF0
03FE7FE0
03FFFFD0
02FFFFC0
00BFFF40
001D7E40
00083500
00002000
ENDCHAR
STARTCHAR multiply
ENCODING 215
SWIDTH 359 0
DWIDTH 12 0
BBX 11 12 0 6
BITMAP
0241C0
0BC3E0
3FEBF8
7FFFFC
1FFFE4
07FFC0
07FFD0
1FFFF4
7FFFFC
2FFBFC
0FC3F0
074180
ENDCHAR
STARTCHAR Oslash
ENCODING 216
SWIDTH 658 0
DWIDTH 21 0
BBX 22 27 -1 -3
BITMAP
000055400000
000BFFE80000
003FFFFF0010
00BFFFFFD0A0
02FFFFFFE2C0
03FFFFFFEA00
07FFFFFFFC00
03FFFFFFF400
03FFFFFFE000
03FFFFFFE000
02FFEBFFE000
02FFC2FFE000
01FF82FFE000
01FF87FFE000
00FF5EFFE000
00FFB8FFD000
00FFE0FFD000
00BF80FF8000
00BFC2FF8000
007FD2FF8000
00BFE3FF4000
02BFFFFF0000
0A2FFFFD0000
280BFFFC0000
6001D3E80000
4000C2840000
000002400000
ENDCHAR
STARTCHAR Ugrave
ENCODING 217
SWIDTH 637 0
DWIDTH 20 0
BBX 20 35 0 -2
BITMAP
01D0000000
02F8000000
03FE000000
0BFF800000
2FFFF40000
01BFFD0000
0006BD0000
0000040000
0000000000
016A805000
6FFFC0FFE4
0FFFC0FFFD
07FFC1FFF4
07FF81FFF0
07FF81FFE0
03FFC1FFD0
03FFD1FFD0
02FFD1FFC0
02FFD1FF80
02FFC1FF80
01FFC1FF40
01FF82FF00
01FF82FF00
01FF82FF00
01FFC2FF00
00FFC3FE00
00FFC3FE00
00FFD3FE00
00BFD7FD00
007FFFFD00
007FFFFC00
003FDFF400
000F899000
0005048000
0000014000
ENDCHAR
STARTCHAR Uacute
ENCODING 218
SWIDTH 637 0
DWIDTH 20 0
BBX 21 35 0 -2
BITMAP
000000007800
00000001FC00
00000007FD00
0000002FFF40
000000BFFFC0
000003FFE900
000003F90000
000001400000
000000000000
016A80500000
6FFFC0FFE400
0FFFC0FFFD00
07FFC1FFF400
07FF81FFF000
07FF81FFE000
03FFC1FFD000
03FFD1FFD000
02FFD1FFC000
02FFD1FF8000
02FFC1FF8000
01FFC1FF4000
01FF82FF0000
01FF82FF0000
01FF82FF0000
01FFC2FF0000
00FFC3FE0000
00FFC3FE0000
00FFD3FE0000
00BFD7FD0000
007FFFFD0000
007FFFFC0000
003FDFF40000
000F89900000
000504800000
000001400000
ENDCHAR
STARTCHAR Ucircumflex
ENCODING 219
SWIDTH 637 0
DWIDTH 20 0
BBX 20 39 0 -2
BITMAP
0001414000
0007FFD000
000BFFE000
000FFFF400
002FFFF800
003FFFFD00
007FC7FF00
00BF41FF40
01FD007FC0
02F4002FD0
02E0000B40
0040000100
0000000000
016A805000
6FFFC0FFE4
0FFFC0FFFD
07FFC1FFF4
07FF81FFF0
07FF81FFE0
03FFC1FFD0
03FFD1FFD0
02FFD1FFC0
02FFD1FF80
02FFC1FF80
01FFC1FF40
01FF82FF00
01FF82FF00
01FF82FF00
01FFC2FF00
00FFC3FE00
00FFC3FE00
00FFD3FE00
00BFD7FD00
007FFFFD00
007FFFFC00
003FDFF400
000F899000
0005048000
0000014000
ENDCHAR
STARTCHAR Udieresis
ENCODING 220
SWIDTH 637 0
DWIDTH 20 0
BBX 20 36 0 -2
BITMAP
0000000550
07FB81FFF4
07FFC1FFF4
07FFC1FFF0
07FFC1FFF0
07FFC1FFF4
07FFC1FFF4
07FF81FFF0
0155401000
0000000000
016A805000
6FFFC0FFE4
0FFFC0FFFD
07FFC1FFF4
07FF81FFF0
07FF81FFE0
03FFC1FFD0
03FFD1FFD0
02FFD1FFC0
02FFD1FF80
02FFC1FF80
01FFC1FF40
01FF82FF00
01FF82FF00
01FF82FF00
01FFC2FF00
00FFC3FE00
00FFC3FE00
00FFD3FE00
00BFD7FD00
007FFFFD00
007FFFFC00
003FDFF400
000F899000
0005048000
0000014000
ENDCHAR
STARTCHAR Yacute
ENCODING 221
SWIDTH 688 0
DWIDTH 22 0
BBX 23 35 0 -1
BITMAP
000000001E00
000000007F00
00000001FF40
0000000BFFD0
0000002FFFF0
000000FFF940
000000FE4000
000000500000
000000000000
000000000000
015A80090000
6FFFE01FE900
0BFFF02FFFE4
00BFF82FFF80
002FFC7FFD00
000FFEBFF400
0007FFFFE000
0001FFFF8000
0000FFFF4000
0000BFFF0000
00003FFF0000
00003FFF0000
00001FFE0000
00000FFE0000
00000BFE0000
000007FE0000
000007FD0000
000003FD0000
000003FD0000
000002FD0000
000002FD0000
000002FD0000
000002FC0000
000002FC0000
000001E40000
ENDCHAR
STARTCHAR Thorn
ENCODING 222
SWIDTH 521 0
DWIDTH 17 0
BBX 16 34 0 -4
BITMAP
00004000
6FFFD000
7FFFC000
7FFF8000
3FFF8000
3FFF4000
3FFF9940
2FFFFFF4
2FFFFFFC
1FFFFFFD
1FFFFFFE
1FFFFFFE
1FFFFFFE
1FFFFFFE
0FFFFFFE
0FFFFFFD
0BFF97FD
0BFF42FD
07FF42FC
07FF82FC
03FF82F8
03FFABF4
02FFFFF4
02FFFFE0
01FFEBC0
00FF8000
01FF8000
01FF8000
01FF8000
00FF8000
00AB8000
00924000
00A24000
00620000
ENDCHAR
STARTCHAR germandbls
ENCODING 223
SWIDTH 546 0
DWIDTH 18 0
BBX 16 27 1 -3
BITMAP
00055400
07FFFFE0
2FFFFFF8
3FFFFFFD
7FFFFFFD
BFFFFFFE
BFFFFFFD
BFFFFFFD
FFFFFFFE
FFFFFFFD
BFFEBFFC
BFF82FF8
7FF82FF0
7FF82FE0
3FF96FD0
3FF9FFC0
2FF9FF40
2FF9FF80
1FF4BFD0
1FF43FD0
1FF83FD0
1FF83FC0
0FF57FC0
0BF5FF80
0BB6FF40
0421BE00
00000400
ENDCHAR
STARTCHAR agrave
ENCODING 224
SWIDTH 479 0
DWIDTH 15 0
BBX 17 37 -1 -3
BITMAP
0740000000
0BD0000000
0FF8000000
2FFE000000
BFFFD00000
06FFF40000
001AF40000
0000500000
0000000000
0000000000
056AAAAF40
1FFFFFFD00
07FFFFF800
01FFFFF400
00BFFFF000
00BFFFF000
00BFFFF000
007FFFF000
007FFFF000
00BFFFF000
00BFFFE000
007FFFE000
007FFFE000
007FEFE000
00BFAFF000
00BF5FE000
00FF5FF000
00FF1FF000
00FF0FF000
00BFFFE000
00FFFFE000
00FFFFE000
00BF6FD000
00BF4FD000
00FE0FD000
00BD0BD000
0068000000
ENDCHAR
STARTCHAR aacute
ENCODING 225
SWIDTH 479 0
DWIDTH 15 0
BBX 19 37 0 -3
BITMAP
0000000740
0000001FC0
0000007FC0
000002FFF4
00001BFFFC
00003FFE50
00007F9000
0000140000
0000000000
0000000000
15AAAABD00
7FFFFFF400
1FFFFFE000
07FFFFD000
02FFFFC000
02FFFFC000
02FFFFC000
01FFFFC000
01FFFFC000
02FFFFC000
02FFFF8000
01FFFF8000
01FFFF8000
01FFBF8000
02FEBFC000
02FD7F8000
03FD7FC000
03FC7FC000
03FC3FC000
02FFFF8000
03FFFF8000
03FFFF8000
02FDBF4000
02FD3F4000
03F83F4000
02F42F4000
01A0000000
ENDCHAR
STARTCHAR acircumflex
ENCODING 226
SWIDTH 479 0
DWIDTH 15 0
BBX 16 40 0 -3
BITMAP
00145400
007FFD00
00BFFE00
00FFFF40
02FFFF80
03FEFFD0
07FC7FE0
0FF41FF4
1FD00BF8
2F4002FC
2E0000B4
04000010
00000000
15AAAABD
7FFFFFF4
1FFFFFE0
07FFFFD0
02FFFFC0
02FFFFC0
02FFFFC0
01FFFFC0
01FFFFC0
02FFFFC0
02FFFF80
01FFFF80
01FFFF80
01FFBF80
02FEBFC0
02FD7F80
03FD7FC0
03FC7FC0
03FC3FC0
02FFFF80
03FFFF80
03FFFF80
02FDBF40
02FD3F40
03F83F40
02F42F40
01A00000
ENDCHAR
STARTCHAR atilde
ENCODING 227
SWIDTH 479 0
DWIDTH 15 0
BBX 16 36 0 -3
BITMAP
00000900
0B402F80
7FD2FFE0
BFFFFFF8
2FFFFFFC
0FFFFFF4
07FE0680
00500000
00000000
15AAAABD
7FFFFFF4
1FFFFFE0
07FFFFD0
02FFFFC0
02FFFFC0
02FFFFC0
01FFFFC0
01FFFFC0
02FFFFC0
02FFFF80
01FFFF80
01FFFF80
01FFBF80
02FEBFC0
02FD7F80
03FD7FC0
03FC7FC0
03FC3FC0
02FFFF80
03FFFF80
03FFFF80
02FDBF40
02FD3F40
03F83F40
02F42F40
01A00000
ENDCHAR
STARTCHAR adieresis
ENCODING 228
SWIDTH 479 0
DWIDTH 15 0
BBX 17 37 0 -3
BITMAP
0000005400
7FB81FFF00
7FF81FFF00
7FF81FFF00
7FF81FFF00
7FF81FFF40
7FF81FFF00
7FF81FFF00
1554010000
0000000000
15AAAABD00
7FFFFFF400
1FFFFFE000
07FFFFD000
02FFFFC000
02FFFFC000
02FFFFC000
01FFFFC000
01FFFFC000
02FFFFC000
02FFFF8000
01FFFF8000
01FFFF8000
01FFBF8000
02FEBFC000
02FD7F8000
03FD7FC000
03FC7FC000
03FC3FC000
02FFFF8000
03FFFF8000
03FFFF8000
02FDBF4000
02FD3F4000
03F83F4000
02F42F4000
01A0000000
ENDCHAR
STARTCHAR aring
ENCODING 229
SWIDTH 479 0
DWIDTH 15 0
BBX 16 39 0 -3
BITMAP
00015000
002FF800
007FFF00
00FD6F80
00F80F80
00B80B40
00781F00
007FFD00
002BF800
00019000
00000000
00000000
15AAAABD
7FFFFFF4
1FFFFFE0
07FFFFD0
02FFFFC0
02FFFFC0
02FFFFC0
01FFFFC0
01FFFFC0
02FFFFC0
02FFFF80
01FFFF80
01FFFF80
01FFBF80
02FEBFC0
02FD7F80
03FD7FC0
03FC7FC0
03FC3FC0
02FFFF80
03FFFF80
03FFFF80
02FDBF40
02FD3F40
03F83F40
02F42F40
01A00000
ENDCHAR
STARTCHAR ae
ENCODING 230
SWIDTH 755 0
DWIDTH 24 0
BBX 23 27 0 -3
BITMAP
05AAAAFA9400
7FFFFFFFFFE8
1FFFFFFFFFF8
03FFFFFFFFF0
02FFFFFFFFD0
02FFFFFFFFC0
01FFFFFFFF80
01FFFFFFFF80
01FFFFFFFF80
02FFFFFFFF40
02FFFFFFFF40
01FFFFF06B00
00FFFFF40000
01FFBFF40000
01FF7FFEA400
02FE7FFFF400
02FD3FFFF400
02FD3FFFF400
02FD3FFAB000
01FFFFF40000
02FFFFF50000
02FFFFFBFC00
01FE7FFFF800
02FD3FFFF800
02F82F5FA800
02F82F000400
01A400000000
ENDCHAR
STARTCHAR ccedilla
ENCODING 231
SWIDTH 534 0
DWIDTH 17 0
BBX 16 37 1 -13
BITMAP
001BE900
01FFFF80
0BFFFFE0
3FFFFFF4
7FFFFFFD
BFFFFFFD
FFFFFFFC
FFFFFFFD
FFFFFFFD
FFFFFFFD
BFFFBFFC
BFFD2FFC
7FF81FFC
3FFC1FF8
2FFC16A8
3FF80000
2FF80000
1FF80000
1FFC2F80
0FFC3FD0
0BFD7FC0
07FEBFC0
03FFFF80
02FFFF00
00AABC00
00046400
0000BC00
0000F800
0001F400
0002E000
0002FE80
0002FFC0
00000BC0
00000BC0
0001AF80
0002FF80
00015A40
ENDCHAR
STARTCHAR egrave
ENCODING 232
SWIDTH 632 0
DWIDTH 20 0
BBX 18 35 1 -2
BITMAP
0B00000000
0FD0000000
1FF4000000
7FFE000000
FFFF800000
1AFFF00000
001BF00000
0000500000
0000000000
0015655000
6FFFFFFFE0
FFFFFFFFE0
7FFFFFFFC0
2FFFFFFF80
0FFFFFFF00
0FFFFFFF00
0BFFFFFE00
0BFFFFFE00
07FFFFFD00
07FFFFFD00
03FF85AC00
03FF800000
02FF800000
02FFEA9000
01FFFFD000
01FFFFD000
01FFFFD000
00FFEAD000
00FF800000
00BF940000
00BFEFF000
007FFFE000
007FFFE000
0034FEA000
0010005000
ENDCHAR
STARTCHAR eacute
ENCODING 233
SWIDTH 632 0
DWIDTH 20 0
BBX 20 35 1 -2
BITMAP
00000001D0
0000000BE0
0000002FE0
000000BFF8
000007FFFE
00001FFF90
00001FA400
0000040000
0000000000
0015655000
6FFFFFFFE0
FFFFFFFFE0
7FFFFFFFC0
2FFFFFFF80
0FFFFFFF00
0FFFFFFF00
0BFFFFFE00
0BFFFFFE00
07FFFFFD00
07FFFFFD00
03FF85AC00
03FF800000
02FF800000
02FFEA9000
01FFFFD000
01FFFFD000
01FFFFD000
00FFEAD000
00FF800000
00BF940000
00BFEFF000
007FFFE000
007FFFE000
0034FEA000
0010005000
ENDCHAR
STARTCHAR ecircumflex
ENCODING 234
SWIDTH 632 0
DWIDTH 20 0
BBX 18 39 1 -2
BITMAP
0005150000
002FFF0000
003FFF4000
007FFFC000
00FFFFD000
01FFBFF000
02FE1FF400
07FC0BFC00
0BF002FE00
0FC000FF00
0B40003C00
0100000000
0000000000
0015655000
6FFFFFFFE0
FFFFFFFFE0
7FFFFFFFC0
2FFFFFFF80
0FFFFFFF00
0FFFFFFF00
0BFFFFFE00
0BFFFFFE00
07FFFFFD00
07FFFFFD00
03FF85AC00
03FF800000
02FF800000
02FFEA9000
01FFFFD000
01FFFFD000
01FFFFD000
00FFEAD000
00FF800000
00BF940000
00BFEFF000
007FFFE000
007FFFE000
0034FEA000
0010005000
ENDCHAR
STARTCHAR edieresis
ENCODING 235
SWIDTH 632 0
DWIDTH 20 0
BBX 18 36 1 -2
BITMAP
0000001500
1FED0BFF80
2FFE0BFF80
2FFE0BFF80
2FFE0BFF80
2FFE0BFFC0
2FFD0BFFC0
2FFD0BFF80
0554014000
0000000000
0015655000
6FFFFFFFE0
FFFFFFFFE0
7FFFFFFFC0
2FFFFFFF80
0FFFFFFF00
0FFFFFFF00
0BFFFFFE00
0BFFFFFE00
07FFFFFD00
07FFFFFD00
03FF85AC00
03FF800000
02FF800000
02FFEA9000
01FFFFD000
01FFFFD000
01FFFFD000
00FFEAD000
00FF800000
00BF940000
00BFEFF000
007FFFE000
007FFFE000
0034FEA000
0010005000
ENDCHAR
STARTCHAR igrave
ENCODING 236
SWIDTH 411 0
DWIDTH 13 0
BBX 15 34 -3 -1
BITMAP
03400000
0BE00000
0BF80000
2FFF0000
BFFFD000
06FFF800
001AF800
00001000
00000000
00169A50
01FFFFFC
007FFFF4
001FFFF0
000BFFE0
0007FFD0
0003FFD0
0003FFC0
0007FFC0
0007FF80
0007FF80
0007FF40
0003FF40
0003FF40
0003FF80
0002FF80
0002FF40
0001FF40
0001FF00
0000FF00
0000FF00
0000FF00
0000FE00
0000EE00
00004A00
ENDCHAR
STARTCHAR iacute
ENCODING 237
SWIDTH 411 0
DWIDTH 13 0
BBX 18 34 0 -1
BITMAP
0000002800
000001FC00
000007FD00
00001FFF40
0000BFFFD0
0003FFF900
0003F90000
0001400000
0000000000
05A6940000
7FFFFF0000
1FFFFD0000
07FFFC0000
02FFF80000
01FFF40000
00FFF40000
00FFF00000
01FFF00000
01FFE00000
01FFE00000
01FFD00000
00FFD00000
00FFD00000
00FFE00000
00BFE00000
00BFD00000
007FD00000
007FC00000
003FC00000
003FC00000
003FC00000
003F800000
003B800000
0012800000
ENDCHAR
STARTCHAR icircumflex
ENCODING 238
SWIDTH 411 0
DWIDTH 13 0
BBX 15 38 0 -1
BITMAP
00515000
01FFF400
02FFF800
03FFFD00
0BFFFE00
0FFFFF40
1FF1FF80
3FD07FD0
7F401FF0
BD000BF4
B80002D0
10000040
00000000
05A69400
7FFFFF00
1FFFFD00
07FFFC00
02FFF800
01FFF400
00FFF400
00FFF000
01FFF000
01FFE000
01FFE000
01FFD000
00FFD000
00FFD000
00FFE000
00BFE000
00BFD000
007FD000
007FC000
003FC000
003FC000
003FC000
003F8000
003B8000
00128000
ENDCHAR
STARTCHAR idieresis
ENCODING 239
SWIDTH 411 0
DWIDTH 13 0
BBX 17 35 -2 -1
BITMAP
0000005500
3FB81FFF40
3FFC1FFF40
7FFC1FFF40
7FFC1FFF40
7FFC1FFF40
7FFC1FFF40
3FFC1FFF40
1554010000
0000000000
005A694000
07FFFFF000
01FFFFD000
007FFFC000
002FFF8000
001FFF4000
000FFF4000
000FFF0000
001FFF0000
001FFE0000
001FFE0000
001FFD0000
000FFD0000
000FFD0000
000FFE0000
000BFE0000
000BFD0000
0007FD0000
0007FC0000
0003FC0000
0003FC0000
0003FC0000
0003F80000
0003B80000
0001280000
ENDCHAR
STARTCHAR eth
ENCODING 240
SWIDTH 530 0
DWIDTH 17 0
BBX 17 29 1 -5
BITMAP
00015A4000
06BFFFD000
1FFFFFF400
1FFFFFFD00
0FFFFFFF00
07FFFFFF40
03FFFFFF40
03FFFFFF40
02FFFFFF80
02FFFFFF40
02FFFFFF40
01FFC2FF00
01FF81FF00
01FF81FE00
BFFFF9FD00
6AFFE5FC00
00FF81FC00
00BF82F800
00BF83F400
007FC3F400
007FEFF400
007FFFF000
007FFFE000
00797FC000
00703E4000
0020380000
0020280000
0000200000
0000100000
ENDCHAR
STARTCHAR ntilde
ENCODING 241
SWIDTH 664 0
DWIDTH 21 0
BBX 20 36 1 -3
BITMAP
0000014000
01E007F400
07F86FFD00
0FFFFFFF40
07FFFFFF80
01FFFFFE00
007FD07800
0005000000
0000000000
55AA815555
FFFFC2FFFD
7FFFD1FFF8
3FFFD0FFF4
1FFFE0FFE0
1FFFF0FFD0
1FFFF5FFD0
1FFFF9FFC0
1FFFFEFF80
0FFFFFFF80
0FFFFFFF80
0FFFFFFF40
0BFFFFFF40
0BFFFFFF00
0BFFFFFF00
07FFFFFE00
03FEFFFE00
03FDFFFD00
03FDBFFD00
02FD7FFC00
02FD3FF800
02FD3FF800
01FD2FF400
01FD1FF000
01FD1FE000
00A11AA000
0000049000
ENDCHAR
STARTCHAR ograve
ENCODING 242
SWIDTH 545 0
DWIDTH 17 0
BBX 18 36 -1 -3
BITMAP
0380000000
07E0000000
0BF8000000
2FFF400000
BFFFD00000
06FFF80000
001AF80000
0000140000
0000000000
0001A54000
002FFFF400
00BFFFFE00
02FFFFFF40
07FFFFFFD0
0FFFFFFFE0
0FFFFFFFE0
0FFFFFFFE0
0FFFFFFFE0
0BFFFFFFE0
0BFFEFFFE0
07FF87FFE0
07FF43FFE0
07FF03FFD0
03FF03FFD0
03FF02FFC0
02FF03FF80
02FF03FF40
01FF47FF00
00FF87FE00
00BFCBFD00
00BFFFFD00
007FFFF800
0027FFF400
00018BF000
00000A2000
0000001000
ENDCHAR
STARTCHAR oacute
ENCODING 243
SWIDTH 545 0
DWIDTH 17 0
BBX 19 36 1 -3
BITMAP
0000000A00
0000003F40
000001FF40
000007FFD0
00002FFFF4
0000BFFE40
0000FE4000
0000500000
0000000000
001A540000
02FFFF4000
0BFFFFE000
2FFFFFF400
7FFFFFFD00
FFFFFFFE00
FFFFFFFE00
FFFFFFFE00
FFFFFFFE00
BFFFFFFE00
BFFEFFFE00
7FF87FFE00
7FF43FFE00
7FF03FFD00
3FF03FFD00
3FF02FFC00
2FF03FF800
2FF03FF400
1FF47FF000
0FF87FE000
0BFCBFD000
0BFFFFD000
07FFFF8000
027FFF4000
0018BF0000
0000A20000
0000010000
ENDCHAR
STARTCHAR ocircumflex
ENCODING 244
SWIDTH 545 0
DWIDTH 17 0
BBX 16 40 1 -3
BITMAP
00545000
00FFF400
01FFFC00
03FFFE00
07FFFF00
0BFEFF80
1FF4FFC0
2FD03FE0
3F801FF0
BE0007F4
780001E0
00000040
00000000
001A5400
02FFFF40
0BFFFFE0
2FFFFFF4
7FFFFFFD
FFFFFFFE
FFFFFFFE
FFFFFFFE
FFFFFFFE
BFFFFFFE
BFFEFFFE
7FF87FFE
7FF43FFE
7FF03FFD
3FF03FFD
3FF02FFC
2FF03FF8
2FF03FF4
1FF47FF0
0FF87FE0
0BFCBFD0
0BFFFFD0
07FFFF80
027FFF40
0018BF00
0000A200
00000100
ENDCHAR
STARTCHAR otilde
ENCODING 245
SWIDTH 545 0
DWIDTH 17 0
BBX 17 36 0 -3
BITMAP
0000050000
0B802FD000
2FD1FFF000
7FFFFFF800
2FFFFFFC00
0BFFFFF400
02FE42D000
0014000000
0000000000
0006950000
00BFFFD000
02FFFFF800
0BFFFFFD00
1FFFFFFF40
3FFFFFFF80
3FFFFFFF80
3FFFFFFF80
3FFFFFFF80
2FFFFFFF80
2FFFBFFF80
1FFE1FFF80
1FFD0FFF80
1FFC0FFF40
0FFC0FFF40
0FFC0BFF00
0BFC0FFE00
0BFC0FFD00
07FD1FFC00
03FE1FF800
02FF2FF400
02FFFFF400
01FFFFE000
009FFFD000
00062FC000
0000288000
0000004000
ENDCHAR
STARTCHAR odieresis
ENCODING 246
SWIDTH 545 0
DWIDTH 17 0
BBX 16 37 1 -3
BITMAP
00000154
FEE07FFD
FFF03FFD
FFF03FFD
FFF03FFD
FFF03FFE
FFF03FFD
FFF03FFD
15500400
00000000
001A5400
02FFFF40
0BFFFFE0
2FFFFFF4
7FFFFFFD
FFFFFFFE
FFFFFFFE
FFFFFFFE
FFFFFFFE
BFFFFFFE
BFFEFFFE
7FF87FFE
7FF43FFE
7FF03FFD
3FF03FFD
3FF02FFC
2FF03FF8
2FF03FF4
1FF47FF0
0FF87FE0
0BFCBFD0
0BFFFFD0
07FFFF80
027FFF40
0018BF00
0000A200
00000100
ENDCHAR
STARTCHAR oslash
ENCODING 248
SWIDTH 676 0
DWIDTH 22 0
BBX 21 27 0 -3
BITMAP
0006A5000000
007FFFD00140
01FFFFF80740
07FFFFFD1D00
0FFFFFFF7400
1FFFFFFFD000
2FFFFFFF8000
2FFFFFFF4000
1FFFFFFF8000
1FFFFFFF4000
0FFFAFFF4000
0FFE0FFF8000
0FFD2FFF4000
0BFD7FFF4000
0BFEDBFF0000
07FF4BFF0000
07FD0BFE0000
03FD0FFD0000
02FD0FFC0000
02FE1FF80000
0BFF2FF80000
29FFFFF40000
60FFFFF00000
805FFFD00000
00062FC00000
000018800000
000000400000
ENDCHAR
STARTCHAR ugrave
ENCODING 249
SWIDTH 708 0
DWIDTH 23 0
BBX 22 33 1 0
BITMAP
00D000000000
02F800000000
02FE00000000
0BFFC0000000
2FFFF4000000
01BFFE000000
0006BE000000
000004000000
000000000000
005A80000000
AFFFD07FA400
3FFFC07FFF90
1FFFC0BFFF80
1FFFC0BFFE00
0FFFC0BFFE00
0BFFD07FFD00
07FFD07FF800
07FFE0BFF400
03FFE0BFF400
03FFE0BFF000
02FFE0BFE000
02FFD0BFE000
02FFD0FFE000
01FFD0FFD000
01FFD0FFD000
01FFE0FFD000
00FFE0FFC000
00BFE1FF8000
007FF2FF8000
003FFFFF4000
003FFFFF4000
002FEBFE0000
000292A90000
ENDCHAR
STARTCHAR uacute
ENCODING 250
SWIDTH 708 0
DWIDTH 23 0
BBX 22 33 1 0
BITMAP
000000002800
00000001FC00
00000007FD00
0000001FFF40
000000BFFFD0
000003FFF900
000003F90000
000001400000
000000000000
005A80000000
AFFFD07FA400
3FFFC07FFF90
1FFFC0BFFF80
1FFFC0BFFE00
0FFFC0BFFE00
0BFFD07FFD00
07FFD07FF800
07FFE0BFF400
03FFE0BFF400
03FFE0BFF000
02FFE0BFE000
02FFD0BFE000
02FFD0FFE000
01FFD0FFD000
01FFD0FFD000
01FFE0FFD000
00FFE0FFC000
00BFE1FF8000
007FF2FF8000
003FFFFF4000
003FFFFF4000
002FEBFE0000
000292A90000
ENDCHAR
STARTCHAR ucircumflex
ENCODING 251
SWIDTH 708 0
DWIDTH 23 0
BBX 22 37 1 0
BITMAP
000151400000
0003FFD00000
0007FFF00000
000FFFF40000
001FFFFC0000
002FFBFD0000
007FD3FF0000
00BF41FF8000
00FE007FC000
02F8001FD000
01E0000B8000
004000010000
000000000000
005A80000000
AFFFD07FA400
3FFFC07FFF90
1FFFC0BFFF80
1FFFC0BFFE00
0FFFC0BFFE00
0BFFD07FFD00
07FFD07FF800
07FFE0BFF400
03FFE0BFF400
03FFE0BFF000
02FFE0BFE000
02FFD0BFE000
02FFD0FFE000
01FFD0FFD000
01FFD0FFD000
01FFE0FFD000
00FFE0FFC000
00BFE1FF8000
007FF2FF8000
003FFFFF4000
003FFFFF4000
002FEBFE0000
000292A90000
ENDCHAR
STARTCHAR udieresis
ENCODING 252
SWIDTH 708 0
DWIDTH 23 0
BBX 22 34 1 0
BITMAP
000000055000
03FB81FFF400
03FFC1FFF400
07FFC1FFF400
07FFC1FFF400
07FFC1FFF400
07FFC1FFF400
03FFC1FFF400
015540100000
000000000000
005A80000000
AFFFD07FA400
3FFFC07FFF90
1FFFC0BFFF80
1FFFC0BFFE00
0FFFC0BFFE00
0BFFD07FFD00
07FFD07FF800
07FFE0BFF400
03FFE0BFF400
03FFE0BFF000
02FFE0BFE000
02FFD0BFE000
02FFD0FFE000
01FFD0FFD000
01FFD0FFD000
01FFE0FFD000
00FFE0FFC000
00BFE1FF8000
007FF2FF8000
003FFFFF4000
003FFFFF4000
002FEBFE0000
000292A90000
ENDCHAR
STARTCHAR yacute
ENCODING 253
SWIDTH 604 0
DWIDTH 19 0
BBX 20 36 1 -2
BITMAP
00000002C0
0000000BD0
0000003FE0
000001FFF4
000007FFFD
00002FFF90
00002FA400
0000140000
0000000000
0000000000
0554020000
BFFD07E900
2FFE0BFFD0
07FF0FFF00
00FF5FFC00
00BFAFF400
007FFFE000
001FFFC000
001FFF8000
000FFF4000
000FFF4000
000BFF4000
0007FF4000
0007FF0000
0003FF0000
0002FF0000
0002FF0000
0002FE0000
0002FE0000
0002FE0000
0002FE0000
0002FE0000
0002FD0000
0002FD0000
0001FD0000
0001800000
ENDCHAR
STARTCHAR thorn
ENCODING 254
SWIDTH 498 0
DWIDTH 16 0
BBX 15 34 0 -4
BITMAP
00004000
6FFF8000
7FFF4000
7FFF4000
3FFF0000
3FFF0000
3FFF6540
2FFFFFE0
2FFFFFF4
1FFFFFF8
1FFFFFFC
1FFFFFFC
1FFFFFFC
1FFFFFFC
0FFFFFFC
0FFFFFF8
0BFF5FF8
0BFF0BF8
07FF07F8
07FF07F4
03FF07F4
03FFABF0
02FFFFE0
02FFFFD0
01FFEB80
00FF8000
01FF8000
01FF8000
01FF8000
00FF8000
00AB8000
00924000
00A24000
00620000
ENDCHAR
STARTCHAR ydieresis
ENCODING 255
SWIDTH 604 0
DWIDTH 19 0
BBX 18 36 1 -2
BITMAP
0000001540
0BEF03FFD0
0FFF43FFD0
0FFF43FFD0
0FFF43FFD0
0FFF43FFE0
0FFF43FFE0
0FFF03FFD0
0155004000
0000000000
0554020000
BFFD07E900
2FFE0BFFD0
07FF0FFF00
00FF5FFC00
00BFAFF400
007FFFE000
001FFFC000
001FFF8000
000FFF4000
000FFF4000
000BFF4000
0007FF4000
0007FF0000
0003FF0000
0002FF0000
0002FF0000
0002FE0000
0002FE0000
0002FE0000
0002FE0000
0002FE0000
0002FD0000
0002FD0000
0001FD0000
0001800000
ENDCHAR
STARTCHAR Amacron
ENCODING 256
SWIDTH 494 0
DWIDTH 16 0
BBX 14 37 1 -7
BITMAP
05400100
2FFFFF00
2FFFFF00
2FFFFF00
06A69A00
00000000
00000000
BFFFFE90
2FFFFF80
0BFFFF00
0BFFFE00
0BFFFD00
07FFFD00
07FFFC00
0BFFFC00
0BFFFC00
0BFFFC00
07FFFC00
07FBF800
0BF7F800
0BF6FC00
0BF2F800
0BF2FC00
07E2F800
0BFFFC00
0FFFF800
0FFFF800
0BFFF800
0BF7F400
07F2F000
07D2F000
06C2F000
06416000
01006000
00009000
00010000
00010000
ENDCHAR
STARTCHAR amacron
ENCODING 257
SWIDTH 479 0
DWIDTH 15 0
BBX 16 34 0 -3
BITMAP
01500000
07FFFFD0
07FFFFD0
07FFFFD0
016AA590
00000000
00000000
15AAAABD
7FFFFFF4
1FFFFFE0
07FFFFD0
02FFFFC0
02FFFFC0
02FFFFC0
01FFFFC0
01FFFFC0
02FFFFC0
02FFFF80
01FFFF80
01FFFF80
01FFBF80
02FEBFC0
02FD7F80
03FD7FC0
03FC7FC0
03FC3FC0
02FFFF80
03FFFF80
03FFFF80
02FDBF40
02FD3F40
03F83F40
02F42F40
01A00000
ENDCHAR
STARTCHAR Abreve
ENCODING 258
SWIDTH 494 0
DWIDTH 16 0
BBX 15 42 1 -7
BITMAP
0AA00000
0BF007E4
07F40BF4
03F81FF0
03FFFFE0
02FFFFD0
006FFF80
000D7F40
00003540
00000100
00000000
00000000
BFFFFE90
2FFFFF80
0BFFFF00
0BFFFE00
0BFFFD00
07FFFD00
07FFFC00
0BFFFC00
0BFFFC00
0BFFFC00
07FFFC00
07FBF800
0BF7F800
0BF6FC00
0BF2F800
0BF2FC00
07E2F800
0BFFFC00
0FFFF800
0FFFF800
0BFFF800
0BF7F400
07F2F000
07D2F000
06C2F000
06416000
01006000
00009000
00010000
00010000
ENDCHAR
STARTCHAR abreve
ENCODING 259
SWIDTH 479 0
DWIDTH 15 0
BBX 16 38 0 -3
BITMAP
02A80000
02FC02F9
01FD02FD
00FE07FC
00FFFFF8
00BFFFF4
001BFFE0
00035FD0
00000D40
00000040
00000000
15AAAABD
7FFFFFF4
1FFFFFE0
07FFFFD0
02FFFFC0
02FFFFC0
02FFFFC0
01FFFFC0
01FFFFC0
02FFFFC0
02FFFF80
01FFFF80
01FFFF80
01FFBF80
02FEBFC0
02FD7F80
03FD7FC0
03FC7FC0
03FC3FC0
02FFFF80
03FFFF80
03FFFF80
02FDBF40
02FD3F40
03F83F40
02F42F40
01A00000
ENDCHAR
STARTCHAR Aogonek
ENCODING 260
SWIDTH 494 0
DWIDTH 16 0
BBX 14 37 1 -14
BITMAP
BFFFFE90
2FFFFF80
0BFFFF00
0BFFFE00
0BFFFD00
07FFFD00
07FFFC00
0BFFFC00
0BFFFC00
0BFFFC00
07FFFC00
07FBF800
0BF7F800
0BF6FC00
0BF2F800
0BF2FC00
07E2F800
0BFFFC00
0FFFF800
0FFFF800
0BFFF800
0BF7F400
07F2F000
07D2F000
06C3F000
0647E000
010BE000
000FD000
000FD000
001FD000
001FE000
000FF400
000FFEA0
000BFFF0
0003FFF0
0000BFF0
00000550
ENDCHAR
STARTCHAR aogonek
ENCODING 261
SWIDTH 479 0
DWIDTH 15 0
BBX 17 36 0 -12
BITMAP
15AAAABD00
7FFFFFF400
1FFFFFE000
07FFFFD000
02FFFFC000
02FFFFC000
02FFFFC000
01FFFFC000
01FFFFC000
02FFFFC000
02FFFF8000
01FFFF8000
01FFFF8000
01FFBF8000
02FEBFC000
02FD7F8000
03FD7FC000
03FC7FC000
03FC3FC000
02FFFF8000
03FFFF8000
03FFFF8000
02FDBF4000
02FD3F4000
03F83F4000
02F43F4000
01A03F0000
00007F0000
00007F0000
00007F0000
00007F4000
00007FEA40
00003FFF80
00001FFF80
000007FF40
0000005500
ENDCHAR
STARTCHAR Cacute
ENCODING 262
SWIDTH 504 0
DWIDTH 16 0
BBX 17 37 1 -4
BITMAP
000000A000
000007F400
00001FF400
00007FFD00
0002FFFF40
000FFFE400
000FE40000
0005000000
0000000000
006AA40000
02FFFE0000
0BFFFF8000
3FFFFFD000
7FFFFFF400
BFFFFFF400
FFFFFFF400
FFFFFFF400
FFFFFFF400
FFFFFFF400
BFFEFFF400
BFF8BFF000
BFF43FF000
7FF43FF000
7FF4041000
3FF0000000
3FF0000000
2FF0140000
2FF47F8000
1FF47FC000
1FF8FF8000
0BFFFF4000
07FFFF0000
07FFFD0000
0076F40000
0021900000
0022900000
0000400000
ENDCHAR
STARTCHAR cacute
ENCODING 263
SWIDTH 534 0
DWIDTH 17 0
BBX 17 35 1 -2
BITMAP
0000007400
000001F800
00000BFC00
00002FFE00
0001FFFF80
0007FFE400
0007F90000
0001400000
0000000000
001BE90000
01FFFF8000
0BFFFFE000
3FFFFFF400
7FFFFFFD00
BFFFFFFD00
FFFFFFFC00
FFFFFFFD00
FFFFFFFD00
FFFFFFFD00
BFFFBFFC00
BFFD2FFC00
7FF81FFC00
3FFC1FF800
2FFC16A800
3FF8000000
2FF8000000
1FF8000000
1FFC2F8000
0FFC3FD000
0BFD7FC000
07FEBFC000
03FFFF8000
02FFFF0000
00AABC0000
0004640000
ENDCHAR
STARTCHAR Ccircumflex
ENCODING 264
SWIDTH 504 0
DWIDTH 16 0
BBX 15 41 1 -4
BITMAP
00145400
00BFF800
00FFFD00
02FFFE00
03FFFF40
07FEFF80
0FF8BFD0
1FE02FF0
2F800FF4
7F0003F8
7D0001E0
00000040
00000000
006AA400
02FFFE00
0BFFFF80
3FFFFFD0
7FFFFFF4
BFFFFFF4
FFFFFFF4
FFFFFFF4
FFFFFFF4
FFFFFFF4
BFFEFFF4
BFF8BFF0
BFF43FF0
7FF43FF0
7FF40410
3FF00000
3FF00000
2FF01400
2FF47F80
1FF47FC0
1FF8FF80
0BFFFF40
07FFFF00
07FFFD00
0076F400
00219000
00229000
00004000
ENDCHAR
STARTCHAR ccircumflex
ENCODING 265
SWIDTH 534 0
DWIDTH 17 0
BBX 16 39 1 -2
BITMAP
00051400
002FFE00
007FFF40
00BFFF80
00FFFFD0
02FFBFE0
03FE2FF4
07F80BF8
0FE003FD
1FC001FE
1F000078
00000010
00000000
001BE900
01FFFF80
0BFFFFE0
3FFFFFF4
7FFFFFFD
BFFFFFFD
FFFFFFFC
FFFFFFFD
FFFFFFFD
FFFFFFFD
BFFFBFFC
BFFD2FFC
7FF81FFC
3FFC1FF8
2FFC16A8
3FF80000
2FF80000
1FF80000
1FFC2F80
0FFC3FD0
0BFD7FC0
07FEBFC0
03FFFF80
02FFFF00
00AABC00
00046400
ENDCHAR
STARTCHAR Cdotaccent
ENCODING 266
SWIDTH 504 0
DWIDTH 16 0
BBX 15 40 1 -4
BITMAP
01AFFE00
02FFFE00
02FFFE00
01FFFD00
01FFFE00
01FFFE00
01FFFE00
00FFFE00
00FFFE00
00A51400
00000000
00000000
006AA400
02FFFE00
0BFFFF80
3FFFFFD0
7FFFFFF4
BFFFFFF4
FFFFFFF4
FFFFFFF4
FFFFFFF4
FFFFFFF4
BFFEFFF4
BFF8BFF0
BFF43FF0
7FF43FF0
7FF40410
3FF00000
3FF00000
2FF01400
2FF47F80
1FF47FC0
1FF8FF80
0BFFFF40
07FFFF00
07FFFD00
0076F400
00219000
00229000
00004000
ENDCHAR
STARTCHAR cdotaccent
ENCODING 267
SWIDTH 534 0
DWIDTH 17 0
BBX 16 38 1 -2
BITMAP
01ABFF40
00FFFF40
00FFFF40
00BFFF00
00BFFF40
00BFFF40
00BFFF40
007FFF40
007FFF40
00694500
00000000
00000000
001BE900
01FFFF80
0BFFFFE0
3FFFFFF4
7FFFFFFD
BFFFFFFD
FFFFFFFC
FFFFFFFD
FFFFFFFD
FFFFFFFD
BFFFBFFC
BFFD2FFC
7FF81FFC
3FFC1FF8
2FFC16A8
3FF80000
2FF80000
1FF80000
1FFC2F80
0FFC3FD0
0BFD7FC0
07FEBFC0
03FFFF80
02FFFF00
00AABC00
00046400
ENDCHAR
STARTCHAR Ccaron
ENCODING 268
SWIDTH 504 0
DWIDTH 16 0
BBX 15 41 1 -4
BITMAP
1D000280
BF400BE0
BFC01FF4
7FD03FF0
2FF0BFD0
1FF5FFC0
0FFFFF40
07FFFF00
03FFFD00
02FFFC00
00FFF400
00505000
00000000
006AA400
02FFFE00
0BFFFF80
3FFFFFD0
7FFFFFF4
BFFFFFF4
FFFFFFF4
FFFFFFF4
FFFFFFF4
FFFFFFF4
BFFEFFF4
BFF8BFF0
BFF43FF0
7FF43FF0
7FF40410
3FF00000
3FF00000
2FF01400
2FF47F80
1FF47FC0
1FF8FF80
0BFFFF40
07FFFF00
07FFFD00
0076F400
00219000
00229000
00004000
ENDCHAR
STARTCHAR ccaron
ENCODING 269
SWIDTH 534 0
DWIDTH 17 0
BBX 16 39 1 -2
BITMAP
074000A0
1FD002F8
2FF007FD
0FF40BFC
0BFC1FF8
07FE3FF0
02FFBFE0
01FFFFC0
00BFFF40
007FFF00
003FFD00
00141400
00000000
001BE900
01FFFF80
0BFFFFE0
3FFFFFF4
7FFFFFFD
BFFFFFFD
FFFFFFFC
FFFFFFFD
FFFFFFFD
FFFFFFFD
BFFFBFFC
BFFD2FFC
7FF81FFC
3FFC1FF8
2FFC16A8
3FF80000
2FF80000
1FF80000
1FFC2F80
0FFC3FD0
0BFD7FC0
07FEBFC0
03FFFF80
02FFFF00
00AABC00
00046400
ENDCHAR
STARTCHAR Dcaron
ENCODING 270
SWIDTH 522 0
DWIDTH 17 0
BBX 16 42 1 -5
BITMAP
02800070
1FE000FC
0FF402FE
0BFC07FD
07FD0FFC
02FF2FF4
01FFBFF0
00FFFFD0
007FFFC0
003FFF40
002FFE00
00051500
00000000
00015500
5ABFFF40
BFFFFFD0
7FFFFFF4
3FFFFFF8
2FFFFFFC
1FFFFFFC
0FFFFFFC
0FFFFFFC
0FFFFFFC
0BFFBFF8
0BFE0FF8
0BFE0BF4
0BFD0BF4
07FD07F0
07FD07E0
07FD0BE0
03FD0FD0
03FD0FD0
02FE1FD0
02FFBFC0
01FFFFC0
02FFFF80
02D2FF00
0282F900
0182A000
01415000
00014000
00004000
ENDCHAR
STARTCHAR dcaron
ENCODING 271
SWIDTH 522 0
DWIDTH 17 0
BBX 16 42 1 -5
BITMAP
02800070
1FE000FC
0FF402FE
0BFC07FD
07FD0FFC
02FF2FF4
01FFBFF0
00FFFFD0
007FFFC0
003FFF40
002FFE00
00051500
00000000
00015500
5ABFFF40
BFFFFFD0
7FFFFFF4
3FFFFFF8
2FFFFFFC
1FFFFFFC
0FFFFFFC
0FFFFFFC
0FFFFFFC
0BFFBFF8
0BFE0FF8
0BFE0BF4
0BFD0BF4
07FD07F0
07FD07E0
07FD0BE0
03FD0FD0
03FD0FD0
02FE1FD0
02FFBFC0
01FFFFC0
02FFFF80
02D2FF00
0282F900
0182A000
01415000
00014000
00004000
ENDCHAR
STARTCHAR Eth.dup2
ENCODING 272
SWIDTH 530 0
DWIDTH 17 0
BBX 17 29 1 -5
BITMAP
00015A4000
06BFFFD000
1FFFFFF400
1FFFFFFD00
0FFFFFFF00
07FFFFFF40
03FFFFFF40
03FFFFFF40
02FFFFFF80
02FFFFFF40
02FFFFFF40
01FFC2FF00
01FF81FF00
01FF81FE00
BFFFF9FD00
6AFFE5FC00
00FF81FC00
00BF82F800
00BF83F400
007FC3F400
007FEFF400
007FFFF000
007FFFE000
00797FC000
00703E4000
0020380000
0020280000
0000200000
0000100000
ENDCHAR
STARTCHAR Emacron
ENCODING 274
SWIDTH 570 0
DWIDTH 18 0
BBX 16 32 1 -2
BITMAP
01500000
07FFFFD0
07FFFFD0
07FFFFD0
016AA590
00000000
055A9500
BFFFFFFE
7FFFFFFD
2FFFFFFC
1FFFFFFC
0FFFFFF8
0FFFFFF4
0FFFFFF0
0FFFFFE0
0FFFFFD0
0BFEAFD0
0BFD0180
0BFD0000
0BFEA900
07FFFE00
07FFFD00
07FFFD00
03FFAD00
03FD0000
02FD0000
02FFFE00
02FFFF00
02EFFE00
024BEA00
014B8600
00050500
ENDCHAR
STARTCHAR emacron
ENCODING 275
SWIDTH 632 0
DWIDTH 20 0
BBX 18 33 1 -2
BITMAP
0054001000
02FFFFF400
02FFFFF400
02FFFFF000
006A69A000
0000000000
0000000000
0015655000
6FFFFFFFE0
FFFFFFFFE0
7FFFFFFFC0
2FFFFFFF80
0FFFFFFF00
0FFFFFFF00
0BFFFFFE00
0BFFFFFE00
07FFFFFD00
07FFFFFD00
03FF85AC00
03FF800000
02FF800000
02FFEA9000
01FFFFD000
01FFFFD000
01FFFFD000
00FFEAD000
00FF800000
00BF940000
00BFEFF000
007FFFE000
007FFFE000
0034FEA000
0010005000
ENDCHAR
STARTCHAR Ebreve
ENCODING 276
SWIDTH 570 0
DWIDTH 18 0
BBX 16 37 1 -2
BITMAP
01A90000
01FD01FE
00FD02FD
00FF43FC
00BFFFFC
007FFFF4
0017FFE0
00024F90
00000950
00000000
00000000
055A9500
BFFFFFFE
7FFFFFFD
2FFFFFFC
1FFFFFFC
0FFFFFF8
0FFFFFF4
0FFFFFF0
0FFFFFE0
0FFFFFD0
0BFEAFD0
0BFD0180
0BFD0000
0BFEA900
07FFFE00
07FFFD00
07FFFD00
03FFAD00
03FD0000
02FD0000
02FFFE00
02FFFF00
02EFFE00
024BEA00
014B8600
00050500
ENDCHAR
STARTCHAR ebreve
ENCODING 277
SWIDTH 632 0
DWIDTH 20 0
BBX 18 37 1 -2
BITMAP
002A800000
003FC02F90
002FC03FC0
001FE07F80
001FFFFF40
000FFFFF00
0005BFFD00
000031FC00
0000018800
0000000400
0000000000
0015655000
6FFFFFFFE0
FFFFFFFFE0
7FFFFFFFC0
2FFFFFFF80
0FFFFFFF00
0FFFFFFF00
0BFFFFFE00
0BFFFFFE00
07FFFFFD00
07FFFFFD00
03FF85AC00
03FF800000
02FF800000
02FFEA9000
01FFFFD000
01FFFFD000
01FFFFD000
00FFEAD000
00FF800000
00BF940000
00BFEFF000
007FFFE000
007FFFE000
0034FEA000
0010005000
ENDCHAR
STARTCHAR Edotaccent
ENCODING 278
SWIDTH 570 0
DWIDTH 18 0
BBX 16 38 1 -2
BITMAP
01ABFE00
01FFFF00
00FFFF00
00FFFF00
00FFFF40
00BFFF40
00BFFF00
00BFFF00
00BFFF00
00690500
00000000
00000000
055A9500
BFFFFFFE
7FFFFFFD
2FFFFFFC
1FFFFFFC
0FFFFFF8
0FFFFFF4
0FFFFFF0
0FFFFFE0
0FFFFFD0
0BFEAFD0
0BFD0180
0BFD0000
0BFEA900
07FFFE00
07FFFD00
07FFFD00
03FFAD00
03FD0000
02FD0000
02FFFE00
02FFFF00
02EFFE00
024BEA00
014B8600
00050500
ENDCHAR
STARTCHAR edotaccent
ENCODING 279
SWIDTH 632 0
DWIDTH 20 0
BBX 18 38 1 -2
BITMAP
006AFF8000
00BFFFC000
007FFFC000
007FFF8000
003FFFC000
003FFFC000
003FFFC000
003FFFC000
002FFF8000
002A414000
0000000000
0000000000
0015655000
6FFFFFFFE0
FFFFFFFFE0
7FFFFFFFC0
2FFFFFFF80
0FFFFFFF00
0FFFFFFF00
0BFFFFFE00
0BFFFFFE00
07FFFFFD00
07FFFFFD00
03FF85AC00
03FF800000
02FF800000
02FFEA9000
01FFFFD000
01FFFFD000
01FFFFD000
00FFEAD000
00FF800000
00BF940000
00BFEFF000
007FFFE000
007FFFE000
0034FEA000
0010005000
ENDCHAR
STARTCHAR Eogonek
ENCODING 280
SWIDTH 513 0
DWIDTH 16 0
BBX 16 35 1 -11
BITMAP
055A9500
BFFFFFFE
7FFFFFFD
2FFFFFFC
1FFFFFFC
0FFFFFF8
0FFFFFF4
0FFFFFF0
0FFFFFE0
0FFFFFD0
0BFEAFD0
0BFD0180
0BFD0000
0BFEA900
07FFFE00
07FFFD00
07FFFD00
03FFAD00
03FD0000
02FD0000
02FFFE00
02FFFF00
02FFFE00
02FAFE00
0182FE00
0002FC00
0003F000
0003F000
0003F400
0003FC00
0002FFA9
0001FFFD
0000BFFC
00002FFC
00000154
ENDCHAR
STARTCHAR eogonek
ENCODING 281
SWIDTH 632 0
DWIDTH 20 0
BBX 18 35 1 -11
BITMAP
0015655000
6FFFFFFFE0
FFFFFFFFE0
7FFFFFFFC0
2FFFFFFF80
0FFFFFFF00
0FFFFFFF00
0BFFFFFE00
0BFFFFFE00
07FFFFFD00
07FFFFFD00
03FF85AC00
03FF800000
02FF800000
02FFEA9000
01FFFFD000
01FFFFD000
01FFFFD000
00FFEAD000
00FF800000
00BF940000
00BFEFF000
007FFFE000
007FFFD000
0034FF8000
00103F4000
00003F0000
00007F0000
00007F0000
00007F8000
00003FEA80
00002FFFC0
00001FFFC0
000006FF80
0000001540
ENDCHAR
STARTCHAR Ecaron
ENCODING 282
SWIDTH 570 0
DWIDTH 18 0
BBX 16 39 1 -2
BITMAP
02800070
1FE001FC
0FF402FE
0BF807FD
07FD0FFC
02FF2FF4
01FFBFF0
00FFFFD0
007FFF80
003FFF40
002FFE00
00051500
00000000
055A9500
BFFFFFFE
7FFFFFFD
2FFFFFFC
1FFFFFFC
0FFFFFF8
0FFFFFF4
0FFFFFF0
0FFFFFE0
0FFFFFD0
0BFEAFD0
0BFD0180
0BFD0000
0BFEA900
07FFFE00
07FFFD00
07FFFD00
03FFAD00
03FD0000
02FD0000
02FFFE00
02FFFF00
02EFFE00
024BEA00
014B8600
00050500
ENDCHAR
STARTCHAR ecaron
ENCODING 283
SWIDTH 632 0
DWIDTH 20 0
BBX 18 39 1 -2
BITMAP
0074000A00
02FD002F80
02FF007FD0
00FF40FFC0
00BFC1FF40
007FD3FF00
002FFFFD00
001FFFFC00
000FFFF400
0007FFF000
0003FFD000
0001414000
0000000000
0015655000
6FFFFFFFE0
FFFFFFFFE0
7FFFFFFFC0
2FFFFFFF80
0FFFFFFF00
0FFFFFFF00
0BFFFFFE00
0BFFFFFE00
07FFFFFD00
07FFFFFD00
03FF85AC00
03FF800000
02FF800000
02FFEA9000
01FFFFD000
01FFFFD000
01FFFFD000
00FFEAD000
00FF800000
00BF940000
00BFEFF000
007FFFE000
007FFFE000
0034FEA000
0010005000
ENDCHAR
STARTCHAR Gcircumflex
ENCODING 284
SWIDTH 499 0
DWIDTH 16 0
BBX 15 40 1 -3
BITMAP
00515000
02FFF000
03FFF400
07FFFC00
0FFFFD00
1FFBFF00
2FE1FF40
7FC0BFC0
BF002FE0
FC000FF0
B40003C0
10000000
00000000
00154000
06FFF400
2FFFFF40
7FFFFFD0
7FFFFFE0
BFFFFFF0
FFFFFFF4
FFFFFFF4
BFFFFFF4
BFFFFFF0
BFFBFFE0
7FE1FFE0
7FE0BFE0
3FE0BFE0
3FD01690
2FD25500
2FE2FFD0
2FE2FFE0
2FF2FFE0
1FF13FD0
1FF47FD0
0FFEFFD0
0BFFFFC0
03FFFF80
01EBFE00
0055A800
00600000
ENDCHAR
STARTCHAR gcircumflex
ENCODING 285
SWIDTH 546 0
DWIDTH 18 0
BBX 16 40 1 -3
BITMAP
00545000
00FFF800
01FFFC00
02FFFE00
07FFFF00
0BFEFF80
0FF4BFC0
2FE03FE0
3F801FF4
7E0007F8
7C0001E0
00000040
00000000
00555000
07FFFE40
1FFFFFE0
7FFFFFF4
BFFFFFFC
FFFFFFFD
FFFFFFFE
FFFFFFFF
FFFFFFFF
BFFFFFFE
BFFFFFFE
7FF8BFFD
7FF43FFC
3FF42FFC
3FF01AFC
2FF44004
1FF4BE50
0FF8BFFC
0BFCBFF8
0BFCAFF8
0BFD0BF8
07FE1FF4
03FFFFF4
02FFFFF4
01FFFFF0
007AFAD0
00111000
ENDCHAR
STARTCHAR Gbreve
ENCODING 286
SWIDTH 499 0
DWIDTH 16 0
BBX 15 38 1 -3
BITMAP
1A900000
1FD01FE0
0FD02FD0
0FF43FC0
0BFFFFC0
07FFFF40
017FFE00
0024F900
00009500
00000000
00000000
00154000
06FFF400
2FFFFF40
7FFFFFD0
7FFFFFE0
BFFFFFF0
FFFFFFF4
FFFFFFF4
BFFFFFF4
BFFFFFF0
BFFBFFE0
7FE1FFE0
7FE0BFE0
3FE0BFE0
3FD01690
2FD25500
2FE2FFD0
2FE2FFE0
2FF2FFE0
1FF13FD0
1FF47FD0
0FFEFFD0
0BFFFFC0
03FFFF80
01EBFE00
0055A800
00600000
ENDCHAR
STARTCHAR gbreve
ENCODING 287
SWIDTH 546 0
DWIDTH 18 0
BBX 16 38 1 -3
BITMAP
0AA00000
0BF00BE4
07F40BF4
03F81FE0
03FFFFE0
02FFFFC0
006FFF80
000C7F40
00003200
00000100
00000000
00555000
07FFFE40
1FFFFFE0
7FFFFFF4
BFFFFFFC
FFFFFFFD
FFFFFFFE
FFFFFFFF
FFFFFFFF
BFFFFFFE
BFFFFFFE
7FF8BFFD
7FF43FFC
3FF42FFC
3FF01AFC
2FF44004
1FF4BE50
0FF8BFFC
0BFCBFF8
0BFCAFF8
0BFD0BF8
07FE1FF4
03FFFFF4
02FFFFF4
01FFFFF0
007AFAD0
00111000
ENDCHAR
STARTCHAR Gdotaccent
ENCODING 288
SWIDTH 499 0
DWIDTH 16 0
BBX 15 39 1 -3
BITMAP
06AFF800
0BFFFC00
07FFFC00
07FFF800
03FFFC00
03FFFC00
03FFFC00
03FFFC00
02FFF800
02A41400
00000000
00000000
00154000
06FFF400
2FFFFF40
7FFFFFD0
7FFFFFE0
BFFFFFF0
FFFFFFF4
FFFFFFF4
BFFFFFF4
BFFFFFF0
BFFBFFE0
7FE1FFE0
7FE0BFE0
3FE0BFE0
3FD01690
2FD25500
2FE2FFD0
2FE2FFE0
2FF2FFE0
1FF13FD0
1FF47FD0
0FFEFFD0
0BFFFFC0
03FFFF80
01EBFE00
0055A800
00600000
ENDCHAR
STARTCHAR gdotaccent
ENCODING 289
SWIDTH 546 0
DWIDTH 18 0
BBX 16 39 1 -3
BITMAP
01AFFD00
02FFFE00
02FFFD00
02FFFD00
01FFFE00
01FFFE00
01FFFE00
01FFFE00
01FFFD00
00A51400
00000000
00000000
00555000
07FFFE40
1FFFFFE0
7FFFFFF4
BFFFFFFC
FFFFFFFD
FFFFFFFE
FFFFFFFF
FFFFFFFF
BFFFFFFE
BFFFFFFE
7FF8BFFD
7FF43FFC
3FF42FFC
3FF01AFC
2FF44004
1FF4BE50
0FF8BFFC
0BFCBFF8
0BFCAFF8
0BFD0BF8
07FE1FF4
03FFFFF4
02FFFFF4
01FFFFF0
007AFAD0
00111000
ENDCHAR
STARTCHAR Gcommaaccent
ENCODING 290
SWIDTH 499 0
DWIDTH 16 0
BBX 15 43 1 -19
BITMAP
00154000
06FFF400
2FFFFF40
7FFFFFD0
7FFFFFE0
BFFFFFF0
FFFFFFF4
FFFFFFF4
BFFFFFF4
BFFFFFF0
BFFBFFE0
7FE1FFE0
7FE0BFE0
3FE0BFE0
3FD01690
2FD25500
2FE2FFD0
2FE2FFE0
2FF2FFE0
1FF13FD0
1FF47FD0
0FFEFFD0
0BFFFFC0
03FFFF80
01EBFE00
0055A800
00600000
00000000
00000000
007EA900
00BFFE00
00BFFE00
00BFFF00
00BFFF00
00BFFF00
00FFFE00
00BBFF00
0000BE00
0000BE00
0000BD00
0000FD00
0000FC00
0000F800
ENDCHAR
STARTCHAR Hcircumflex
ENCODING 292
SWIDTH 726 0
DWIDTH 23 0
BBX 21 43 1 -6
BITMAP
000141400000
0003FFD00000
000BFFF00000
000FFFF40000
001FFFFC0000
003FFFFD0000
007FD3FF0000
00BF41FF4000
01FD007FC000
02F8002FD000
02E0000B4000
004000010000
000000000000
000550955400
56BFD0FFFF80
BFFF80FFFF80
2FFF80BFFF00
1FFF807FFE00
0FFF80BFFD00
0FFF80FFFC00
0BFF80FFF800
0BFF80FFF400
07FF80FFF400
07FF40FFF000
03FF40FFE000
03FF40FFD000
02FFABFFD000
02FFFFFF8000
01FFFFFF8000
01FFFFFF8000
00FF92FF8000
00FF82FF8000
00FF82FF0000
00FF82FF0000
00BF82FF0000
00BF83FE0000
00BF83FE0000
00A502FE0000
004000D50000
000000040000
000000000000
000005000000
000005000000
ENDCHAR
STARTCHAR hcircumflex
ENCODING 293
SWIDTH 730 0
DWIDTH 23 0
BBX 22 39 1 -2
BITMAP
000151400000
0003FFD00000
0007FFF00000
000FFFF80000
001FFFFC0000
002FFBFE0000
007FD3FF0000
00BF40FF8000
00FE007FC000
02F8001FD000
01E000078000
000000010000
000000000000
001AA0AA9900
6AFFD0BFFFD0
3FFF80BFFF80
1FFFC03FFF40
0FFF803FFE00
0FFF80BFFD00
0FFF80BFFC00
0BFF80BFF800
0BFF80BFF800
07FF80BFF400
03FF80BFF400
03FF80BFF000
02FF80BFD000
02FFFFFFD000
01FFFFFFC000
01FFFFFFC000
01FFFFFFC000
00FF81FFC000
00FF82FF8000
00FFC2FF4000
00FFC2FF4000
00BFC2FF0000
00BFC2FF0000
00BF82FF0000
00A001FE0000
000000460000
ENDCHAR
STARTCHAR hbar
ENCODING 295
SWIDTH 704 0
DWIDTH 23 0
BBX 21 26 1 -2
BITMAP
001A91AA6400
6AFFC1FFFF40
3FFF81FFFF00
1FFF41FFFD00
0FFF55FFFC00
0FFFFFFFF800
0FFFFFFFF000
0BFFFFFFF000
0BFFFFFFE000
07FFFFFFE000
03FF55FFD000
03FF00FFC000
02FF01FF8000
02FFFFFF8000
01FFFFFF4000
01FFFFFF4000
01FFFBFF4000
00FF81FF8000
00FF82FF8000
00FFC2FF4000
00FFC2FF4000
00BFC2FF0000
00BFC2FF0000
00BF82FF0000
00A001FE0000
000000460000
ENDCHAR
STARTCHAR Itilde
ENCODING 296
SWIDTH 401 0
DWIDTH 13 0
BBX 15 35 -2 -2
BITMAP
00000900
0B402F80
7FD2FFE0
BFFFFFF8
2FFFFFFC
0FFFFFF4
07FE0290
00500000
00000000
01AAAA90
07FFFFE0
02FFFFC0
00BFFF80
003FFF40
001FFF40
001FFF40
001FFF40
001FFF40
001FFF00
001FFF00
001FFE00
001FFD00
001FFE00
000FFE00
000FFE00
000FFD00
000BFC00
000BFD00
000BFD00
0007FD00
0007FC00
0003FC00
00033D00
00022500
00001000
ENDCHAR
STARTCHAR itilde
ENCODING 297
SWIDTH 411 0
DWIDTH 13 0
BBX 15 34 -2 -1
BITMAP
00000500
0B402FD0
2FD2FFF0
7FFFFFF8
2FFFFFFC
0BFFFFF4
02FE42D0
00500000
00000000
005A6940
07FFFFF0
01FFFFD0
007FFFC0
002FFF80
001FFF40
000FFF40
000FFF00
001FFF00
001FFE00
001FFE00
001FFD00
000FFD00
000FFD00
000FFE00
000BFE00
000BFD00
0007FD00
0007FC00
0003FC00
0003FC00
0003FC00
0003F800
0003B800
00012800
ENDCHAR
STARTCHAR Imacron
ENCODING 298
SWIDTH 401 0
DWIDTH 13 0
BBX 12 33 0 -2
BITMAP
150000
7FFFFE
7FFFFE
7FFFFD
16A659
000000
000000
1AAAA9
7FFFFE
2FFFFC
0BFFF8
03FFF4
01FFF4
01FFF4
01FFF4
01FFF4
01FFF0
01FFF0
01FFE0
01FFD0
01FFE0
00FFE0
00FFE0
00FFD0
00BFC0
00BFD0
00BFD0
007FD0
007FC0
003FC0
0033D0
002250
000100
ENDCHAR
STARTCHAR imacron
ENCODING 299
SWIDTH 411 0
DWIDTH 13 0
BBX 12 32 0 -1
BITMAP
154000
3FFFFE
3FFFFE
3FFFFE
16A699
000000
000000
05A694
7FFFFF
1FFFFD
07FFFC
02FFF8
01FFF4
00FFF4
00FFF0
01FFF0
01FFE0
01FFE0
01FFD0
00FFD0
00FFD0
00FFE0
00BFE0
00BFD0
007FD0
007FC0
003FC0
003FC0
003FC0
003F80
003B80
001280
ENDCHAR
STARTCHAR Ibreve
ENCODING 300
SWIDTH 401 0
DWIDTH 13 0
BBX 13 37 0 -2
BITMAP
2A800000
3FC02F80
2FC03FC0
1FE07F80
1FFFFF40
0FFFFF00
05BFFD00
0032FC00
00018800
00000400
00000000
1AAAA900
7FFFFE00
2FFFFC00
0BFFF800
03FFF400
01FFF400
01FFF400
01FFF400
01FFF400
01FFF000
01FFF000
01FFE000
01FFD000
01FFE000
00FFE000
00FFE000
00FFD000
00BFC000
00BFD000
00BFD000
007FD000
007FC000
003FC000
0033D000
00225000
00010000
ENDCHAR
STARTCHAR ibreve
ENCODING 301
SWIDTH 411 0
DWIDTH 13 0
BBX 13 36 0 -1
BITMAP
2A800000
3F803F80
2FC03FC0
1FE0BF80
1FFFFF40
0FFFFF00
05BFFD00
0062FC00
00018800
00000400
00000000
05A69400
7FFFFF00
1FFFFD00
07FFFC00
02FFF800
01FFF400
00FFF400
00FFF000
01FFF000
01FFE000
01FFE000
01FFD000
00FFD000
00FFD000
00FFE000
00BFE000
00BFD000
007FD000
007FC000
003FC000
003FC000
003FC000
003F8000
003B8000
00128000
ENDCHAR
STARTCHAR Iogonek
ENCODING 302
SWIDTH 401 0
DWIDTH 13 0
BBX 12 37 0 -13
BITMAP
1AAAA9
7FFFFE
2FFFFC
0BFFF8
03FFF4
01FFF4
01FFF4
01FFF4
01FFF4
01FFF0
01FFF0
01FFE0
01FFD0
01FFE0
00FFE0
00FFE0
00FFD0
00BFC0
00BFD0
00BFD0
007FD0
007FC0
003FC0
003FD0
007F90
00BE00
00BD00
00FC00
00FC00
01FC00
01FC00
01FE00
01FFEA
00FFFF
007FFE
001BFE
000054
ENDCHAR
STARTCHAR iogonek
ENCODING 303
SWIDTH 412 0
DWIDTH 13 0
BBX 12 36 0 -12
BITMAP
05A694
7FFFFF
1FFFFD
07FFFC
02FFF8
01FFF4
00FFF4
00FFF0
01FFF0
01FFE0
01FFE0
01FFD0
00FFD0
00FFD0
00FFE0
00BFE0
00BFD0
007FD0
007FC0
003FC0
003FC0
003FC0
003FC0
007F80
007F80
00BE00
00BD00
00FD00
01FC00
01FC00
01FE00
00FF95
00BFFF
007FFF
001FFF
0002BA
ENDCHAR
STARTCHAR Idotaccent
ENCODING 304
SWIDTH 401 0
DWIDTH 13 0
BBX 12 38 0 -2
BITMAP
1ABFF4
1FFFF4
0FFFF4
0FFFF0
0BFFF4
0BFFF4
0BFFF4
0BFFF4
0BFFF0
069450
000000
000000
1AAAA9
7FFFFE
2FFFFC
0BFFF8
03FFF4
01FFF4
01FFF4
01FFF4
01FFF4
01FFF0
01FFF0
01FFE0
01FFD0
01FFE0
00FFE0
00FFE0
00FFD0
00BFC0
00BFD0
00BFD0
007FD0
007FC0
003FC0
0033D0
002250
000100
ENDCHAR
STARTCHAR dotlessi
ENCODING 305
SWIDTH 411 0
DWIDTH 13 0
BBX 12 25 0 -1
BITMAP
05A694
7FFFFF
1FFFFD
07FFFC
02FFF8
01FFF4
00FFF4
00FFF0
01FFF0
01FFE0
01FFE0
01FFD0
00FFD0
00FFD0
00FFE0
00BFE0
00BFD0
007FD0
007FC0
003FC0
003FC0
003FC0
003F80
003B80
001280
ENDCHAR
STARTCHAR IJ
ENCODING 306
SWIDTH 908 0
DWIDTH 29 0
BBX 28 26 0 -2
BITMAP
1AA6A940015550
7FFFFF0002FFFE
2FFFFE0001FFFD
0BFFFD0000BFFC
03FFF80000BFF8
01FFFC00007FF4
01FFFC00007FE0
01FFF800007FE0
01FFF80000BFE0
01FFF80000BFE0
01FFF40000BFE0
01FFF40000BFD0
01FFF00000BFC0
01FFF00000BFC0
00FFF000007FC0
00FFF00000BF80
00FFE005B0BF80
00BFE01FF0BF80
00BFE00FF0BF40
007FE00FF0FF40
007FE00FF9FF00
003FE00BFFFE00
003FE007FFFD00
0026E001BAF800
0021900015C400
00014000000000
ENDCHAR
STARTCHAR ij
ENCODING 307
SWIDTH 901 0
DWIDTH 29 0
BBX 28 25 0 -1
BITMAP
05A6950006A500
7FFFFF400BFFF9
1FFFFE0007FFFD
07FFFD0003FFFC
02FFFC0002FFF8
00FFFC0001FFF4
00FFF80000FFF0
00FFF80000FFF0
01FFF40000FFF0
01FFF40000FFF0
01FFF00000FFF0
01FFF00000FFE0
00FFF00000FFE0
00FFF00000FFE0
00BFF00000BFD0
00BFF00010BFD0
007FE005B0BFD0
007FE01FF0BFD0
003FE00FF4BFD0
003FE00BF8BFC0
003FD007FEFF80
003FD007FFFF80
003FD002FFFF00
002AD000BFFF00
0011D00005B600
ENDCHAR
STARTCHAR Jcircumflex
ENCODING 308
SWIDTH 455 0
DWIDTH 15 0
BBX 17 38 -1 -1
BITMAP
0001454000
0007FFC000
000FFFE000
001FFFF000
002FFFF800
007FEFFC00
00BF87FE00
00FF02FF00
02FD00BF80
03F4002FC0
02D0000F40
0040000000
0000000000
0005550000
000FFFF400
000BFFE000
0007FFD000
0003FFD000
0002FFC000
0002FF4000
0003FF4000
0003FF4000
0003FF0000
0003FF0000
0003FF0000
0003FE0000
0003FE0000
0003FE0000
0003FD0000
1A83FD0000
BF83FC0000
BF83FC0000
7F87F80000
7FDBF80000
3FFFF40000
2FFFF00000
0BDFA00000
008A100000
ENDCHAR
STARTCHAR jcircumflex
ENCODING 309
SWIDTH 458 0
DWIDTH 15 0
BBX 17 38 -1 -1
BITMAP
0001454000
0007FFC000
000BFFE000
001FFFF000
002FFFF800
003FEFFC00
00BFC7FE00
00FF01FF40
01FD00BF80
03F4002FC0
02D0000B40
0040000000
0000000000
001A940000
002FFFE400
001FFFF400
000FFFE000
000BFFE000
0007FFD000
0003FFC000
0003FF8000
0003FFC000
0003FFC000
0003FF8000
0003FF8000
0003FF8000
0003FF8000
0002FF4000
0042FF4000
1AC2FF4000
BFC2FF4000
7FD2FF0000
3FE2FF0000
2FFBFE0000
2FFFFD0000
0FFFFC0000
06FFFC0000
0016D80000
ENDCHAR
STARTCHAR Kcommaaccent
ENCODING 310
SWIDTH 580 0
DWIDTH 19 0
BBX 18 42 0 -18
BITMAP
0594419000
7FFF83FF90
1FFF83FF80
0BFF87FE00
03FFC7F800
02FFCBE000
01FFCFD000
00FFDFD000
00BFFFC000
00BFFF8000
00BFFF8000
00BFFFC000
007FFFC000
007FFFC000
003FFFC000
003FFFC000
002FFFD000
002FFFC000
002FFFD000
002FDFE000
002F87F000
001F87F000
001FC3F400
001FC3F400
0008829400
0000400000
0000000000
0000000000
0006EAA000
0007FFF000
0007FFF000
000BFFF000
000BFFF000
000BFFF000
000BFFF000
0007BFF000
000007F000
000007E000
00000BE000
00000BD000
00000FD000
00000FC000
ENDCHAR
STARTCHAR kcommaaccent
ENCODING 311
SWIDTH 636 0
DWIDTH 20 0
BBX 20 41 0 -17
BITMAP
0015205A90
5BFFF0FFFD
2FFFE1FFE0
07FFE1FF80
03FFE2FF00
02FFE3FC00
01FFE3F800
00BFF3F800
007FF7F400
003FF7F400
007FFBE000
003FFBD000
003FFFC000
003FFF8000
003FFF8000
002FFFC000
001FFFD000
001FFFE000
001FFBF000
000FF7F400
000BE2FC00
000FE1FD00
000BE0BD00
000BE0BF00
0006607600
0000000000
0000000000
0001BAA800
0001FFFC00
0001FFFC00
0002FFFC00
0002FFFC00
0002FFFC00
0002FFFC00
0001EFFC00
000001FC00
000001F800
000002F800
000002F400
000003F400
000003F000
ENDCHAR
STARTCHAR kgreenlandic
ENCODING 312
SWIDTH 636 0
DWIDTH 20 0
BBX 20 25 0 -1
BITMAP
0015205A90
5BFFF0FFFD
2FFFE1FFE0
07FFE1FF80
03FFE2FF00
02FFE3FC00
01FFE3F800
00BFF3F800
007FF7F400
003FF7F400
007FFBE000
003FFBD000
003FFFC000
003FFF8000
003FFF8000
002FFFC000
001FFFD000
001FFFE000
001FFBF000
000FF7F400
000BE2FC00
000FE1FD00
000BE0BD00
000BE0BF00
0006607600
ENDCHAR
STARTCHAR Lacute
ENCODING 313
SWIDTH 416 0
DWIDTH 13 0
BBX 18 35 0 -2
BITMAP
0000002800
000001FD00
000007FD00
00001FFF40
0000BFFFD0
0003FFF900
0003F90000
0001400000
0000000000
6AA9680000
2FFFF80000
0FFFE00000
0BFFC00000
0BFF800000
0BFF800000
07FFC00000
07FF800000
07FF800000
07FF800000
07FF400000
03FF800000
02FF800000
02FF800000
02FF800000
02FF800000
01FF800000
01FF800000
01FF800000
00FFD41400
00FFFFF000
00BFFFF000
00BFFFE000
007FEFE000
00269BD000
0011518000
ENDCHAR
STARTCHAR lacute
ENCODING 314
SWIDTH 438 0
DWIDTH 14 0
BBX 17 36 1 -2
BITMAP
0000007400
000002F800
00000BF800
00002FFE00
0001FFFF80
0007FFE400
0007E90000
0001000000
0000000000
0000000000
05AABE0000
BFFFF80000
2FFFE00000
1FFFC00000
0FFF800000
0FFFC00000
0BFF800000
0BFF800000
0BFF400000
0BFF800000
07FF800000
07FF800000
02FF800000
02FF400000
02FF400000
02FF400000
01FF400000
01FF400000
01FF400000
00FFE55000
00FFFFE000
00FFFFD000
00BFFFC000
00BF7FC000
00A11F8000
0060064000
ENDCHAR
STARTCHAR Lcommaaccent
ENCODING 315
SWIDTH 416 0
DWIDTH 13 0
BBX 15 43 0 -19
BITMAP
6AA96800
2FFFF800
0FFFE000
0BFFC000
0BFF8000
0BFF8000
07FFC000
07FF8000
07FF8000
07FF8000
07FF4000
03FF8000
02FF8000
02FF8000
02FF8000
02FF8000
01FF8000
01FF8000
01FF8000
00FFD414
00FFFFF0
00BFFFF0
00BFFFE0
007FEFE0
00269BD0
00115180
00000000
00000000
00000000
00BEA800
00FFFD00
01FFFD00
01FFFD00
01FFFD00
01FFFD00
01FFFD00
01FFFD00
0000FD00
0000FC00
0001FC00
0002F800
0002F800
0002F400
ENDCHAR
STARTCHAR lcommaaccent
ENCODING 316
SWIDTH 438 0
DWIDTH 14 0
BBX 14 42 1 -18
BITMAP
05AABE00
BFFFF800
2FFFE000
1FFFC000
0FFF8000
0FFFC000
0BFF8000
0BFF8000
0BFF4000
0BFF8000
07FF8000
07FF8000
02FF8000
02FF4000
02FF4000
02FF4000
01FF4000
01FF4000
01FF4000
00FFE550
00FFFFE0
00FFFFD0
00BFFFC0
00BF7FC0
00A11F80
00600640
00000000
00000000
02FAA400
02FFF800
02FFF800
02FFFC00
02FFFC00
03FFF800
03FFF800
02EFF800
0002F800
0002F800
0003F400
0003F400
0003F000
0003E000
ENDCHAR
STARTCHAR Lcaron
ENCODING 317
SWIDTH 714 0
DWIDTH 23 0
BBX 22 26 0 -2
BITMAP
6AA9691BEA90
2FFFF82FFFD0
0FFFE02FFFE0
0BFFC02FFFE0
0BFF802FFFE0
0BFF802FFFE0
07FFC02FFFE0
07FF802FFFE0
07FF802FFFE0
07FF80196FE0
07FF40000BD0
03FF80000FD0
02FF80000FC0
02FF80001FC0
02FF80001F80
02FF80001A40
01FF80000000
01FF80000000
01FF80000000
00FFD4140000
00FFFFF00000
00BFFFF00000
00BFFFE00000
007FEFE00000
00269BD00000
001151800000
ENDCHAR
STARTCHAR lcaron
ENCODING 318
SWIDTH 782 0
DWIDTH 25 0
BBX 23 26 1 -2
BITMAP
05AABE06FAA4
BFFFF807FFF8
2FFFE007FFF8
1FFFC007FFF8
0FFF8007FFFC
0FFFC007FFF8
0BFF800BFFF8
0BFF800BFFF8
0BFF400BFFF8
0BFF80025BF8
07FF800002F8
07FF800002F4
02FF800003F4
02FF400003F0
02FF400007F0
02FF40000290
01FF40000000
01FF40000000
01FF40000000
00FFE5500000
00FFFFE00000
00FFFFD00000
00BFFFC00000
00BF7FC00000
00A11F800000
006006400000
ENDCHAR
STARTCHAR Ldotaccent
ENCODING 319
SWIDTH 567 0
DWIDTH 18 0
BBX 20 26 0 -2
BITMAP
6AA9680000
2FFFF80000
0FFFE00000
0BFFC00000
0BFF800000
0BFF81ABF9
07FFC3FFFE
07FF82FFFE
07FF82FFFD
07FF81FFFE
07FF41FFFE
03FF81FFFE
02FF81FFFE
02FF81FFFD
02FF81E955
02FF800000
01FF800000
01FF800000
01FF800000
00FFD41400
00FFFFF000
00BFFFF000
00BFFFE000
007FEFE000
00269BD000
0011518000
ENDCHAR
STARTCHAR ldot
ENCODING 320
SWIDTH 660 0
DWIDTH 21 0
BBX 21 26 1 -2
BITMAP
05AABE000000
BFFFF8000000
2FFFE0000000
1FFFC0000000
0FFF80000000
0FFFC0000000
0BFF80000000
0BFF806AFF80
0BFF407FFFC0
0BFF807FFFC0
07FF803FFF80
07FF803FFFC0
02FF803FFFC0
02FF403FFFC0
02FF403FFFC0
02FF402FFFC0
01FF402A4140
01FF40000000
01FF40000000
00FFE5500000
00FFFFE00000
00FFFFD00000
00BFFFC00000
00BF7FC00000
00A11F800000
006006400000
ENDCHAR
STARTCHAR Lslash
ENCODING 321
SWIDTH 428 0
DWIDTH 14 0
BBX 15 26 0 -2
BITMAP
1AA96800
1FFFF800
0BFFE000
07FFC000
07FF8000
03FF8000
03FFC010
03FF82E0
03FFBFF0
03FFFFF0
03FFFFF4
6FFFFFF8
BFFFFFE8
3FFFFE00
2FFFD000
1FFF8000
0EFF8000
00BF8000
00BF8000
00BFD414
00BFFFF0
007FFFF0
007FFFE0
003FEFE0
0015ABD0
00015180
ENDCHAR
STARTCHAR lslash
ENCODING 322
SWIDTH 457 0
DWIDTH 15 0
BBX 16 26 0 -2
BITMAP
006A6BD0
1FFFFE40
0BFFFC00
07FFF400
03FFF000
02FFF000
01FFF06C
02FFF6FC
01FFFFFC
01FFFFFD
01FFFFFF
1BFFFFFF
7FFFFFE4
3FFFFE00
1FFFE000
0FFFE000
0BBFE000
003FE000
003FE000
002FF954
002FFFFC
002FFFF8
001FFFF4
001FEBF0
001D46F0
00080090
ENDCHAR
STARTCHAR Nacute
ENCODING 323
SWIDTH 610 0
DWIDTH 20 0
BBX 20 38 1 -5
BITMAP
00000001C0
0000000BE0
0000002FE0
000000BFF8
000007FFFE
00001FFF90
00002FA400
0000040000
0000000000
0056194000
BFFF0FFF90
BFFF0BFF80
2FFF4BFF00
1FFF87FD00
0FFFC7FD00
0FFFD7FD00
0FFFE7FD00
0FFFFBFC00
0FFFFFFC00
0BFFFFFC00
0BFFFFF800
0BFFFFF800
07FFFFF400
07FFFFF400
03FFFFF400
02FEFFF000
02FDFFF000
01FDBFF000
01FD7FF000
01FD7FF000
01FD3FF000
01FD2FE000
00FE1FE000
00FE0FA000
00E60F9000
0081054000
0081040000
0082040000
ENDCHAR
STARTCHAR nacute
ENCODING 324
SWIDTH 664 0
DWIDTH 21 0
BBX 21 36 1 -3
BITMAP
000000007000
00000002F800
0000000BF800
0000003FFE00
000001FFFF80
000007FFE400
00000BE90000
000001000000
000000000000
55AA81555500
FFFFC2FFFD00
7FFFD1FFF800
3FFFD0FFF400
1FFFE0FFE000
1FFFF0FFD000
1FFFF5FFD000
1FFFF9FFC000
1FFFFEFF8000
0FFFFFFF8000
0FFFFFFF8000
0FFFFFFF4000
0BFFFFFF4000
0BFFFFFF0000
0BFFFFFF0000
07FFFFFE0000
03FEFFFE0000
03FDFFFD0000
03FDBFFD0000
02FD7FFC0000
02FD3FF80000
02FD3FF80000
01FD2FF40000
01FD1FF00000
01FD1FE00000
00A11AA00000
000004900000
ENDCHAR
STARTCHAR Ncommaaccent
ENCODING 325
SWIDTH 610 0
DWIDTH 20 0
BBX 18 45 1 -21
BITMAP
0056194000
BFFF0FFF90
BFFF0BFF80
2FFF4BFF00
1FFF87FD00
0FFFC7FD00
0FFFD7FD00
0FFFE7FD00
0FFFFBFC00
0FFFFFFC00
0BFFFFFC00
0BFFFFF800
0BFFFFF800
07FFFFF400
07FFFFF400
03FFFFF400
02FEFFF000
02FDFFF000
01FDBFF000
01FD7FF000
01FD7FF000
01FD3FF000
01FD2FE000
00FE1FE000
00FE0FA000
00E60F9000
0081054000
0081040000
0082040000
0000000000
0000000000
0006EAA000
0007FFF000
000BFFF000
000BFFF000
000BFFF000
000BFFF000
000BFFF000
000BBFF000
000007F000
000007E000
00000BE000
00000FD000
00000FD000
00000FC000
ENDCHAR
STARTCHAR ncommaaccent
ENCODING 326
SWIDTH 664 0
DWIDTH 21 0
BBX 20 44 1 -20
BITMAP
55AA815555
FFFFC2FFFD
7FFFD1FFF8
3FFFD0FFF4
1FFFE0FFE0
1FFFF0FFD0
1FFFF5FFD0
1FFFF9FFC0
1FFFFEFF80
0FFFFFFF80
0FFFFFFF80
0FFFFFFF40
0BFFFFFF40
0BFFFFFF00
0BFFFFFF00
07FFFFFE00
03FEFFFE00
03FDFFFD00
03FDBFFD00
02FD7FFC00
02FD3FF800
02FD3FF800
01FD2FF400
01FD1FF000
01FD1FE000
00A11AA000
0000049000
0000000000
0000000000
0000000000
0002FAA400
0002FFF800
0002FFF800
0002FFFC00
0002FFFC00
0003FFF800
0003FFF800
0002EFFC00
000002F800
000002F800
000003F400
000003F400
000003F000
000003E000
ENDCHAR
STARTCHAR Ncaron
ENCODING 327
SWIDTH 610 0
DWIDTH 20 0
BBX 18 42 1 -5
BITMAP
01D0002400
0BF000BD00
0BF801FF40
07FD03FE00
03FE0BFD00
01FF5FF800
00FFFFF400
00BFFFE000
003FFFD000
002FFF8000
001FFF4000
0005050000
0000000000
0056194000
BFFF0FFF90
BFFF0BFF80
2FFF4BFF00
1FFF87FD00
0FFFC7FD00
0FFFD7FD00
0FFFE7FD00
0FFFFBFC00
0FFFFFFC00
0BFFFFFC00
0BFFFFF800
0BFFFFF800
07FFFFF400
07FFFFF400
03FFFFF400
02FEFFF000
02FDFFF000
01FDBFF000
01FD7FF000
01FD7FF000
01FD3FF000
01FD2FE000
00FE1FE000
00FE0FA000
00E60F9000
0081054000
0081040000
0082040000
ENDCHAR
STARTCHAR ncaron
ENCODING 328
SWIDTH 664 0
DWIDTH 21 0
BBX 20 40 1 -3
BITMAP
0024000A00
01FD001F80
01FF003FE0
00FF80BFC0
00BFC1FF80
003FE3FF00
002FFBFE00
001FFFFC00
000BFFF800
0007FFF000
0003FFE000
0001414000
0000000000
55AA815555
FFFFC2FFFD
7FFFD1FFF8
3FFFD0FFF4
1FFFE0FFE0
1FFFF0FFD0
1FFFF5FFD0
1FFFF9FFC0
1FFFFEFF80
0FFFFFFF80
0FFFFFFF80
0FFFFFFF40
0BFFFFFF40
0BFFFFFF00
0BFFFFFF00
07FFFFFE00
03FEFFFE00
03FDFFFD00
03FDBFFD00
02FD7FFC00
02FD3FF800
02FD3FF800
01FD2FF400
01FD1FF000
01FD1FE000
00A11AA000
0000049000
ENDCHAR
STARTCHAR Omacron
ENCODING 332
SWIDTH 504 0
DWIDTH 16 0
BBX 15 33 1 -3
BITMAP
05400100
2FFFFF00
2FFFFF00
2FFFFF00
06A69A00
00000000
00154000
02FFF900
0FFFFF40
2FFFFFE0
BFFFFFF0
FFFFFFF0
FFFFFFF0
FFFFFFF4
FFFFFFF0
BFFFFFF0
BFFAFFF4
BFF0FFF4
7FE0BFF4
3FE0BFF4
3FD07FF0
3FE07FF0
3FE07FE0
2FE07FD0
1FF0BFC0
1FF0BFC0
0FF9FF80
0FFFFF40
0BFFFF00
02FFFD00
0075F900
0020D400
00008000
ENDCHAR
STARTCHAR omacron
ENCODING 333
SWIDTH 545 0
DWIDTH 17 0
BBX 16 34 1 -3
BITMAP
05500000
0FFFFF80
0FFFFF80
0FFFFF80
05A9A640
00000000
00000000
001A5400
02FFFF40
0BFFFFE0
2FFFFFF4
7FFFFFFD
FFFFFFFE
FFFFFFFE
FFFFFFFE
FFFFFFFE
BFFFFFFE
BFFEFFFE
7FF87FFE
7FF43FFE
7FF03FFD
3FF03FFD
3FF02FFC
2FF03FF8
2FF03FF4
1FF47FF0
0FF87FE0
0BFCBFD0
0BFFFFD0
07FFFF80
027FFF40
0018BF00
0000A200
00000100
ENDCHAR
STARTCHAR Obreve
ENCODING 334
SWIDTH 504 0
DWIDTH 16 0
BBX 15 38 1 -3
BITMAP
1A900000
1FE00FE0
0FE01FE0
0BF42FD0
07FFFFD0
07FFFF80
017FFF00
0018BA00
00006200
00000100
00000000
00154000
02FFF900
0FFFFF40
2FFFFFE0
BFFFFFF0
FFFFFFF0
FFFFFFF0
FFFFFFF4
FFFFFFF0
BFFFFFF0
BFFAFFF4
BFF0FFF4
7FE0BFF4
3FE0BFF4
3FD07FF0
3FE07FF0
3FE07FE0
2FE07FD0
1FF0BFC0
1FF0BFC0
0FF9FF80
0FFFFF40
0BFFFF00
02FFFD00
0075F900
0020D400
00008000
ENDCHAR
STARTCHAR obreve
ENCODING 335
SWIDTH 545 0
DWIDTH 17 0
BBX 16 38 1 -3
BITMAP
0AA00000
0FF00BE4
0BF00FF0
07F81FE0
07FFFFD0
03FFFFC0
016FFF40
000C7F00
00006200
00000100
00000000
001A5400
02FFFF40
0BFFFFE0
2FFFFFF4
7FFFFFFD
FFFFFFFE
FFFFFFFE
FFFFFFFE
FFFFFFFE
BFFFFFFE
BFFEFFFE
7FF87FFE
7FF43FFE
7FF03FFD
3FF03FFD
3FF02FFC
2FF03FF8
2FF03FF4
1FF47FF0
0FF87FE0
0BFCBFD0
0BFFFFD0
07FFFF80
027FFF40
0018BF00
0000A200
00000100
ENDCHAR
STARTCHAR Ohungarumlaut
ENCODING 336
SWIDTH 504 0
DWIDTH 16 0
BBX 16 39 1 -3
BITMAP
02900A40
03F40FA4
07FD1FFD
0FFD2FF8
1FF43FE0
2FE07F80
3F80BE00
BE01FC00
F802F000
B001D000
00000000
00000000
00154000
02FFF900
0FFFFF40
2FFFFFE0
BFFFFFF0
FFFFFFF0
FFFFFFF0
FFFFFFF4
FFFFFFF0
BFFFFFF0
BFFAFFF4
BFF0FFF4
7FE0BFF4
3FE0BFF4
3FD07FF0
3FE07FF0
3FE07FE0
2FE07FD0
1FF0BFC0
1FF0BFC0
0FF9FF80
0FFFFF40
0BFFFF00
02FFFD00
0075F900
0020D400
00008000
ENDCHAR
STARTCHAR ohungarumlaut
ENCODING 337
SWIDTH 545 0
DWIDTH 17 0
BBX 17 39 1 -3
BITMAP
00E0038000
01F807E900
02FF0BFF40
03FF0FFD00
0BFD1FF400
0FF42FE000
1FD03F8000
3F407E0000
7E00F80000
7800B00000
0000000000
0000000000
001A540000
02FFFF4000
0BFFFFE000
2FFFFFF400
7FFFFFFD00
FFFFFFFE00
FFFFFFFE00
FFFFFFFE00
FFFFFFFE00
BFFFFFFE00
BFFEFFFE00
7FF87FFE00
7FF43FFE00
7FF03FFD00
3FF03FFD00
3FF02FFC00
2FF03FF800
2FF03FF400
1FF47FF000
0FF87FE000
0BFCBFD000
0BFFFFD000
07FFFF8000
027FFF4000
0018BF0000
0000A20000
0000010000
ENDCHAR
STARTCHAR OE
ENCODING 338
SWIDTH 789 0
DWIDTH 25 0
BBX 23 29 1 -5
BITMAP
0015556A5500
02FFFFFFFFF8
0FFFFFFFFFF8
2FFFFFFFFFF4
BFFFFFFFFFE0
FFFFFFFFFFD0
FFFFFFFFFFC0
FFFFFFFFFF80
FFFFFFFFFF40
BFFFFFFFFF40
BFFAFFFABF40
BFF0FFF40600
7FE0BFF40000
7FE0BFFAA400
3FD07FFFF800
3FE07FFFF800
3FE07FFFF400
2FE07FFEA400
2FF0BFF40000
1FF0FFF40000
0FF9FFFFF900
0FFFFFFFFC00
0BFFFFBFF800
02FFFE2FA800
0075F92A1800
0030D4251400
0020C4241000
0020C0242000
000000201000
ENDCHAR
STARTCHAR oe
ENCODING 339
SWIDTH 778 0
DWIDTH 25 0
BBX 23 26 1 -2
BITMAP
005A55555000
02FFFFFFFFE4
0FFFFFFFFFF4
2FFFFFFFFFE0
7FFFFFFFFFD0
FFFFFFFFFF80
FFFFFFFFFF40
FFFFFFFFFF40
BFFFFFFFFF00
BFFFFFFFFF00
7FFEFFFFFF00
7FF4BFF96E00
3FF07FF80100
3FF07FF80000
2FE07FFEA000
2FE03FFFF000
1FF07FFFF000
1FF07FFFF000
0FF0BFFAA000
0FF4BFE00000
0BF8FFE40000
0BFFFFFBF800
07FFFFFFF400
027FFFFFF400
0024FE2FB000
000095002000
ENDCHAR
STARTCHAR Racute
ENCODING 340
SWIDTH 599 0
DWIDTH 19 0
BBX 20 35 1 -2
BITMAP
0000000280
0000001FD0
0000007FD0
000001FFF4
00000BFFFD
00003FFF90
00003F9000
0000140000
0000000000
001AA54000
6FFFFFE400
BFFFFFFE00
3FFFFFFF80
0FFFFFFFD0
0BFFFFFFD0
03FFFFFFD0
03FFFFFFD0
02FFFFFFD0
02FFFFFFD0
02FF82FFD0
02FF80FFC0
02FF81FFC0
01FFC1FF80
00FFEBFF40
00FFFFFF00
00BFFFFF00
007FFFF800
007FDBF800
007FC7FD00
007FC3FD00
003FC7FD00
003FC3FC00
003FD3FE00
002A51FE00
0002109500
ENDCHAR
STARTCHAR racute
ENCODING 341
SWIDTH 616 0
DWIDTH 20 0
BBX 20 36 1 -3
BITMAP
00000001C0
0000000BE0
0000002FE0
000000FFF8
000007FFFE
00001FFF90
00002FA400
0000040000
0000000000
001A954000
ABFFFFF800
BFFFFFFF80
2FFFFFFFE0
0FFFFFFFF0
07FFFFFFF0
03FFFFFFF0
03FFFFFFF0
02FFFFFFE0
02FFFFFFD0
02FFD6FFD0
01FFC0FFC0
01FFC0FFC0
01FFC1FF80
01FFEAFF80
00FFFFFF40
00FFFFFE00
00BFFFFD00
00FFFFF400
00BFCBF400
00BF8BF800
00BFCBF800
00BFC7F800
00BFC7F800
00BE87F800
0054017800
0000000400
ENDCHAR
STARTCHAR Rcommaaccent
ENCODING 342
SWIDTH 599 0
DWIDTH 19 0
BBX 18 42 1 -18
BITMAP
001AA54000
6FFFFFE400
BFFFFFFE00
3FFFFFFF80
0FFFFFFFD0
0BFFFFFFD0
03FFFFFFD0
03FFFFFFD0
02FFFFFFD0
02FFFFFFD0
02FF82FFD0
02FF80FFC0
02FF81FFC0
01FFC1FF80
00FFEBFF40
00FFFFFF00
00BFFFFF00
007FFFF800
007FDBF800
007FC7FD00
007FC3FD00
003FC7FD00
003FC3FC00
003FD3FE00
002A51FE00
0002109500
0000000000
0000000000
000BEA8000
001FFFD000
001FFFD000
001FFFD000
001FFFD000
001FFFD000
001FFFD000
001FFFD000
00000FD000
00000FC000
00001FC000
00002F8000
00002F8000
00002F4000
ENDCHAR
STARTCHAR rcommaaccent
ENCODING 343
SWIDTH 616 0
DWIDTH 20 0
BBX 18 43 1 -19
BITMAP
001A954000
ABFFFFF800
BFFFFFFF80
2FFFFFFFE0
0FFFFFFFF0
07FFFFFFF0
03FFFFFFF0
03FFFFFFF0
02FFFFFFE0
02FFFFFFD0
02FFD6FFD0
01FFC0FFC0
01FFC0FFC0
01FFC1FF80
01FFEAFF80
00FFFFFF40
00FFFFFE00
00BFFFFD00
00FFFFF400
00BFCBF400
00BF8BF800
00BFCBF800
00BFC7F800
00BFC7F800
00BE87F800
0054017800
0000000400
0000000000
0000000000
000BEA9000
000BFFE000
000BFFE000
000BFFE000
000FFFE000
000FFFE000
000FFFE000
000BBFE000
00000BE000
00000BE000
00000FD000
00000FD000
00001FC000
00001F8000
ENDCHAR
STARTCHAR Rcaron
ENCODING 344
SWIDTH 599 0
DWIDTH 19 0
BBX 18 39 1 -2
BITMAP
00A0001D00
02F8003F40
03FD00BFC0
02FF01FF40
01FF43FF00
00BFCBFD00
007FEFFC00
003FFFF400
001FFFF000
000FFFD000
000BFFC000
0001414000
0000000000
001AA54000
6FFFFFE400
BFFFFFFE00
3FFFFFFF80
0FFFFFFFD0
0BFFFFFFD0
03FFFFFFD0
03FFFFFFD0
02FFFFFFD0
02FFFFFFD0
02FF82FFD0
02FF80FFC0
02FF81FFC0
01FFC1FF80
00FFEBFF40
00FFFFFF00
00BFFFFF00
007FFFF800
007FDBF800
007FC7FD00
007FC3FD00
003FC7FD00
003FC3FC00
003FD3FE00
002A51FE00
0002109500
ENDCHAR
STARTCHAR rcaron
ENCODING 345
SWIDTH 616 0
DWIDTH 20 0
BBX 18 40 1 -3
BITMAP
00A0001800
07F8007F00
07FD00FF80
02FE01FF40
01FF43FF00
00FFCBFD00
007FEFF800
003FFFF400
002FFFE000
000FFFD000
000BFF8000
0001454000
0000000000
001A954000
ABFFFFF800
BFFFFFFF80
2FFFFFFFE0
0FFFFFFFF0
07FFFFFFF0
03FFFFFFF0
03FFFFFFF0
02FFFFFFE0
02FFFFFFD0
02FFD6FFD0
01FFC0FFC0
01FFC0FFC0
01FFC1FF80
01FFEAFF80
00FFFFFF40
00FFFFFE00
00BFFFFD00
00FFFFF400
00BFCBF400
00BF8BF800
00BFCBF800
00BFC7F800
00BFC7F800
00BE87F800
0054017800
0000000400
ENDCHAR
STARTCHAR Sacute
ENCODING 346
SWIDTH 504 0
DWIDTH 16 0
BBX 19 36 0 -3
BITMAP
0000000B00
0000002F40
000000BF80
000007FFE0
00001FFFF4
0000BFFE40
0000BE9000
0000500000
0000000000
0001A40000
006FFF4000
02FFFFE000
0BFFFFF800
0FFFFFFE00
1FFFFFFD00
3FFFFFFD00
3FFFFFFD00
3FFFFFFD00
7FFFFFFC00
7FFEBFFC00
3FFD2FFC00
3FFD1AAC00
2FFF900000
1FFFFE0000
0BFFFF8000
01FFFFE000
001BFFF000
00003FF400
0BFD2FF000
0FFD2FF000
0BFFFFE000
07FFFFC000
02FFFF4000
00BAA60000
0004110000
0000100000
ENDCHAR
STARTCHAR sacute
ENCODING 347
SWIDTH 481 0
DWIDTH 15 0
BBX 18 35 1 -2
BITMAP
0000002800
000000FD00
000007FD00
00001FFF40
0000BFFFD0
0003FFF900
0003F90000
0001400000
0000000000
0016900000
02FFFD0000
0BFFFF4000
2FFFFFD000
3FFFFFE000
BFFFFFE000
FFFFFFD000
FFFFFFD000
FFFFFFD000
FFFFFFD000
FFFBFFC000
FFF1FFC000
FFF0FFC000
BFF9018000
7FFFE00000
3FFFF80000
0FFFFD0000
02BFFE0000
0016FF0000
0561FF0000
2FF1FE0000
2FF6FD0000
0FFFFC0000
0BFFF40000
03FFF00000
0194100000
ENDCHAR
STARTCHAR Scircumflex
ENCODING 348
SWIDTH 504 0
DWIDTH 16 0
BBX 16 40 0 -3
BITMAP
00051500
001FFF00
002FFF80
007FFFC0
00BFFFE0
00FFBFF4
02FF1FF8
03FC07FD
07F402FE
0FD000BF
0B40002D
01000000
00000000
0001A400
006FFF40
02FFFFE0
0BFFFFF8
0FFFFFFE
1FFFFFFD
3FFFFFFD
3FFFFFFD
3FFFFFFD
7FFFFFFC
7FFEBFFC
3FFD2FFC
3FFD1AAC
2FFF9000
1FFFFE00
0BFFFF80
01FFFFE0
001BFFF0
00003FF4
0BFD2FF0
0FFD2FF0
0BFFFFE0
07FFFFC0
02FFFF40
00BAA600
00041100
00001000
ENDCHAR
STARTCHAR scircumflex
ENCODING 349
SWIDTH 481 0
DWIDTH 15 0
BBX 15 39 1 -2
BITMAP
00545000
00BFF800
01FFFC00
02FFFE00
03FFFF40
0BFEFF80
0FF4BFD0
1FE03FE0
3F800FF4
7E0007F8
7C0001E0
00000040
00000000
00169000
02FFFD00
0BFFFF40
2FFFFFD0
3FFFFFE0
BFFFFFE0
FFFFFFD0
FFFFFFD0
FFFFFFD0
FFFFFFD0
FFFBFFC0
FFF1FFC0
FFF0FFC0
BFF90180
7FFFE000
3FFFF800
0FFFFD00
02BFFE00
0016FF00
0561FF00
2FF1FE00
2FF6FD00
0FFFFC00
0BFFF400
03FFF000
01941000
ENDCHAR
STARTCHAR Scedilla
ENCODING 350
SWIDTH 504 0
DWIDTH 16 0
BBX 16 35 0 -11
BITMAP
0001A400
006FFF40
02FFFFE0
0BFFFFF8
0FFFFFFE
1FFFFFFD
3FFFFFFD
3FFFFFFD
3FFFFFFD
7FFFFFFC
7FFEBFFC
3FFD2FFC
3FFD1AAC
2FFF9000
1FFFFE00
0BFFFF80
01FFFFE0
001BFFF0
00003FF4
0BFD2FF0
0FFD2FF0
0BFFFFE0
07FFFFC0
02FFFF40
00BAFE00
0005F500
0002F000
0003D000
0007FB40
0003FF80
00000F40
00000F40
0001AF40
0007FF40
00015A40
ENDCHAR
STARTCHAR scedilla
ENCODING 351
SWIDTH 481 0
DWIDTH 15 0
BBX 14 36 1 -12
BITMAP
00169000
02FFFD00
0BFFFF40
2FFFFFD0
3FFFFFE0
BFFFFFE0
FFFFFFD0
FFFFFFD0
FFFFFFD0
FFFFFFD0
FFFBFFC0
FFF1FFC0
FFF0FFC0
BFF90180
7FFFE000
3FFFF800
0FFFFD00
02BFFE00
0016FF00
0561FF00
2FF1FE00
2FF6FD00
0FFFFC00
0BFFF400
03FFF000
01AF5000
002F0000
002E0000
003C0000
007FB400
007FF400
0001F400
0001F400
001AF400
007FF400
0015A000
ENDCHAR
STARTCHAR Scaron
ENCODING 352
SWIDTH 503 0
DWIDTH 16 0
BBX 16 44 0 -3
BITMAP
01000040
0B8001F0
2FD003FC
1FF00BFD
0FF80FF8
07FD2FF4
03FE7FE0
02FFFFD0
00FFFF80
00BFFF40
007FFE00
002ABD00
00000000
00000000
00000000
00000000
00000000
0001A400
006FFF40
02FFFFE0
0BFFFFF8
0FFFFFFD
1FFFFFFD
3FFFFFFD
3FFFFFFD
3FFFFFFD
7FFFFFFC
7FFEBFFC
3FFD2FFC
3FFD1AAC
2FFF9000
1FFFFE00
0BFFFF80
01FFFFE0
001BFFF0
00003FF4
0BFD2FF0
0FFD2FF0
0BFFFFD0
07FFFFC0
02FFFF40
00BAA600
00041100
00001000
ENDCHAR
STARTCHAR scaron
ENCODING 353
SWIDTH 479 0
DWIDTH 15 0
BBX 14 42 1 -2
BITMAP
2C000740
FE000FD0
FF802FF0
7FC07FE0
3FE0FFC0
2FF6FF40
0FFFFF00
0BFFFD00
07FFFC00
02FFF400
01FFF000
00005000
00000000
00000000
00000000
00000000
00169000
02FFF800
0BFFFF40
2FFFFFD0
3FFFFFE0
BFFFFFE0
FFFFFFD0
FFFFFFD0
FFFFFFD0
FFFFFFC0
FFFBFFC0
FFF1FFC0
FFF0FFC0
BFF90180
7FFFE000
3FFFF800
0FFFFD00
02BFFE00
0016FE00
0551FF00
2FF1FE00
2FF6FD00
0FFFFC00
0BFFF400
03FFF000
01940000
ENDCHAR
STARTCHAR Tcommaaccent
ENCODING 354
SWIDTH 622 0
DWIDTH 20 0
BBX 18 37 1 -13
BITMAP
0055554000
AFFFFFFE50
7FFFFFFFE0
2FFFFFFFC0
1FFFFFFF40
0FFFFFFF40
0FFFFFFF40
0BFFFFFF40
0BFFFFFF40
0BFFFFFF00
0BFFFFFF00
0BEBFF6A00
0003FF0100
0003FF0000
0003FF0000
0003FF0000
0003FE0000
0003FF0000
0003FE0000
0003FE0000
0003FE0000
0002FE0000
0002FE0000
0002FE0000
0002FE0000
0002FA0000
0002FD0000
0001B80000
0000F40000
0001F00000
0002FEC000
0001FFC000
000007C000
000007C000
0001AFC000
0002FFC000
00015A8000
ENDCHAR
STARTCHAR tcommaaccent
ENCODING 355
SWIDTH 683 0
DWIDTH 22 0
BBX 20 37 1 -13
BITMAP
006AAAA940
6FFFFFFFF9
BFFFFFFFFD
3FFFFFFFF8
2FFFFFFFF4
1FFFFFFFE0
0FFFFFFFE0
0BFFFFFFE0
07FFFFFFE0
07FFFFFFE0
03FFFFFFD0
03EAFFD690
0101FFD000
0000FFD000
0000FFD000
0000FFD000
0000FFD000
0000FFD000
0000BFD000
0000BFD000
0000BFD000
00007FD000
00007FD000
00007FC000
00007FC000
00007FC000
00003FC000
00001F4000
00002E0000
00003D0000
00007FB400
00007FF400
000001F400
000000F400
00001AF400
00007FF400
000015A000
ENDCHAR
STARTCHAR Tcaron
ENCODING 356
SWIDTH 622 0
DWIDTH 20 0
BBX 18 41 1 -4
BITMAP
01C0003400
0BF000BD00
0BF801FF00
07FD03FE00
03FE0BFD00
01FF5FF800
00FFFFF400
00BFFFE000
003FFFD000
002FFF8000
001FFF0000
0005050000
0000000000
0055554000
AFFFFFFE50
7FFFFFFFE0
2FFFFFFFC0
1FFFFFFF40
0FFFFFFF40
0FFFFFFF40
0BFFFFFF40
0BFFFFFF40
0BFFFFFF00
0BFFFFFF00
0BEBFF6A00
0003FF0100
0003FF0000
0003FF0000
0003FF0000
0003FE0000
0003FF0000
0003FE0000
0003FE0000
0003FE0000
0002FE0000
0002FE0000
0002FE0000
0002FE0000
0002FA0000
0002A50000
0001000000
ENDCHAR
STARTCHAR tcaron
ENCODING 357
SWIDTH 622 0
DWIDTH 20 0
BBX 18 41 1 -4
BITMAP
00A0001C00
07F8003F00
03FD00BF80
02FF01FF40
01FF43FF00
00BFCBFD00
007FEFFC00
003FFFF400
001FFFF000
000FFFD000
000BFF8000
0001454000
0000000000
0055554000
AFFFFFFE50
7FFFFFFFE0
2FFFFFFFC0
1FFFFFFF40
0FFFFFFF40
0FFFFFFF40
0BFFFFFF40
0BFFFFFF40
0BFFFFFF00
0BFFFFFF00
0BEBFF6A00
0003FF0100
0003FF0000
0003FF0000
0003FF0000
0003FE0000
0003FF0000
0003FE0000
0003FE0000
0003FE0000
0002FE0000
0002FE0000
0002FE0000
0002FE0000
0002FA0000
0002A50000
0001000000
ENDCHAR
STARTCHAR Utilde
ENCODING 360
SWIDTH 637 0
DWIDTH 20 0
BBX 20 35 0 -2
BITMAP
0000009000
00B402F800
07FD2FFE00
07FFFFFF80
02FFFFFFC0
00FFFFFF40
003FE02D00
0005000000
0000000000
016A805000
6FFFC0FFE4
0FFFC0FFFD
07FFC1FFF4
07FF81FFF0
07FF81FFE0
03FFC1FFD0
03FFD1FFD0
02FFD1FFC0
02FFD1FF80
02FFC1FF80
01FFC1FF40
01FF82FF00
01FF82FF00
01FF82FF00
01FFC2FF00
00FFC3FE00
00FFC3FE00
00FFD3FE00
00BFD7FD00
007FFFFD00
007FFFFC00
003FDFF400
000F899000
0005048000
0000014000
ENDCHAR
STARTCHAR utilde
ENCODING 361
SWIDTH 708 0
DWIDTH 23 0
BBX 22 33 1 0
BITMAP
000000500000
00B402FD0000
02FD2FFF0000
07FFFFFF8000
02FFFFFFC000
00BFFFFF4000
002FE42D0000
000500000000
000000000000
005A80000000
AFFFD07FA400
3FFFC07FFF90
1FFFC0BFFF80
1FFFC0BFFE00
0FFFC0BFFE00
0BFFD07FFD00
07FFD07FF800
07FFE0BFF400
03FFE0BFF400
03FFE0BFF000
02FFE0BFE000
02FFD0BFE000
02FFD0FFE000
01FFD0FFD000
01FFD0FFD000
01FFE0FFD000
00FFE0FFC000
00BFE1FF8000
007FF2FF8000
003FFFFF4000
003FFFFF4000
002FEBFE0000
000292A90000
ENDCHAR
STARTCHAR Umacron
ENCODING 362
SWIDTH 637 0
DWIDTH 20 0
BBX 20 33 0 -2
BITMAP
0015000000
003FFFFE00
007FFFFE00
007FFFFD00
0016A65900
0000000000
0000000000
016A805000
6FFFC0FFE4
0FFFC0FFFD
07FFC1FFF4
07FF81FFF0
07FF81FFE0
03FFC1FFD0
03FFD1FFD0
02FFD1FFC0
02FFD1FF80
02FFC1FF80
01FFC1FF40
01FF82FF00
01FF82FF00
01FF82FF00
01FFC2FF00
00FFC3FE00
00FFC3FE00
00FFD3FE00
00BFD7FD00
007FFFFD00
007FFFFC00
003FDFF400
000F899000
0005048000
0000014000
ENDCHAR
STARTCHAR umacron
ENCODING 363
SWIDTH 708 0
DWIDTH 23 0
BBX 22 31 1 0
BITMAP
001540000000
003FFFFE0000
003FFFFE0000
003FFFFE0000
0016A6990000
000000000000
000000000000
005A80000000
AFFFD07FA400
3FFFC07FFF90
1FFFC0BFFF80
1FFFC0BFFE00
0FFFC0BFFE00
0BFFD07FFD00
07FFD07FF800
07FFE0BFF400
03FFE0BFF400
03FFE0BFF000
02FFE0BFE000
02FFD0BFE000
02FFD0FFE000
01FFD0FFD000
01FFD0FFD000
01FFE0FFD000
00FFE0FFC000
00BFE1FF8000
007FF2FF8000
003FFFFF4000
003FFFFF4000
002FEBFE0000
000292A90000
ENDCHAR
STARTCHAR Ubreve
ENCODING 364
SWIDTH 637 0
DWIDTH 20 0
BBX 20 37 0 -2
BITMAP
002A800000
002FC02F90
001FC03FC0
001FE07F80
000FFFFF80
000BFFFF00
0005BFFD00
000031FC00
000000C800
0000000400
0000000000
016A805000
6FFFC0FFE4
0FFFC0FFFD
07FFC1FFF4
07FF81FFF0
07FF81FFE0
03FFC1FFD0
03FFD1FFD0
02FFD1FFC0
02FFD1FF80
02FFC1FF80
01FFC1FF40
01FF82FF00
01FF82FF00
01FF82FF00
01FFC2FF00
00FFC3FE00
00FFC3FE00
00FFD3FE00
00BFD7FD00
007FFFFD00
007FFFFC00
003FDFF400
000F899000
0005048000
0000014000
ENDCHAR
STARTCHAR ubreve
ENCODING 365
SWIDTH 708 0
DWIDTH 23 0
BBX 22 35 1 0
BITMAP
001A90000000
001FD01FD000
000FD02FD000
000FF43FC000
000BFFFFC000
0007FFFF4000
00017FFE0000
000024F90000
000000950000
000000000000
000000000000
005A80000000
AFFFD07FA400
3FFFC07FFF90
1FFFC0BFFF80
1FFFC0BFFE00
0FFFC0BFFE00
0BFFD07FFD00
07FFD07FF800
07FFE0BFF400
03FFE0BFF400
03FFE0BFF000
02FFE0BFE000
02FFD0BFE000
02FFD0FFE000
01FFD0FFD000
01FFD0FFD000
01FFE0FFD000
00FFE0FFC000
00BFE1FF8000
007FF2FF8000
003FFFFF4000
003FFFFF4000
002FEBFE0000
000292A90000
ENDCHAR
STARTCHAR Uring
ENCODING 366
SWIDTH 637 0
DWIDTH 20 0
BBX 20 38 0 -2
BITMAP
0000150000
0001FFD000
0007FFF400
000BE6F800
000B80B800
0007807800
0003D0B400
0003FFE000
0002BFC000
00001A0000
0000000000
0000000000
016A805000
6FFFC0FFE4
0FFFC0FFFD
07FFC1FFF4
07FF81FFF0
07FF81FFE0
03FFC1FFD0
03FFD1FFD0
02FFD1FFC0
02FFD1FF80
02FFC1FF80
01FFC1FF40
01FF82FF00
01FF82FF00
01FF82FF00
01FFC2FF00
00FFC3FE00
00FFC3FE00
00FFD3FE00
00BFD7FD00
007FFFFD00
007FFFFC00
003FDFF400
000F899000
0005048000
0000014000
ENDCHAR
STARTCHAR uring
ENCODING 367
SWIDTH 708 0
DWIDTH 23 0
BBX 22 36 1 0
BITMAP
000005400000
0000BFE00000
0002FFF80000
0003E5FD0000
0003D03D0000
0003D03D0000
0002E0780000
0001FFF40000
0001BFE00000
00000A400000
000000000000
000000000000
005A80000000
AFFFD07FA400
3FFFC07FFF90
1FFFC0BFFF80
1FFFC0BFFE00
0FFFC0BFFE00
0BFFD07FFD00
07FFD07FF800
07FFE0BFF400
03FFE0BFF400
03FFE0BFF000
02FFE0BFE000
02FFD0BFE000
02FFD0FFE000
01FFD0FFD000
01FFD0FFD000
01FFE0FFD000
00FFE0FFC000
00BFE1FF8000
007FF2FF8000
003FFFFF4000
003FFFFF4000
002FEBFE0000
000292A90000
ENDCHAR
STARTCHAR Uhungarumlaut
ENCODING 368
SWIDTH 637 0
DWIDTH 20 0
BBX 20 38 0 -2
BITMAP
0003800E00
000BE01F90
000FF82FFC
001FF83FF4
002FF0BFD0
003FC0FF40
00BF41FD00
00FD02F400
02F403E000
01D0038000
0040000000
0000000000
016A805000
6FFFC0FFE4
0FFFC0FFFD
07FFC1FFF4
07FF81FFF0
07FF81FFE0
03FFC1FFD0
03FFD1FFD0
02FFD1FFC0
02FFD1FF80
02FFC1FF80
01FFC1FF40
01FF82FF00
01FF82FF00
01FF82FF00
01FFC2FF00
00FFC3FE00
00FFC3FE00
00FFD3FE00
00BFD7FD00
007FFFFD00
007FFFFC00
003FDFF400
000F899000
0005048000
0000014000
ENDCHAR
STARTCHAR uhungarumlaut
ENCODING 369
SWIDTH 708 0
DWIDTH 23 0
BBX 22 36 1 0
BITMAP
0003800E0000
0007E01FA400
000BFC2FFC00
001FFC3FF400
002FF07FD000
003FD0BF4000
007F40FE0000
00FD02F80000
01F403E00000
01E002800000
004000000000
000000000000
005A80000000
AFFFD07FA400
3FFFC07FFF90
1FFFC0BFFF80
1FFFC0BFFE00
0FFFC0BFFE00
0BFFD07FFD00
07FFD07FF800
07FFE0BFF400
03FFE0BFF400
03FFE0BFF000
02FFE0BFE000
02FFD0BFE000
02FFD0FFE000
01FFD0FFD000
01FFD0FFD000
01FFE0FFD000
00FFE0FFC000
00BFE1FF8000
007FF2FF8000
003FFFFF4000
003FFFFF4000
002FEBFE0000
000292A90000
ENDCHAR
STARTCHAR Uogonek
ENCODING 370
SWIDTH 637 0
DWIDTH 20 0
BBX 20 35 0 -11
BITMAP
016A805000
6FFFC0FFE4
0FFFC0FFFD
07FFC1FFF4
07FF81FFF0
07FF81FFE0
03FFC1FFD0
03FFD1FFD0
02FFD1FFC0
02FFD1FF80
02FFC1FF80
01FFC1FF40
01FF82FF00
01FF82FF00
01FF82FF00
01FFC2FF00
00FFC3FE00
00FFC3FE00
00FFD3FE00
00BFD7FD00
007FFFFD00
007FFFFC00
003FDFF400
000F8FD000
00051FC000
00001FC000
00002F8000
00002F4000
00002F8000
00002FD000
00001FFFE0
00000FFFE0
000007FFD0
000001BFD0
0000000100
ENDCHAR
STARTCHAR uogonek
ENCODING 371
SWIDTH 662 0
DWIDTH 21 0
BBX 23 33 0 -9
BITMAP
0016A0000000
6BFFF02FE900
0FFFF02FFFE4
07FFF02FFFE0
07FFF03FFF80
03FFF02FFF40
02FFF42FFF00
02FFF42FFE00
01FFF42FFD00
01FFF42FFC00
00FFF42FF800
00FFF42FF800
00BFF02FF800
00BFF03FF400
00BFF07FF400
00BFF43FF400
007FF43FF400
003FF87FF000
002FF87FE000
001FF8BFE000
001FFFFFD000
000FFFFFC000
000BFFFF8000
0000BFEA4000
00003F400000
00003F000000
00007F000000
00007F400000
00007F800000
00003FFFC000
00002FFFC000
00000BFFC000
000001BF8000
ENDCHAR
STARTCHAR Wcircumflex
ENCODING 372
SWIDTH 777 0
DWIDTH 25 0
BBX 25 39 0 -1
BITMAP
00001414000000
00003FFD000000
0000BFFF000000
0000FFFF400000
0001FFFFC00000
0003FFBFD00000
0007FD3FF00000
000BF41FF40000
001FE007FC0000
002F8001FD0000
001E0000B80000
00040000100000
00000000000000
00000000000000
000002F0254000
01AF83F42FF900
6FFF83F43FFF80
1FFFC7F87FF800
02FFCBFCBFF000
01FFCBFCFFD000
00BFDFFEFF8000
007FDFFFFF0000
003FEFFFFE0000
003FFFFFFD0000
002FFFFFFC0000
000FFFFFF80000
000BFFFFF80000
0007FFFFF80000
0003FFFFF40000
0002FFFFF00000
0001FFBFF00000
0001FF7FE00000
0000FF7FE00000
0000BF3FD00000
0000BE3F800000
00007E2F400000
00003E2F400000
0000162B000000
00000100000000
ENDCHAR
STARTCHAR wcircumflex
ENCODING 373
SWIDTH 704 0
DWIDTH 23 0
BBX 23 37 0 0
BITMAP
000054500000
0000FFF80000
0001FFFC0000
0003FFFE0000
0007FFFF0000
000BFEFF8000
001FF4FFC000
002FD03FE000
003F801FF000
00BE0007F400
00780001E000
000000004000
000000000000
000006410000
1AFE0BC1FA40
7FFF0FC1FFE4
0BFF1FD2FF80
02FF5FE2FF40
01FF6FF3FF00
00BFAFF7FD00
00BFEFFFFC00
007FEFFFF800
007FFFFFF400
003FFFFFF000
001FFFFFE000
000FFFFFE000
000BFFFFE000
0007FFFFD000
0007FFFFD000
0003FFBFD000
0002FF7FD000
0001FE7FD000
0000FE7FC000
0000FE3F8000
0000BD3F8000
00007D3F8000
0000142B4000
ENDCHAR
STARTCHAR Ycircumflex
ENCODING 374
SWIDTH 688 0
DWIDTH 22 0
BBX 23 38 0 -1
BITMAP
000051500000
0001FFF40000
0002FFF80000
0003FFFD0000
000BFFFE0000
000FFFFF4000
001FF1FF8000
003FD07FD000
007F401FF000
00BD000BF400
00B80002D000
001000004000
000000000000
015A80090000
6FFFE01FE900
0BFFF02FFFE4
00BFF82FFF80
002FFC7FFD00
000FFEBFF400
0007FFFFE000
0001FFFF8000
0000FFFF4000
0000BFFF0000
00003FFF0000
00003FFF0000
00001FFE0000
00000FFE0000
00000BFE0000
000007FE0000
000007FD0000
000003FD0000
000003FD0000
000002FD0000
000002FD0000
000002FD0000
000002FC0000
000002FC0000
000001E40000
ENDCHAR
STARTCHAR ycircumflex
ENCODING 375
SWIDTH 604 0
DWIDTH 19 0
BBX 18 39 1 -2
BITMAP
0015140000
002FFE0000
007FFF4000
00BFFF8000
00FFFFD000
02FFBFE000
03FD2FF400
07F80FF800
0FE003FD00
1F8001FE00
1F00007800
0000001000
0000000000
0554020000
BFFD07E900
2FFE0BFFD0
07FF0FFF00
00FF5FFC00
00BFAFF400
007FFFE000
001FFFC000
001FFF8000
000FFF4000
000FFF4000
000BFF4000
0007FF4000
0007FF0000
0003FF0000
0002FF0000
0002FF0000
0002FE0000
0002FE0000
0002FE0000
0002FE0000
0002FE0000
0002FD0000
0002FD0000
0001FD0000
0001800000
ENDCHAR
STARTCHAR Ydieresis
ENCODING 376
SWIDTH 688 0
DWIDTH 22 0
BBX 23 35 0 -1
BITMAP
000000015400
01FEE07FFC00
01FFF07FFC00
01FFF07FFC00
01FFF07FFC00
01FFF07FFD00
01FFE07FFD00
01FFE07FFC00
005550040000
000000000000
015A80090000
6FFFE01FE900
0BFFF02FFFE4
00BFF82FFF80
002FFC7FFD00
000FFEBFF400
0007FFFFE000
0001FFFF8000
0000FFFF4000
0000BFFF0000
00003FFF0000
00003FFF0000
00001FFE0000
00000FFE0000
00000BFE0000
000007FE0000
000007FD0000
000003FD0000
000003FD0000
000002FD0000
000002FD0000
000002FD0000
000002FC0000
000002FC0000
000001E40000
ENDCHAR
STARTCHAR Zacute
ENCODING 377
SWIDTH 695 0
DWIDTH 22 0
BBX 22 34 1 -1
BITMAP
000000002C00
00000000BD00
00000002FE00
0000001FFF80
0000007FFFE0
000002FFF900
000002FA4000
000001400000
000000000000
016AAA940000
6FFFFFFFE400
BFFFFFFFFF80
7FFFFFFFFF00
2FFFFFFFFD00
1FFFFFFFF800
0BFFFFFFF400
07FFFFFFF000
03FFFFFFD000
03FFFFFFC000
03FFFFFF4000
02E43FFE0000
0140BFF40000
0001FFD00000
0002FF800000
0003FF000000
0007FD000000
0007F8000000
000FF0000000
001FE5400000
003FFFF40000
007FFFF00000
00BFFFE00000
007AFFD00000
001446800000
ENDCHAR
STARTCHAR zacute
ENCODING 378
SWIDTH 622 0
DWIDTH 20 0
BBX 20 35 1 -2
BITMAP
00000001D0
0000000BE0
0000002FF0
000000BFF8
000007FFFE
00001FFF90
00001FA400
0000050000
0000000000
01AAAA9400
AFFFFFFF90
BFFFFFFFE0
3FFFFFFFD0
2FFFFFFF80
0FFFFFFF00
0BFFFFFE00
07FFFFFE00
03FFFFFE00
03FFFFFD00
02FFFFF800
02E4BFF000
0180FFC000
0001FF4000
0002FE0000
0003FD0000
0007F80000
0007F40000
000BF00000
000FE00000
001FFFE000
002FFFE000
003FFFD000
003FFFD000
0028AAD000
0000008000
ENDCHAR
STARTCHAR Zdotaccent
ENCODING 379
SWIDTH 695 0
DWIDTH 22 0
BBX 21 37 1 -1
BITMAP
0006BFF80000
000BFFF80000
0007FFF80000
0007FFF80000
0007FFFC0000
0007FFF80000
0003FFF80000
0003FFF80000
0003FFF80000
000294500000
000000000000
000000000000
016AAA940000
6FFFFFFFE400
BFFFFFFFFF80
7FFFFFFFFF00
2FFFFFFFFD00
1FFFFFFFF800
0BFFFFFFF400
07FFFFFFF000
03FFFFFFD000
03FFFFFFC000
03FFFFFF4000
02E43FFE0000
0140BFF40000
0001FFD00000
0002FF800000
0003FF000000
0007FD000000
0007F8000000
000FF0000000
001FE5400000
003FFFF40000
007FFFF00000
00BFFFE00000
007AFFD00000
001446800000
ENDCHAR
STARTCHAR zdotaccent
ENCODING 380
SWIDTH 622 0
DWIDTH 20 0
BBX 18 38 1 -2
BITMAP
006AFF8000
007FFFC000
007FFFC000
003FFF8000
003FFFC000
003FFFC000
003FFFC000
003FFFC000
002FFFC000
002A414000
0000000000
0000000000
01AAAA9400
AFFFFFFF90
BFFFFFFFE0
3FFFFFFFD0
2FFFFFFF80
0FFFFFFF00
0BFFFFFE00
07FFFFFE00
03FFFFFE00
03FFFFFD00
02FFFFF800
02E4BFF000
0180FFC000
0001FF4000
0002FE0000
0003FD0000
0007F80000
0007F40000
000BF00000
000FE00000
001FFFE000
002FFFE000
003FFFD000
003FFFD000
0028AAD000
0000008000
ENDCHAR
STARTCHAR Zcaron
ENCODING 381
SWIDTH 693 0
DWIDTH 22 0
BBX 21 42 1 -1
BITMAP
000400000000
007C000F0000
00FE002FC000
00BF407FD000
007FC0BF8000
003FD1FF4000
002FF7FE0000
000FFFFD0000
000BFFFC0000
0007FFF40000
0003FFF00000
0001EAD00000
000000000000
000000000000
000000000000
000000000000
000000000000
016AAA940000
6FFFFFFFE400
BFFFFFFFFF80
7FFFFFFFFE00
2FFFFFFFFD00
1FFFFFFFF800
0BFFFFFFF400
07FFFFFFF000
07FFFFFFD000
03FFFFFFC000
03FFFFFF4000
02E43FFE0000
0140BFF40000
0001FFD00000
0002FF800000
0003FF000000
0007FD000000
0007F8000000
000FF0000000
001FE5400000
003FFFF40000
007FFFF00000
00BFFFE00000
007AFFD00000
001046800000
ENDCHAR
STARTCHAR zcaron
ENCODING 382
SWIDTH 621 0
DWIDTH 20 0
BBX 18 43 1 -2
BITMAP
0040001000
06E000B800
0BF401FE00
07FC03FE00
03FD07FD00
02FF0FF800
00FFAFF400
00BFFFE000
007FFFD000
003FFF8000
001FFF4000
000AAA0000
0000000000
0000000000
0000000000
0000000000
0000000000
01AAAA9400
AFFFFFFF90
BFFFFFFFE0
7FFFFFFFD0
2FFFFFFF80
0FFFFFFF00
0BFFFFFE00
07FFFFFE00
03FFFFFE00
03FFFFFD00
02FFFFF800
02E4BFE000
0180FFC000
0001FF4000
0002FE0000
0003FD0000
0007F80000
0007F40000
000BF00000
000FE00000
001FFFE000
002FFFE000
003FFFD000
003FFFD000
0028AAD000
0000008000
ENDCHAR
STARTCHAR DZ
ENCODING 497
SWIDTH 194 0
DWIDTH 6 0
BBX 1 1 0 0
BITMAP
00
ENDCHAR
STARTCHAR Dz
ENCODING 498
SWIDTH 194 0
DWIDTH 6 0
BBX 1 1 0 0
BITMAP
00
ENDCHAR
STARTCHAR dotlessj
ENCODING 567
SWIDTH 458 0
DWIDTH 15 0
BBX 15 25 -1 -1
BITMAP
001A9400
002FFFE4
001FFFF4
000FFFE0
000BFFE0
0007FFD0
0003FFC0
0003FF80
0003FFC0
0003FFC0
0003FF80
0003FF80
0003FF80
0003FF80
0002FF40
0042FF40
1AC2FF40
BFC2FF40
7FD2FF00
3FE2FF00
2FFBFE00
2FFFFD00
0FFFFC00
06FFFC00
0016D800
ENDCHAR
STARTCHAR circumflex
ENCODING 710
SWIDTH 528 0
DWIDTH 17 0
BBX 15 12 1 22
BITMAP
00545000
00FFF800
01FFFC00
02FFFE00
07FFFF00
0BFEFF80
0FF4BFD0
2FE03FE0
3F801FF4
7E0007F8
7C0001E0
00000040
ENDCHAR
STARTCHAR caron
ENCODING 711
SWIDTH 486 0
DWIDTH 16 0
BBX 15 12 0 22
BITMAP
0A0001C0
7F8003F4
3FD00BFC
2FF01FF4
1FF43FF0
0BFCBFD0
07FEFFC0
03FFFF40
01FFFF00
00FFFD00
00BFFC00
00145400
ENDCHAR
STARTCHAR breve
ENCODING 728
SWIDTH 464 0
DWIDTH 15 0
BBX 13 9 1 -2
BITMAP
AA400000
7F407F40
7F40BF40
3FD0FF00
2FFFFE00
1FFFFD00
05FFF800
0093E400
00025400
ENDCHAR
STARTCHAR dotaccent
ENCODING 729
SWIDTH 388 0
DWIDTH 12 0
BBX 10 10 1 7
BITMAP
6AFFD0
3FFFD0
3FFFD0
2FFFD0
2FFFD0
2FFFD0
1FFFD0
1FFFD0
1FFFD0
1A5140
ENDCHAR
STARTCHAR ring
ENCODING 730
SWIDTH 370 0
DWIDTH 12 0
BBX 9 10 1 9
BITMAP
005000
0BFE00
3FFF80
7E6FC0
7C07C0
3C07C0
2D0B40
2FFF00
1BFD00
01A400
ENDCHAR
STARTCHAR ogonek
ENCODING 731
SWIDTH 360 0
DWIDTH 12 0
BBX 9 11 1 0
BITMAP
1F8000
2F4000
3F4000
3F0000
7F0000
7F4000
3FC000
3FFFC0
2FFFC0
0BFFC0
01BF80
ENDCHAR
STARTCHAR tilde
ENCODING 732
SWIDTH 535 0
DWIDTH 17 0
BBX 15 8 1 -3
BITMAP
00000900
0B406F80
7FC2FFE0
BFFFFFF4
3FFFFFF8
1FFFFFF0
07FE0680
00500000
ENDCHAR
STARTCHAR hungarumlaut
ENCODING 733
SWIDTH 554 0
DWIDTH 18 0
BBX 16 11 1 22
BITMAP
00E00380
02F807E4
03FE0BFF
07FE1FFD
0BFC2FF4
1FF03FD0
2FD07F40
3F40BD00
BD00F400
7400E000
10000000
ENDCHAR
STARTCHAR dotaccentcmb
ENCODING 775
SWIDTH 396 0
DWIDTH 13 0
BBX 9 10 2 12
BITMAP
6AFE40
FFFF40
BFFF40
BFFF40
BFFF80
7FFF80
7FFF80
7FFF40
7FFF40
6A5500
ENDCHAR
STARTCHAR uni030F
ENCODING 783
SWIDTH 549 0
DWIDTH 18 0
BBX 17 10 0 23
BITMAP
00A0028000
1AF01FC000
7FF47FE000
2FF87FF000
0BFC1FF400
02FE07F800
00BF02FD00
002F40BE00
000B802F40
0003800B00
ENDCHAR
STARTCHAR uni0311
ENCODING 785
SWIDTH 490 0
DWIDTH 16 0
BBX 13 8 1 12
BITMAP
006A9000
07FFF800
0FFFFD00
1FFFFF00
2FE5FF40
2FC07F80
3F803F80
7F802A80
ENDCHAR
STARTCHAR uni0326
ENCODING 806
SWIDTH 360 0
DWIDTH 12 0
BBX 8 14 2 -3
BITMAP
BEA9
BFFE
BFFE
BFFE
FFFE
FFFE
FFFE
BBFE
00BE
00BE
00FD
00FD
01FC
01F8
ENDCHAR
STARTCHAR endash
ENCODING 8211
SWIDTH 478 0
DWIDTH 15 0
BBX 13 7 1 9
BITMAP
15555540
3FFFFF40
3FFFFF00
3FFFFE00
7FFFFE00
7FFFFE00
16A69900
ENDCHAR
STARTCHAR emdash
ENCODING 8212
SWIDTH 567 0
DWIDTH 18 0
BBX 16 7 1 9
BITMAP
15515554
3FFFFFFD
3FFFFFFC
3FFFFFF8
7FFFFFF8
7FFFFFF8
16A4AA64
ENDCHAR
STARTCHAR quoteleft
ENCODING 8216
SWIDTH 373 0
DWIDTH 12 0
BBX 10 16 1 8
BITMAP
054000
1FC000
1FC000
2F8000
2F8000
3F4000
3F9540
3FFFD0
3FFFD0
3FFFD0
3FFFD0
7FFFC0
3FFFC0
3FFFC0
3FFFC0
2EBFC0
ENDCHAR
STARTCHAR quoteright
ENCODING 8217
SWIDTH 369 0
DWIDTH 12 0
BBX 9 16 1 8
BITMAP
154100
7FFF80
7FFF80
7FFF80
7FFFC0
7FFFC0
7FFF80
BFFF80
BFFF80
7FFF80
002F80
002F80
003F40
003F40
007F00
007F00
ENDCHAR
STARTCHAR quotesinglbase
ENCODING 8218
SWIDTH 369 0
DWIDTH 12 0
BBX 9 16 1 8
BITMAP
154100
7FFF80
7FFF80
7FFF80
7FFFC0
7FFFC0
7FFF80
BFFF80
BFFF80
7FFF80
002F80
002F80
003F40
003F40
007F00
007F00
ENDCHAR
STARTCHAR quotedblleft
ENCODING 8220
SWIDTH 687 0
DWIDTH 22 0
BBX 19 16 2 8
BITMAP
1500015000
7F0007F000
7F0007F000
BE000BE000
BE000BE000
FD000FD000
FE550FE550
FFFF4FFFF4
FFFF4FFFF4
FFFF4FFFF4
FFFF4FFFF4
FFFF0FFFF4
FFFF0FFFF0
FFFF0FFFF0
FFFF0FFFF0
BAFF0BAFF0
ENDCHAR
STARTCHAR quotedblright
ENCODING 8221
SWIDTH 677 0
DWIDTH 22 0
BBX 19 16 1 8
BITMAP
1555015410
7FFF43FFF8
7FFF43FFF8
7FFF43FFF8
7FFF43FFF8
7FFF43FFF8
BFFF47FFF8
BFFF47FFF8
BFFF47FFF8
BFFF43FFF8
002F4002F8
002F0002F4
003F0003F4
003E0007F0
007E0007F0
007E0007E0
ENDCHAR
STARTCHAR quotedblbase
ENCODING 8222
SWIDTH 697 0
DWIDTH 22 0
BBX 20 16 1 -10
BITMAP
6EA641BA69
7FFF81FFFE
7FFF82FFFE
7FFFC2FFFE
7FFFC2FFFE
7FFFC2FFFE
7FFFC2FFFE
7FFF82FFFE
BFFF82FFFE
25BF819AFE
002F8000BD
002F8000FD
003F4000FD
003F4001FC
003F0001FC
002A0001A4
ENDCHAR
STARTCHAR ellipsis
ENCODING 8230
SWIDTH 1462 0
DWIDTH 47 0
BBX 45 11 1 1
BITMAP
001400000005400000005000
6FFF800006FFF40000BFFF00
3FFF800007FFF40000BFFF00
3FFF800003FFF00000BFFF00
3FFF800003FFF00000BFFF00
2FFFC00003FFF400007FFF40
2FFF800003FFF400007FFF40
2FFF800003FFF400007FFF00
2FFF800002FFF400007FFF00
1FFF800002FFF000007FFF00
154100000150000000250400
ENDCHAR
STARTCHAR guilsinglleft
ENCODING 8249
SWIDTH 459 0
DWIDTH 15 0
BBX 13 18 1 2
BITMAP
00AAA540
00FFFF40
00FFFD00
02FFF400
03FFE000
0BFFC000
2FFF8000
BFFE0000
FFFC0000
BFFD0000
3FFF0000
2FFF4000
0BFF8000
03FFE000
01FFF800
007FFE00
001FFF80
00056A40
ENDCHAR
STARTCHAR guilsinglright
ENCODING 8250
SWIDTH 432 0
DWIDTH 14 0
BBX 12 18 1 2
BITMAP
AAA900
BFFF00
3FFF00
1FFF40
07FFD0
02FFE0
00FFF8
007FFD
002FFE
007FFD
007FFC
00FFF8
02FFE0
0BFFC0
2FFF40
BFFE00
BFFC00
555000
ENDCHAR
STARTCHAR fraction
ENCODING 8260
SWIDTH 371 0
DWIDTH 12 0
BBX 12 25 0 -1
BITMAP
16AA54
BFFFFD
3FFFF8
0FFFF8
07FFF0
02FFF0
02FFE0
02FFE0
02FFD0
02FFD0
02FFC0
02FFC0
02FFC0
02FFC0
01FFC0
01FFC0
00FF80
00FF80
00BF40
00BF40
00BF40
00BF40
00BF40
006B40
000740
ENDCHAR
STARTCHAR Euro
ENCODING 8364
SWIDTH 587 0
DWIDTH 19 0
BBX 18 31 0 -7
BITMAP
00016A9000
000BFFF800
002FFFFE00
00BFFFFF80
00FFFFFFD0
01FFFFFFD0
02FFFFFFD0
02FFFFFFD0
02FFFFFFD0
01FFFFFFD0
01FFFBFFC0
01FFE2FFD0
00FFD0FFC0
6AFFF8FFC0
7FFFE41040
00BFC00000
15BFD40000
7FFFF85000
15BFE5FE00
003FD1FF00
003FE3FE00
001FFFFE00
001FFFFC00
000FFFF400
0001DBD000
0000854000
0000854000
0000850000
0000880000
0000080000
0000040000
ENDCHAR
STARTCHAR trademark
ENCODING 8482
SWIDTH 785 0
DWIDTH 25 0
BBX 24 17 0 8
BITMAP
000000004000
5AAA90AFC7F9
7FFFF8BFD7FE
3FFFF43FEBFD
2FFFF43FEFFC
1FFFF02FFFFC
1FFFF02FFFF8
1FFFB01FFFF8
007E001FFFF8
007E001FFFF8
007E000FBEF8
007E000F7DF8
007D000BBDF4
007E000BA9F4
003E000A9AB0
007E00050020
007900000000
ENDCHAR
STARTCHAR minus
ENCODING 8722
SWIDTH 478 0
DWIDTH 15 0
BBX 13 7 1 9
BITMAP
15555540
3FFFFF40
3FFFFF00
3FFFFE00
7FFFFE00
7FFFFE00
16A69900
ENDCHAR
STARTCHAR commaaccent
ENCODING 63171
SWIDTH 360 0
DWIDTH 12 0
BBX 9 16 1 -5
BITMAP
6FAA40
7FFF80
7FFF80
7FFFC0
7FFFC0
7FFFC0
7FFFC0
7FFF80
BFFF80
25AF80
002F80
002F80
003F40
003F40
003F00
002A00
ENDCHAR
STARTCHAR .notdef
ENCODING -1
SWIDTH 365 0
DWIDTH 12 0
BBX 9 22 1 0
BITMAP
555540
EAAB80
C00280
C00280
C00280
C00280
C00280
C00280
C00280
C00280
C00280
C00280
C00280
C00280
C00280
C00280
C00280
C00280
C00280
C00280
D00280
FFFF80
ENDCHAR
STARTCHAR .null
ENCODING -1
SWIDTH 0 0
DWIDTH 0 0
BBX 1 1 0 0
BITMAP
00
ENDCHAR
STARTCHAR nonmarkingreturn
ENCODING -1
SWIDTH 333 0
DWIDTH 11 0
BBX 1 1 0 0
BITMAP
00
ENDCHAR
ENDFONT
